<?xml version="1.0" encoding="UTF-8"?>
<svg xmlns="http://www.w3.org/2000/svg" xmlns:xlink="http://www.w3.org/1999/xlink" viewBox="0 0 251.87 22.27">
  <defs>
    <style>
      .cls-1 {
        opacity: .06;
      }

      .cls-2, .cls-3 {
        fill: #1f285b;
      }

      .cls-4 {
        fill: #fff;
      }

      .cls-4, .cls-3 {
        stroke-width: 0px;
      }
    </style>
    <clipPath id="clippath">
      <rect class="cls-3" x="-658.48" y="116.29" width="2485.03" height="1281.01"/>
    </clipPath>
  </defs>
  <g id="Layer_2" data-name="Layer 2">
    <g class="cls-1">
      <rect class="cls-2" x="-658.48" y="116.29" width="2485.03" height="1281.01"/>
    </g>
  </g>
  <g id="Layer_3" data-name="Layer 3">
    <g>
      <g>
        <path class="cls-4" d="m216.65,2.66c0-1.47-1.2-2.66-2.68-2.66s-2.68,1.19-2.68,2.66,1.2,2.66,2.68,2.66,2.68-1.19,2.68-2.66Z"/>
        <path class="cls-4" d="m202.57,2.66c0-1.47-1.2-2.66-2.68-2.66s-2.68,1.19-2.68,2.66,1.2,2.66,2.68,2.66,2.68-1.19,2.68-2.66Z"/>
        <path class="cls-4" d="m188.48,2.66c0-1.47-1.2-2.66-2.68-2.66s-2.68,1.19-2.68,2.66,1.2,2.66,2.68,2.66,2.68-1.19,2.68-2.66Z"/>
        <path class="cls-4" d="m174.4,2.66c0-1.47-1.2-2.66-2.68-2.66s-2.68,1.19-2.68,2.66,1.2,2.66,2.68,2.66,2.68-1.19,2.68-2.66Z"/>
        <path class="cls-4" d="m160.31,2.66c0-1.47-1.2-2.66-2.68-2.66s-2.68,1.19-2.68,2.66,1.2,2.66,2.68,2.66,2.68-1.19,2.68-2.66Z"/>
        <path class="cls-4" d="m146.22,2.66c0-1.47-1.2-2.66-2.68-2.66s-2.68,1.19-2.68,2.66,1.2,2.66,2.68,2.66,2.68-1.19,2.68-2.66Z"/>
        <path class="cls-4" d="m132.14,2.66c0-1.47-1.2-2.66-2.68-2.66s-2.68,1.19-2.68,2.66,1.2,2.66,2.68,2.66,2.68-1.19,2.68-2.66Z"/>
        <path class="cls-4" d="m118.05,2.66c0-1.47-1.2-2.66-2.68-2.66s-2.68,1.19-2.68,2.66,1.2,2.66,2.68,2.66,2.68-1.19,2.68-2.66Z"/>
        <path class="cls-4" d="m103.96,2.66c0-1.47-1.2-2.66-2.68-2.66s-2.68,1.19-2.68,2.66,1.2,2.66,2.68,2.66,2.68-1.19,2.68-2.66Z"/>
        <path class="cls-4" d="m89.88,2.66c0-1.47-1.2-2.66-2.68-2.66s-2.68,1.19-2.68,2.66,1.2,2.66,2.68,2.66,2.68-1.19,2.68-2.66Z"/>
        <path class="cls-4" d="m75.79,2.66c0-1.47-1.2-2.66-2.68-2.66s-2.68,1.19-2.68,2.66,1.2,2.66,2.68,2.66,2.68-1.19,2.68-2.66Z"/>
        <path class="cls-4" d="m61.71,2.66c0-1.47-1.2-2.66-2.68-2.66s-2.68,1.19-2.68,2.66,1.2,2.66,2.68,2.66,2.68-1.19,2.68-2.66Z"/>
        <path class="cls-4" d="m47.62,2.66c0-1.47-1.2-2.66-2.68-2.66s-2.68,1.19-2.68,2.66,1.2,2.66,2.68,2.66,2.68-1.19,2.68-2.66Z"/>
        <path class="cls-4" d="m33.53,2.66c0-1.47-1.2-2.66-2.68-2.66s-2.68,1.19-2.68,2.66,1.2,2.66,2.68,2.66,2.68-1.19,2.68-2.66Z"/>
        <path class="cls-4" d="m19.45,2.66c0-1.47-1.2-2.66-2.68-2.66s-2.68,1.19-2.68,2.66,1.2,2.66,2.68,2.66,2.68-1.19,2.68-2.66Z"/>
        <path class="cls-4" d="m5.36,2.66c0-1.47-1.2-2.66-2.68-2.66S0,1.19,0,2.66s1.2,2.66,2.68,2.66,2.68-1.19,2.68-2.66Z"/>
      </g>
      <g>
        <path class="cls-4" d="m251.87,19.61c0-1.47-1.2-2.66-2.68-2.66s-2.68,1.19-2.68,2.66,1.2,2.66,2.68,2.66,2.68-1.19,2.68-2.66Z"/>
        <path class="cls-4" d="m237.78,19.61c0-1.47-1.2-2.66-2.68-2.66s-2.68,1.19-2.68,2.66,1.2,2.66,2.68,2.66,2.68-1.19,2.68-2.66Z"/>
        <path class="cls-4" d="m223.7,19.61c0-1.47-1.2-2.66-2.68-2.66s-2.68,1.19-2.68,2.66,1.2,2.66,2.68,2.66,2.68-1.19,2.68-2.66Z"/>
        <ellipse class="cls-4" cx="206.93" cy="19.61" rx="2.68" ry="2.66"/>
        <path class="cls-4" d="m195.52,19.61c0-1.47-1.2-2.66-2.68-2.66s-2.68,1.19-2.68,2.66,1.2,2.66,2.68,2.66,2.68-1.19,2.68-2.66Z"/>
        <ellipse class="cls-4" cx="178.76" cy="19.61" rx="2.68" ry="2.66"/>
        <path class="cls-4" d="m167.35,19.61c0-1.47-1.2-2.66-2.68-2.66s-2.68,1.19-2.68,2.66,1.2,2.66,2.68,2.66,2.68-1.19,2.68-2.66Z"/>
        <path class="cls-4" d="m153.27,19.61c0-1.47-1.2-2.66-2.68-2.66s-2.68,1.19-2.68,2.66,1.2,2.66,2.68,2.66,2.68-1.19,2.68-2.66Z"/>
        <ellipse class="cls-4" cx="136.5" cy="19.61" rx="2.68" ry="2.66"/>
        <path class="cls-4" d="m125.09,19.61c0-1.47-1.2-2.66-2.68-2.66s-2.68,1.19-2.68,2.66,1.2,2.66,2.68,2.66,2.68-1.19,2.68-2.66Z"/>
        <path class="cls-4" d="m111.01,19.61c0-1.47-1.2-2.66-2.68-2.66s-2.68,1.19-2.68,2.66,1.2,2.66,2.68,2.66,2.68-1.19,2.68-2.66Z"/>
        <ellipse class="cls-4" cx="94.24" cy="19.61" rx="2.68" ry="2.66"/>
        <path class="cls-4" d="m82.83,19.61c0-1.47-1.2-2.66-2.68-2.66s-2.68,1.19-2.68,2.66,1.2,2.66,2.68,2.66,2.68-1.19,2.68-2.66Z"/>
        <path class="cls-4" d="m68.75,19.61c0-1.47-1.2-2.66-2.68-2.66s-2.68,1.19-2.68,2.66,1.2,2.66,2.68,2.66,2.68-1.19,2.68-2.66Z"/>
        <ellipse class="cls-4" cx="51.98" cy="19.61" rx="2.68" ry="2.66"/>
        <path class="cls-4" d="m40.58,19.61c0-1.47-1.2-2.66-2.68-2.66s-2.68,1.19-2.68,2.66,1.2,2.66,2.68,2.66,2.68-1.19,2.68-2.66Z"/>
      </g>
    </g>
  </g>
</svg>