<?xml version="1.0" encoding="UTF-8"?>
<svg xmlns="http://www.w3.org/2000/svg" xmlns:xlink="http://www.w3.org/1999/xlink" viewBox="0 0 2350.69 1297.83">
  <defs>
    <style>
      .cls-1 {
        fill: url(#radial-gradient-79);
      }

      .cls-1, .cls-2, .cls-3, .cls-4, .cls-5, .cls-6, .cls-7, .cls-8, .cls-9, .cls-10, .cls-11, .cls-12, .cls-13, .cls-14, .cls-15, .cls-16, .cls-17, .cls-18, .cls-19, .cls-20, .cls-21, .cls-22, .cls-23, .cls-24, .cls-25, .cls-26, .cls-27, .cls-28, .cls-29, .cls-30, .cls-31, .cls-32, .cls-33, .cls-34, .cls-35, .cls-36, .cls-37, .cls-38, .cls-39, .cls-40, .cls-41, .cls-42, .cls-43, .cls-44, .cls-45, .cls-46, .cls-47, .cls-48, .cls-49, .cls-50, .cls-51, .cls-52, .cls-53, .cls-54, .cls-55, .cls-56, .cls-57, .cls-58, .cls-59, .cls-60, .cls-61, .cls-62, .cls-63, .cls-64, .cls-65, .cls-66, .cls-67, .cls-68, .cls-69, .cls-70, .cls-71, .cls-72, .cls-73, .cls-74, .cls-75, .cls-76, .cls-77, .cls-78, .cls-79, .cls-80, .cls-81, .cls-82, .cls-83, .cls-84, .cls-85, .cls-86, .cls-87, .cls-88, .cls-89, .cls-90, .cls-91, .cls-92, .cls-93, .cls-94, .cls-95, .cls-96, .cls-97, .cls-98, .cls-99, .cls-100, .cls-101, .cls-102, .cls-103, .cls-104, .cls-105, .cls-106, .cls-107, .cls-108, .cls-109, .cls-110, .cls-111, .cls-112, .cls-113, .cls-114, .cls-115, .cls-116, .cls-117, .cls-118, .cls-119, .cls-120, .cls-121, .cls-122, .cls-123, .cls-124, .cls-125, .cls-126, .cls-127, .cls-128 {
        stroke-width: 0px;
      }

      .cls-1, .cls-2, .cls-3, .cls-4, .cls-5, .cls-6, .cls-7, .cls-8, .cls-9, .cls-10, .cls-11, .cls-12, .cls-13, .cls-14, .cls-15, .cls-16, .cls-17, .cls-18, .cls-20, .cls-21, .cls-22, .cls-23, .cls-24, .cls-25, .cls-26, .cls-27, .cls-28, .cls-30, .cls-32, .cls-34, .cls-35, .cls-36, .cls-37, .cls-38, .cls-39, .cls-40, .cls-41, .cls-42, .cls-43, .cls-44, .cls-46, .cls-48, .cls-49, .cls-50, .cls-51, .cls-52, .cls-53, .cls-54, .cls-55, .cls-56, .cls-57, .cls-58, .cls-59, .cls-61, .cls-62, .cls-63, .cls-64, .cls-65, .cls-67, .cls-68, .cls-69, .cls-70, .cls-71, .cls-72, .cls-73, .cls-74, .cls-75, .cls-76, .cls-77, .cls-78, .cls-79, .cls-80, .cls-81, .cls-82, .cls-83, .cls-84, .cls-86, .cls-87, .cls-88, .cls-89, .cls-90, .cls-91, .cls-94, .cls-95, .cls-96, .cls-99, .cls-101, .cls-102, .cls-103, .cls-104, .cls-105, .cls-106, .cls-107, .cls-108, .cls-109, .cls-110, .cls-111, .cls-112, .cls-113, .cls-118, .cls-119, .cls-120, .cls-122, .cls-123, .cls-124, .cls-125, .cls-126, .cls-127, .cls-128 {
        mix-blend-mode: screen;
      }

      .cls-2 {
        fill: url(#radial-gradient-76);
      }

      .cls-3 {
        fill: url(#radial-gradient-20);
      }

      .cls-4 {
        fill: url(#radial-gradient-45);
      }

      .cls-5 {
        fill: url(#radial-gradient-92);
      }

      .cls-6 {
        fill: url(#radial-gradient-67);
      }

      .cls-7 {
        fill: url(#radial-gradient-66);
      }

      .cls-8 {
        fill: url(#radial-gradient-72);
      }

      .cls-9 {
        fill: url(#radial-gradient-42);
      }

      .cls-10 {
        fill: url(#radial-gradient-65);
      }

      .cls-11 {
        fill: url(#radial-gradient-11);
      }

      .cls-12 {
        fill: url(#radial-gradient-27);
      }

      .cls-13 {
        fill: url(#radial-gradient-103);
      }

      .cls-14 {
        fill: url(#radial-gradient-91);
      }

      .cls-15 {
        fill: url(#radial-gradient-48);
      }

      .cls-16 {
        fill: url(#radial-gradient-56);
      }

      .cls-17 {
        fill: url(#radial-gradient-109);
      }

      .cls-18 {
        fill: url(#radial-gradient-95);
      }

      .cls-19 {
        fill: url(#radial-gradient-111);
      }

      .cls-19, .cls-31, .cls-33, .cls-45, .cls-47, .cls-60, .cls-66, .cls-85, .cls-92, .cls-93, .cls-97, .cls-100, .cls-114, .cls-116, .cls-117, .cls-121 {
        mix-blend-mode: color-dodge;
      }

      .cls-20 {
        fill: url(#radial-gradient-28);
      }

      .cls-21 {
        fill: url(#radial-gradient-68);
      }

      .cls-22 {
        fill: url(#radial-gradient-40);
      }

      .cls-23 {
        fill: url(#radial-gradient-82);
      }

      .cls-24 {
        fill: url(#radial-gradient-25);
      }

      .cls-25 {
        fill: url(#radial-gradient-77);
      }

      .cls-26 {
        fill: url(#radial-gradient-88);
      }

      .cls-27 {
        fill: url(#radial-gradient-49);
      }

      .cls-28 {
        fill: url(#radial-gradient-51);
      }

      .cls-29 {
        fill: #57abdf;
      }

      .cls-30 {
        fill: url(#radial-gradient-52);
      }

      .cls-31 {
        fill: url(#radial-gradient-118);
      }

      .cls-32 {
        fill: url(#radial-gradient-99);
      }

      .cls-33 {
        fill: url(#radial-gradient-119);
      }

      .cls-34 {
        fill: url(#radial-gradient-105);
      }

      .cls-129 {
        opacity: .06;
      }

      .cls-35 {
        fill: url(#radial-gradient-96);
      }

      .cls-36 {
        fill: url(#radial-gradient-7);
      }

      .cls-37 {
        fill: url(#radial-gradient-100);
      }

      .cls-130 {
        isolation: isolate;
      }

      .cls-38 {
        fill: url(#radial-gradient-6);
      }

      .cls-39 {
        fill: url(#radial-gradient-87);
      }

      .cls-40 {
        fill: url(#radial-gradient-3);
      }

      .cls-41 {
        fill: url(#radial-gradient-84);
      }

      .cls-42 {
        fill: url(#radial-gradient-32);
      }

      .cls-43 {
        fill: url(#radial-gradient-18);
      }

      .cls-44 {
        fill: url(#radial-gradient-5);
      }

      .cls-45 {
        fill: url(#radial-gradient-121);
      }

      .cls-46 {
        fill: url(#radial-gradient-61);
      }

      .cls-47 {
        fill: url(#radial-gradient-122);
      }

      .cls-48 {
        fill: url(#radial-gradient-53);
      }

      .cls-49 {
        fill: url(#radial-gradient-31);
      }

      .cls-50 {
        fill: url(#radial-gradient-33);
      }

      .cls-51 {
        fill: url(#radial-gradient-64);
      }

      .cls-52 {
        fill: url(#radial-gradient-69);
      }

      .cls-53 {
        fill: url(#radial-gradient-4);
      }

      .cls-54 {
        fill: url(#radial-gradient-57);
      }

      .cls-55 {
        fill: url(#radial-gradient);
      }

      .cls-56 {
        fill: url(#radial-gradient-38);
      }

      .cls-57 {
        fill: url(#radial-gradient-104);
      }

      .cls-58 {
        fill: url(#radial-gradient-35);
      }

      .cls-59 {
        fill: url(#radial-gradient-43);
      }

      .cls-60 {
        fill: url(#radial-gradient-117);
      }

      .cls-61 {
        fill: url(#radial-gradient-62);
      }

      .cls-62 {
        fill: url(#radial-gradient-85);
      }

      .cls-63 {
        fill: url(#radial-gradient-34);
      }

      .cls-64 {
        fill: url(#radial-gradient-54);
      }

      .cls-65 {
        fill: url(#radial-gradient-29);
      }

      .cls-66 {
        fill: url(#radial-gradient-125);
      }

      .cls-67 {
        fill: url(#radial-gradient-22);
      }

      .cls-131, .cls-98 {
        fill: #1f285b;
      }

      .cls-68 {
        fill: url(#radial-gradient-30);
      }

      .cls-69 {
        fill: url(#radial-gradient-81);
      }

      .cls-70 {
        fill: url(#radial-gradient-71);
      }

      .cls-71 {
        fill: url(#radial-gradient-97);
      }

      .cls-72 {
        fill: url(#radial-gradient-90);
      }

      .cls-73 {
        fill: url(#radial-gradient-14);
      }

      .cls-74 {
        fill: url(#radial-gradient-23);
      }

      .cls-75 {
        fill: url(#radial-gradient-9);
      }

      .cls-76 {
        fill: url(#radial-gradient-39);
      }

      .cls-77 {
        fill: url(#radial-gradient-58);
      }

      .cls-78 {
        fill: url(#radial-gradient-37);
      }

      .cls-132 {
        clip-path: url(#clippath);
      }

      .cls-79 {
        fill: url(#radial-gradient-89);
      }

      .cls-80 {
        fill: url(#radial-gradient-19);
      }

      .cls-81 {
        fill: url(#radial-gradient-74);
      }

      .cls-82 {
        fill: url(#radial-gradient-107);
      }

      .cls-83 {
        fill: url(#radial-gradient-2);
      }

      .cls-84 {
        fill: url(#radial-gradient-10);
      }

      .cls-85 {
        fill: url(#radial-gradient-110);
      }

      .cls-86 {
        fill: url(#radial-gradient-44);
      }

      .cls-87 {
        fill: url(#radial-gradient-73);
      }

      .cls-88 {
        fill: url(#radial-gradient-50);
      }

      .cls-89 {
        fill: url(#radial-gradient-83);
      }

      .cls-90 {
        fill: url(#radial-gradient-26);
      }

      .cls-91 {
        fill: url(#radial-gradient-78);
      }

      .cls-92 {
        fill: url(#radial-gradient-113);
      }

      .cls-93 {
        fill: url(#radial-gradient-116);
      }

      .cls-94 {
        fill: url(#radial-gradient-59);
      }

      .cls-95 {
        fill: url(#radial-gradient-17);
      }

      .cls-96 {
        fill: url(#radial-gradient-106);
      }

      .cls-97 {
        fill: url(#radial-gradient-114);
      }

      .cls-99 {
        fill: url(#radial-gradient-8);
      }

      .cls-100 {
        fill: url(#radial-gradient-112);
      }

      .cls-101 {
        fill: url(#radial-gradient-93);
      }

      .cls-133 {
        mix-blend-mode: overlay;
      }

      .cls-102 {
        fill: url(#radial-gradient-24);
      }

      .cls-103 {
        fill: url(#radial-gradient-21);
      }

      .cls-104 {
        fill: url(#radial-gradient-36);
      }

      .cls-105 {
        fill: url(#radial-gradient-60);
      }

      .cls-106 {
        fill: url(#radial-gradient-70);
      }

      .cls-107 {
        fill: url(#radial-gradient-101);
      }

      .cls-108 {
        fill: url(#radial-gradient-75);
      }

      .cls-109 {
        fill: url(#radial-gradient-41);
      }

      .cls-110 {
        fill: url(#radial-gradient-108);
      }

      .cls-111 {
        fill: url(#radial-gradient-63);
      }

      .cls-112 {
        fill: url(#radial-gradient-80);
      }

      .cls-113 {
        fill: url(#radial-gradient-86);
      }

      .cls-114 {
        fill: url(#radial-gradient-123);
      }

      .cls-115 {
        fill: #d9d9d8;
      }

      .cls-116 {
        fill: url(#radial-gradient-120);
      }

      .cls-117 {
        fill: url(#radial-gradient-124);
      }

      .cls-118 {
        fill: url(#radial-gradient-16);
      }

      .cls-119 {
        fill: url(#radial-gradient-15);
      }

      .cls-120 {
        fill: url(#radial-gradient-12);
      }

      .cls-121 {
        fill: url(#radial-gradient-115);
      }

      .cls-122 {
        fill: url(#radial-gradient-98);
      }

      .cls-123 {
        fill: url(#radial-gradient-47);
      }

      .cls-124 {
        fill: url(#radial-gradient-94);
      }

      .cls-125 {
        fill: url(#radial-gradient-55);
      }

      .cls-126 {
        fill: url(#radial-gradient-102);
      }

      .cls-127 {
        fill: url(#radial-gradient-46);
      }

      .cls-128 {
        fill: url(#radial-gradient-13);
      }

      
      .ping{
        animation: ping 2.5s cubic-bezier(0, 0, 0.2, 1) infinite;
      }
      @keyframes ping {
        75%, 100% {
          transform: scale(1.01);
          opacity: 0;
        }
      }
      .ping2{
        animation: ping2 2s cubic-bezier(0, 0, 0.2, 1) infinite;
      }
      @keyframes ping2 {
        75%, 100% {
          transform: scale(1);
          opacity: 0;
        }
      }
    </style>
    <clipPath id="clippath">
      <rect class="cls-98" x="-31.82" y="15.74" width="2485.03" height="1281.01"/>
    </clipPath>
    <radialGradient id="radial-gradient" cx="7185.34" cy="850.04" fx="7185.34" fy="850.04" r="23.85" gradientTransform="translate(-6178.18 434.64) scale(1.03 1)" gradientUnits="userSpaceOnUse">
      <stop offset=".01" stop-color="#fff"/>
      <stop offset=".11" stop-color="#3c82c4"/>
      <stop offset=".11" stop-color="#3674b3"/>
      <stop offset=".12" stop-color="#1e4173"/>
      <stop offset=".13" stop-color="#10224c"/>
      <stop offset=".13" stop-color="#0b163d"/>
      <stop offset=".16" stop-color="#0a153a"/>
      <stop offset=".51" stop-color="#050a1b"/>
      <stop offset=".8" stop-color="#020307"/>
      <stop offset="1" stop-color="#010101"/>
    </radialGradient>
    <radialGradient id="radial-gradient-2" cx="6834.62" cy="635.37" fx="6834.62" fy="635.37" r="53.75" xlink:href="#radial-gradient"/>
    <radialGradient id="radial-gradient-3" cx="6329.6" cy="727.83" fx="6329.6" fy="727.83" r="50.05" xlink:href="#radial-gradient"/>
    <radialGradient id="radial-gradient-4" cx="6504.89" cy="241.75" fx="6504.89" fy="241.75" r="48.26" xlink:href="#radial-gradient"/>
    <radialGradient id="radial-gradient-5" cx="6253.93" cy="74.42" fx="6253.93" fy="74.42" r="48.26" xlink:href="#radial-gradient"/>
    <radialGradient id="radial-gradient-6" cx="6116.16" cy="241.74" fx="6116.16" fy="241.74" r="76.52" xlink:href="#radial-gradient"/>
    <radialGradient id="radial-gradient-7" cx="6380.27" cy="3.66" fx="6380.27" fy="3.66" r="55.12" xlink:href="#radial-gradient"/>
    <radialGradient id="radial-gradient-8" cx="6209.82" cy="-215.72" fx="6209.82" fy="-215.72" r="78.21" xlink:href="#radial-gradient"/>
    <radialGradient id="radial-gradient-9" cx="7912.9" cy="730.06" fx="7912.9" fy="730.06" r="13.7" xlink:href="#radial-gradient"/>
    <radialGradient id="radial-gradient-10" cx="7185.62" cy="859.24" fx="7185.62" fy="859.24" r="15.2" xlink:href="#radial-gradient"/>
    <radialGradient id="radial-gradient-11" cx="6685.89" cy="857.06" fx="6685.89" fy="857.06" r="18.96" xlink:href="#radial-gradient"/>
    <radialGradient id="radial-gradient-12" cx="6249.96" cy="541.94" fx="6249.96" fy="541.94" r="13.03" xlink:href="#radial-gradient"/>
    <radialGradient id="radial-gradient-13" cx="6486.44" cy="259.99" fx="6486.44" fy="259.99" r="12.7" xlink:href="#radial-gradient"/>
    <radialGradient id="radial-gradient-14" cx="6029.76" cy="-48.13" fx="6029.76" fy="-48.13" r="12.12" xlink:href="#radial-gradient"/>
    <radialGradient id="radial-gradient-15" cx="6312.57" cy="859.93" fx="6312.57" fy="859.93" r="22.23" xlink:href="#radial-gradient"/>
    <radialGradient id="radial-gradient-16" cx="6348.31" cy="382.84" fx="6348.31" fy="382.84" r="17.4" xlink:href="#radial-gradient"/>
    <radialGradient id="radial-gradient-17" cx="6044.32" cy="-45.66" fx="6044.32" fy="-45.66" r="12.29" xlink:href="#radial-gradient"/>
    <radialGradient id="radial-gradient-18" cx="6209.3" cy="274.76" fx="6209.3" fy="274.76" r="21.72" xlink:href="#radial-gradient"/>
    <radialGradient id="radial-gradient-19" cx="6449.13" cy="677.35" fx="6449.13" fy="677.35" r="17.24" xlink:href="#radial-gradient"/>
    <radialGradient id="radial-gradient-20" cx="6107.63" cy="-37.23" fx="6107.63" fy="-37.23" r="22.93" xlink:href="#radial-gradient"/>
    <radialGradient id="radial-gradient-21" cx="6294.13" cy="442.88" fx="6294.13" fy="442.88" r="19.78" xlink:href="#radial-gradient"/>
    <radialGradient id="radial-gradient-22" cx="5965.98" cy="177.91" fx="5965.98" fy="177.91" r="18" xlink:href="#radial-gradient"/>
    <radialGradient id="radial-gradient-23" cx="8098.78" cy="857.15" fx="8098.78" fy="857.15" r="18.51" xlink:href="#radial-gradient"/>
    <radialGradient id="radial-gradient-24" cx="6685.76" cy="741.33" fx="6685.76" fy="741.33" r="24.2" xlink:href="#radial-gradient"/>
    <radialGradient id="radial-gradient-25" cx="6377.34" cy="769.99" fx="6377.34" fy="769.99" r="17.18" xlink:href="#radial-gradient"/>
    <radialGradient id="radial-gradient-26" cx="6076.23" cy="661.33" fx="6076.23" fy="661.33" r="13.17" xlink:href="#radial-gradient"/>
    <radialGradient id="radial-gradient-27" cx="6160.71" cy="282.47" fx="6160.71" fy="282.47" r="16.14" xlink:href="#radial-gradient"/>
    <radialGradient id="radial-gradient-28" cx="6266.05" cy="-92.33" fx="6266.05" fy="-92.33" r="13.92" xlink:href="#radial-gradient"/>
    <radialGradient id="radial-gradient-29" cx="5987.97" cy="-194.42" fx="5987.97" fy="-194.42" r="14.3" xlink:href="#radial-gradient"/>
    <radialGradient id="radial-gradient-30" cx="6464.34" cy="620.02" fx="6464.34" fy="620.02" r="38.57" xlink:href="#radial-gradient"/>
    <radialGradient id="radial-gradient-31" cx="6209.17" cy="573.65" fx="6209.17" fy="573.65" r="36.53" xlink:href="#radial-gradient"/>
    <radialGradient id="radial-gradient-32" cx="5971.7" cy="57.83" fx="5971.7" fy="57.83" r="25.65" xlink:href="#radial-gradient"/>
    <radialGradient id="radial-gradient-33" cx="6154.95" cy="-445.14" fx="6154.95" fy="-445.14" r="44.4" xlink:href="#radial-gradient"/>
    <radialGradient id="radial-gradient-34" cx="330.84" cy="8772.49" fx="330.84" fy="8772.49" r="39.11" gradientTransform="translate(-4282.91 -4994.61) rotate(-44.03) scale(1.02) skewX(1.95)" xlink:href="#radial-gradient"/>
    <radialGradient id="radial-gradient-35" cx="273.26" cy="8568.68" fx="273.26" fy="8568.68" r="19.39" gradientTransform="translate(-4282.91 -4994.61) rotate(-44.03) scale(1.02) skewX(1.95)" xlink:href="#radial-gradient"/>
    <radialGradient id="radial-gradient-36" cx="52.72" cy="8738.1" fx="52.72" fy="8738.1" r="29.87" gradientTransform="translate(-4282.91 -4994.61) rotate(-44.03) scale(1.02) skewX(1.95)" xlink:href="#radial-gradient"/>
    <radialGradient id="radial-gradient-37" cx="-196.58" cy="8305.8" fx="-196.58" fy="8305.8" r="43.73" gradientTransform="translate(-4282.91 -4994.61) rotate(-44.03) scale(1.02) skewX(1.95)" xlink:href="#radial-gradient"/>
    <radialGradient id="radial-gradient-38" cx="-422.84" cy="8469.27" fx="-422.84" fy="8469.27" r="40.7" gradientTransform="translate(-4282.91 -4994.61) rotate(-44.03) scale(1.02) skewX(1.95)" xlink:href="#radial-gradient"/>
    <radialGradient id="radial-gradient-39" cx="-280.26" cy="8073.87" fx="-280.26" fy="8073.87" r="39.26" gradientTransform="translate(-4282.91 -4994.61) rotate(-44.03) scale(1.02) skewX(1.95)" xlink:href="#radial-gradient"/>
    <radialGradient id="radial-gradient-40" cx="-596.49" cy="8073.87" fx="-596.49" fy="8073.87" r="62.25" gradientTransform="translate(-4282.91 -4994.61) rotate(-44.03) scale(1.02) skewX(1.95)" xlink:href="#radial-gradient"/>
    <radialGradient id="radial-gradient-41" cx="-348.45" cy="7895.9" fx="-348.45" fy="7895.9" r="44.84" gradientTransform="translate(-4282.91 -4994.61) rotate(-44.03) scale(1.02) skewX(1.95)" xlink:href="#radial-gradient"/>
    <radialGradient id="radial-gradient-42" cx="-520.28" cy="7701.74" fx="-520.28" fy="7701.74" r="63.61" gradientTransform="translate(-4282.91 -4994.61) rotate(-44.03) scale(1.02) skewX(1.95)" xlink:href="#radial-gradient"/>
    <radialGradient id="radial-gradient-43" cx="-395.41" cy="7449.2" fx="-395.41" fy="7449.2" r="42.69" gradientTransform="translate(-4282.91 -4994.61) rotate(-44.03) scale(1.02) skewX(1.95)" xlink:href="#radial-gradient"/>
    <radialGradient id="radial-gradient-44" cx="-290.31" cy="7276.78" fx="-290.31" fy="7276.78" r="36.47" gradientTransform="translate(-4282.91 -4994.61) rotate(-44.03) scale(1.02) skewX(1.95)" xlink:href="#radial-gradient"/>
    <radialGradient id="radial-gradient-45" cx="-411.95" cy="7027.27" fx="-411.95" fy="7027.27" r="28.74" gradientTransform="translate(-4282.91 -4994.61) rotate(-44.03) scale(1.02) skewX(1.95)" xlink:href="#radial-gradient"/>
    <radialGradient id="radial-gradient-46" cx="-489.32" cy="6568.19" fx="-489.32" fy="6568.19" r="26.66" gradientTransform="translate(-4282.91 -4994.61) rotate(-44.03) scale(1.02) skewX(1.95)" xlink:href="#radial-gradient"/>
    <radialGradient id="radial-gradient-47" cx="67.02" cy="8588.54" fx="67.02" fy="8588.54" r="12.36" gradientTransform="translate(-4282.91 -4994.61) rotate(-44.03) scale(1.02) skewX(1.95)" xlink:href="#radial-gradient"/>
    <radialGradient id="radial-gradient-48" cx="-133.02" cy="8574.41" fx="-133.02" fy="8574.41" r="15.42" gradientTransform="translate(-4282.91 -4994.61) rotate(-44.03) scale(1.02) skewX(1.95)" xlink:href="#radial-gradient"/>
    <radialGradient id="radial-gradient-49" cx="-487.63" cy="8318.08" fx="-487.63" fy="8318.08" r="10.6" gradientTransform="translate(-4282.91 -4994.61) rotate(-44.03) scale(1.02) skewX(1.95)" xlink:href="#radial-gradient"/>
    <radialGradient id="radial-gradient-50" cx="-295.27" cy="8088.69" fx="-295.27" fy="8088.69" r="10.33" gradientTransform="translate(-4282.91 -4994.61) rotate(-44.03) scale(1.02) skewX(1.95)" xlink:href="#radial-gradient"/>
    <radialGradient id="radial-gradient-51" cx="-666.77" cy="7838.05" fx="-666.77" fy="7838.05" r="9.87" gradientTransform="translate(-4282.91 -4994.61) rotate(-44.03) scale(1.02) skewX(1.95)" xlink:href="#radial-gradient"/>
    <radialGradient id="radial-gradient-52" cx="-840.63" cy="7567.44" fx="-840.63" fy="7567.44" r="15.28" gradientTransform="translate(-4282.91 -4994.61) rotate(-44.03) scale(1.02) skewX(1.95)" xlink:href="#radial-gradient"/>
    <radialGradient id="radial-gradient-53" cx="-404.52" cy="7342.97" fx="-404.52" fy="7342.97" r="8.42" gradientTransform="translate(-4282.91 -4994.61) rotate(-44.03) scale(1.02) skewX(1.95)" xlink:href="#radial-gradient"/>
    <radialGradient id="radial-gradient-54" cx="-423.61" cy="6914.39" fx="-423.61" fy="6914.39" r="7.25" gradientTransform="translate(-4282.91 -4994.61) rotate(-44.03) scale(1.02) skewX(1.95)" xlink:href="#radial-gradient"/>
    <radialGradient id="radial-gradient-55" cx="-207.96" cy="6909.2" fx="-207.96" fy="6909.2" r="10.67" gradientTransform="translate(-4282.91 -4994.61) rotate(-44.03) scale(1.02) skewX(1.95)" xlink:href="#radial-gradient"/>
    <radialGradient id="radial-gradient-56" cx="212.65" cy="8688.96" fx="212.65" fy="8688.96" r="11.64" gradientTransform="translate(-4282.91 -4994.61) rotate(-44.03) scale(1.02) skewX(1.95)" xlink:href="#radial-gradient"/>
    <radialGradient id="radial-gradient-57" cx="4.28" cy="8833.79" fx="4.28" fy="8833.79" r="10.73" gradientTransform="translate(-4282.91 -4994.61) rotate(-44.03) scale(1.02) skewX(1.95)" xlink:href="#radial-gradient"/>
    <radialGradient id="radial-gradient-58" cx="-407.62" cy="8188.63" fx="-407.62" fy="8188.63" r="14.15" gradientTransform="translate(-4282.91 -4994.61) rotate(-44.03) scale(1.02) skewX(1.95)" xlink:href="#radial-gradient"/>
    <radialGradient id="radial-gradient-59" cx="-654.91" cy="7840.06" fx="-654.91" fy="7840.06" r="10" gradientTransform="translate(-4282.91 -4994.61) rotate(-44.03) scale(1.02) skewX(1.95)" xlink:href="#radial-gradient"/>
    <radialGradient id="radial-gradient-60" cx="-732.54" cy="7445.25" fx="-732.54" fy="7445.25" r="18.44" gradientTransform="translate(-4282.91 -4994.61) rotate(-44.03) scale(1.02) skewX(1.95)" xlink:href="#radial-gradient"/>
    <radialGradient id="radial-gradient-61" cx="-821.94" cy="7276.25" fx="-821.94" fy="7276.25" r="9.04" gradientTransform="translate(-4282.91 -4994.61) rotate(-44.03) scale(1.02) skewX(1.95)" xlink:href="#radial-gradient"/>
    <radialGradient id="radial-gradient-62" cx="-337.85" cy="7101.1" fx="-337.85" fy="7101.1" r="11.2" gradientTransform="translate(-4282.91 -4994.61) rotate(-44.03) scale(1.02) skewX(1.95)" xlink:href="#radial-gradient"/>
    <radialGradient id="radial-gradient-63" cx="-369.59" cy="6783.53" fx="-369.59" fy="6783.53" r="9.56" gradientTransform="translate(-4282.91 -4994.61) rotate(-44.03) scale(1.02) skewX(1.95)" xlink:href="#radial-gradient"/>
    <radialGradient id="radial-gradient-64" cx="163.81" cy="8919.51" fx="163.81" fy="8919.51" r="17.12" gradientTransform="translate(-4282.91 -4994.61) rotate(-44.03) scale(1.02) skewX(1.95)" xlink:href="#radial-gradient"/>
    <radialGradient id="radial-gradient-65" cx="-24.48" cy="8877.68" fx="-24.48" fy="8877.68" r="14.94" gradientTransform="translate(-4282.91 -4994.61) rotate(-44.03) scale(1.02) skewX(1.95)" xlink:href="#radial-gradient"/>
    <radialGradient id="radial-gradient-66" cx="-56.26" cy="8689.07" fx="-56.26" fy="8689.07" r="19.05" gradientTransform="translate(-4282.91 -4994.61) rotate(-44.03) scale(1.02) skewX(1.95)" xlink:href="#radial-gradient"/>
    <radialGradient id="radial-gradient-67" cx="-182.11" cy="8649.06" fx="-182.11" fy="8649.06" r="18.96" gradientTransform="translate(-4282.91 -4994.61) rotate(-44.03) scale(1.02) skewX(1.95)" xlink:href="#radial-gradient"/>
    <radialGradient id="radial-gradient-68" cx="-520.7" cy="8100.71" fx="-520.7" fy="8100.71" r="17.67" gradientTransform="translate(-4282.91 -4994.61) rotate(-44.03) scale(1.02) skewX(1.95)" xlink:href="#radial-gradient"/>
    <radialGradient id="radial-gradient-69" cx="-908.76" cy="7806.47" fx="-908.76" fy="7806.47" r="10.87" gradientTransform="translate(-4282.91 -4994.61) rotate(-44.03) scale(1.02) skewX(1.95)" xlink:href="#radial-gradient"/>
    <radialGradient id="radial-gradient-70" cx="-567.81" cy="7510.13" fx="-567.81" fy="7510.13" r="6.95" gradientTransform="translate(-4282.91 -4994.61) rotate(-44.03) scale(1.02) skewX(1.95)" xlink:href="#radial-gradient"/>
    <radialGradient id="radial-gradient-71" cx="-1013.61" cy="7208.86" fx="-1013.61" fy="7208.86" r="8.74" gradientTransform="translate(-4282.91 -4994.61) rotate(-44.03) scale(1.02) skewX(1.95)" xlink:href="#radial-gradient"/>
    <radialGradient id="radial-gradient-72" cx="-797.25" cy="6840.5" fx="-797.25" fy="6840.5" r="17.31" gradientTransform="translate(-4282.91 -4994.61) rotate(-44.03) scale(1.02) skewX(1.95)" xlink:href="#radial-gradient"/>
    <radialGradient id="radial-gradient-73" cx="-735.69" cy="6777.31" fx="-735.69" fy="6777.31" r="13.26" gradientTransform="translate(-4282.91 -4994.61) rotate(-44.03) scale(1.02) skewX(1.95)" xlink:href="#radial-gradient"/>
    <radialGradient id="radial-gradient-74" cx="154.86" cy="8932.46" fx="154.86" fy="8932.46" r="18.5" gradientTransform="translate(-4282.91 -4994.61) rotate(-44.03) scale(1.02) skewX(1.95)" xlink:href="#radial-gradient"/>
    <radialGradient id="radial-gradient-75" cx="-325.6" cy="8428.2" fx="-325.6" fy="8428.2" r="14.03" gradientTransform="translate(-4282.91 -4994.61) rotate(-44.03) scale(1.02) skewX(1.95)" xlink:href="#radial-gradient"/>
    <radialGradient id="radial-gradient-76" cx="-603.41" cy="7846.93" fx="-603.41" fy="7846.93" r="18.66" gradientTransform="translate(-4282.91 -4994.61) rotate(-44.03) scale(1.02) skewX(1.95)" xlink:href="#radial-gradient"/>
    <radialGradient id="radial-gradient-77" cx="-886.65" cy="7694.46" fx="-886.65" fy="7694.46" r="13.77" gradientTransform="translate(-4282.91 -4994.61) rotate(-44.03) scale(1.02) skewX(1.95)" xlink:href="#radial-gradient"/>
    <radialGradient id="radial-gradient-78" cx="-454.74" cy="7500.16" fx="-454.74" fy="7500.16" r="18.71" gradientTransform="translate(-4282.91 -4994.61) rotate(-44.03) scale(1.02) skewX(1.95)" xlink:href="#radial-gradient"/>
    <radialGradient id="radial-gradient-79" cx="-712.46" cy="7227.88" fx="-712.46" fy="7227.88" r="12" gradientTransform="translate(-4282.91 -4994.61) rotate(-44.03) scale(1.02) skewX(1.95)" xlink:href="#radial-gradient"/>
    <radialGradient id="radial-gradient-80" cx="-460.41" cy="6930.47" fx="-460.41" fy="6930.47" r="17.23" gradientTransform="translate(-4282.91 -4994.61) rotate(-44.03) scale(1.02) skewX(1.95)" xlink:href="#radial-gradient"/>
    <radialGradient id="radial-gradient-81" cx="-264.39" cy="6846.75" fx="-264.39" fy="6846.75" r="18.67" gradientTransform="translate(-4282.91 -4994.61) rotate(-44.03) scale(1.02) skewX(1.95)" xlink:href="#radial-gradient"/>
    <radialGradient id="radial-gradient-82" cx="319.97" cy="8671.12" fx="319.97" fy="8671.12" r="19.28" gradientTransform="translate(-4282.91 -4994.61) rotate(-44.03) scale(1.02) skewX(1.95)" xlink:href="#radial-gradient"/>
    <radialGradient id="radial-gradient-83" cx="65.08" cy="8949.29" fx="65.08" fy="8949.29" r="17.19" gradientTransform="translate(-4282.91 -4994.61) rotate(-44.03) scale(1.02) skewX(1.95)" xlink:href="#radial-gradient"/>
    <radialGradient id="radial-gradient-84" cx="-451.7" cy="8237.49" fx="-451.7" fy="8237.49" r="16.09" gradientTransform="translate(-4282.91 -4994.61) rotate(-44.03) scale(1.02) skewX(1.95)" xlink:href="#radial-gradient"/>
    <radialGradient id="radial-gradient-85" cx="-718.63" cy="8021.94" fx="-718.63" fy="8021.94" r="14.64" gradientTransform="translate(-4282.91 -4994.61) rotate(-44.03) scale(1.02) skewX(1.95)" xlink:href="#radial-gradient"/>
    <radialGradient id="radial-gradient-86" cx="-1039.63" cy="7601.92" fx="-1039.63" fy="7601.92" r="9.62" gradientTransform="translate(-4282.91 -4994.61) rotate(-44.03) scale(1.02) skewX(1.95)" xlink:href="#radial-gradient"/>
    <radialGradient id="radial-gradient-87" cx="-901.84" cy="7399.14" fx="-901.84" fy="7399.14" r="11.25" gradientTransform="translate(-4282.91 -4994.61) rotate(-44.03) scale(1.02) skewX(1.95)" xlink:href="#radial-gradient"/>
    <radialGradient id="radial-gradient-88" cx="-845.23" cy="7210.94" fx="-845.23" fy="7210.94" r="17.17" gradientTransform="translate(-4282.91 -4994.61) rotate(-44.03) scale(1.02) skewX(1.95)" xlink:href="#radial-gradient"/>
    <radialGradient id="radial-gradient-89" cx="-732.03" cy="6810.61" fx="-732.03" fy="6810.61" r="13.77" gradientTransform="translate(-4282.91 -4994.61) rotate(-44.03) scale(1.02) skewX(1.95)" xlink:href="#radial-gradient"/>
    <radialGradient id="radial-gradient-90" cx="-558.34" cy="6642.3" fx="-558.34" fy="6642.3" r="16.94" gradientTransform="translate(-4282.91 -4994.61) rotate(-44.03) scale(1.02) skewX(1.95)" xlink:href="#radial-gradient"/>
    <radialGradient id="radial-gradient-91" cx="224.37" cy="8839.95" fx="224.37" fy="8839.95" r="15.15" gradientTransform="translate(-4282.91 -4994.61) rotate(-44.03) scale(1.02) skewX(1.95)" xlink:href="#radial-gradient"/>
    <radialGradient id="radial-gradient-92" cx="-81.45" cy="8824.38" fx="-81.45" fy="8824.38" r="19.71" gradientTransform="translate(-4282.91 -4994.61) rotate(-44.03) scale(1.02) skewX(1.95)" xlink:href="#radial-gradient"/>
    <radialGradient id="radial-gradient-93" cx="-133.13" cy="8480.25" fx="-133.13" fy="8480.25" r="19.68" gradientTransform="translate(-4282.91 -4994.61) rotate(-44.03) scale(1.02) skewX(1.95)" xlink:href="#radial-gradient"/>
    <radialGradient id="radial-gradient-94" cx="-384.01" cy="8503.57" fx="-384.01" fy="8503.57" r="13.99" gradientTransform="translate(-4282.91 -4994.61) rotate(-44.03) scale(1.02) skewX(1.95)" xlink:href="#radial-gradient"/>
    <radialGradient id="radial-gradient-95" cx="-560.24" cy="8107" fx="-560.24" fy="8107" r="13.13" gradientTransform="translate(-4282.91 -4994.61) rotate(-44.03) scale(1.02) skewX(1.95)" xlink:href="#radial-gradient"/>
    <radialGradient id="radial-gradient-96" cx="-474.54" cy="7802.09" fx="-474.54" fy="7802.09" r="11.33" gradientTransform="translate(-4282.91 -4994.61) rotate(-44.03) scale(1.02) skewX(1.95)" xlink:href="#radial-gradient"/>
    <radialGradient id="radial-gradient-97" cx="-700.74" cy="7719.06" fx="-700.74" fy="7719.06" r="11.63" gradientTransform="translate(-4282.91 -4994.61) rotate(-44.03) scale(1.02) skewX(1.95)" xlink:href="#radial-gradient"/>
    <radialGradient id="radial-gradient-98" cx="-759.99" cy="7438.33" fx="-759.99" fy="7438.33" r="15.18" gradientTransform="translate(-4282.91 -4994.61) rotate(-44.03) scale(1.02) skewX(1.95)" xlink:href="#radial-gradient"/>
    <radialGradient id="radial-gradient-99" cx="-573.72" cy="7081.3" fx="-573.72" fy="7081.3" r="15.64" gradientTransform="translate(-4282.91 -4994.61) rotate(-44.03) scale(1.02) skewX(1.95)" xlink:href="#radial-gradient"/>
    <radialGradient id="radial-gradient-100" cx="-452.16" cy="6649.42" fx="-452.16" fy="6649.42" r="15.41" gradientTransform="translate(-4282.91 -4994.61) rotate(-44.03) scale(1.02) skewX(1.95)" xlink:href="#radial-gradient"/>
    <radialGradient id="radial-gradient-101" cx="-313.26" cy="8381.55" fx="-313.26" fy="8381.55" r="31.38" gradientTransform="translate(-4282.91 -4994.61) rotate(-44.03) scale(1.02) skewX(1.95)" xlink:href="#radial-gradient"/>
    <radialGradient id="radial-gradient-102" cx="-520.82" cy="8343.87" fx="-520.82" fy="8343.87" r="29.72" gradientTransform="translate(-4282.91 -4994.61) rotate(-44.03) scale(1.02) skewX(1.95)" xlink:href="#radial-gradient"/>
    <radialGradient id="radial-gradient-103" cx="-713.98" cy="7924.27" fx="-713.98" fy="7924.27" r="20.87" gradientTransform="translate(-4282.91 -4994.61) rotate(-44.03) scale(1.02) skewX(1.95)" xlink:href="#radial-gradient"/>
    <radialGradient id="radial-gradient-104" cx="-564.92" cy="7515.11" fx="-564.92" fy="7515.11" r="36.11" gradientTransform="translate(-4282.91 -4994.61) rotate(-44.03) scale(1.02) skewX(1.95)" xlink:href="#radial-gradient"/>
    <radialGradient id="radial-gradient-105" cx="-591.14" cy="7234.16" fx="-591.14" fy="7234.16" r="30.7" gradientTransform="translate(-4282.91 -4994.61) rotate(-44.03) scale(1.02) skewX(1.95)" xlink:href="#radial-gradient"/>
    <radialGradient id="radial-gradient-106" cx="-1205.32" cy="7175.64" fx="-1205.32" fy="7175.64" r="67.47" gradientTransform="translate(-4282.91 -4994.61) rotate(-44.03) scale(1.02) skewX(1.95)" xlink:href="#radial-gradient"/>
    <radialGradient id="radial-gradient-107" cx="-387.98" cy="7120.36" fx="-387.98" fy="7120.36" r="57.45" gradientTransform="translate(-4282.91 -4994.61) rotate(-44.03) scale(1.02) skewX(1.95)" xlink:href="#radial-gradient"/>
    <radialGradient id="radial-gradient-108" cx="-701.24" cy="6706.08" fx="-701.24" fy="6706.08" r="43.17" gradientTransform="translate(-4282.91 -4994.61) rotate(-44.03) scale(1.02) skewX(1.95)" xlink:href="#radial-gradient"/>
    <radialGradient id="radial-gradient-109" cx="-609.19" cy="6652.03" fx="-609.19" fy="6652.03" r="34.18" gradientTransform="translate(-4282.91 -4994.61) rotate(-44.03) scale(1.02) skewX(1.95)" xlink:href="#radial-gradient"/>
    <radialGradient id="radial-gradient-110" cx="6068.48" cy="691.45" fx="6068.48" fy="691.45" r="120.62" gradientTransform="translate(-5801.51) scale(1.03 1)" gradientUnits="userSpaceOnUse">
      <stop offset=".15" stop-color="#00a78f"/>
      <stop offset=".2" stop-color="#008c78"/>
      <stop offset=".27" stop-color="#006758"/>
      <stop offset=".35" stop-color="#00473d"/>
      <stop offset=".44" stop-color="#002d27"/>
      <stop offset=".53" stop-color="#001916"/>
      <stop offset=".64" stop-color="#000b0a"/>
      <stop offset=".77" stop-color="#000303"/>
      <stop offset="1" stop-color="#010101"/>
    </radialGradient>
    <radialGradient id="radial-gradient-111" cx="693.63" cy="18884.82" fx="693.63" fy="18884.82" r="120.62" gradientTransform="translate(-694.73 -3585.96) scale(1.81 .23)" xlink:href="#radial-gradient-110"/>
    <radialGradient id="radial-gradient-112" cx="6334.52" cy="519.98" fx="6334.52" fy="519.98" r="120.62" xlink:href="#radial-gradient-110"/>
    <radialGradient id="radial-gradient-113" cx="6126.48" cy="316.98" fx="6126.48" fy="316.98" r="120.62" xlink:href="#radial-gradient-110"/>
    <radialGradient id="radial-gradient-114" cx="6329.47" cy="893.19" fx="6329.47" fy="893.19" r="86.16" xlink:href="#radial-gradient-110"/>
    <radialGradient id="radial-gradient-115" cx="6028.13" cy="896.97" fx="6028.13" fy="896.97" r="86.16" xlink:href="#radial-gradient-110"/>
    <radialGradient id="radial-gradient-116" cx="6518.6" cy="589.33" fx="6518.6" fy="589.33" r="86.16" xlink:href="#radial-gradient-110"/>
    <radialGradient id="radial-gradient-117" cx="-5804.02" cy="59969.57" fx="-5804.02" fy="59969.57" r="120.63" gradientTransform="translate(-5749.96 -14608.96) rotate(-58.84) scale(1.76 .23) skewX(.22)" xlink:href="#radial-gradient-110"/>
    <radialGradient id="radial-gradient-118" cx="-15367.01" cy="32284.19" fx="-15367.01" fy="32284.19" r="120.63" gradientTransform="translate(-7174.05 -20403.29) rotate(-89.95) scale(1.34 .23) skewX(-.29)" xlink:href="#radial-gradient-110"/>
    <radialGradient id="radial-gradient-119" cx="-17897.6" cy="31595.11" fx="-17897.6" fy="31595.11" r="120.63" gradientTransform="translate(-6833.85 -18630.06) rotate(-89.92) scale(1.09 .23) skewX(-.36)" xlink:href="#radial-gradient-110"/>
    <radialGradient id="radial-gradient-120" cx="-17501.95" cy="33430.71" fx="-17501.95" fy="33430.71" r="120.63" gradientTransform="translate(-15880.09 -12104.57) rotate(-120.75) scale(1.09 .23) skewX(-.36)" xlink:href="#radial-gradient-110"/>
    <radialGradient id="radial-gradient-121" cx="-4577.03" cy="57074.76" fx="-4577.03" fy="57074.76" r="120.63" gradientTransform="translate(-8320.64 -10357.3) rotate(-58.84) scale(1.04 .23) skewX(.38)" xlink:href="#radial-gradient-110"/>
    <radialGradient id="radial-gradient-122" cx="-5713.51" cy="56439.04" fx="-5713.51" fy="56439.04" r="120.63" gradientTransform="translate(-7232.06 -12156.39) rotate(-58.84) scale(1.35 .23) skewX(.29)" xlink:href="#radial-gradient-110"/>
    <radialGradient id="radial-gradient-123" cx="-5029.08" cy="56738.33" fx="-5029.08" fy="56738.33" r="120.62" gradientTransform="translate(5100.35 -12505.86) rotate(-.1) scale(1.02 .23) skewX(.39)" xlink:href="#radial-gradient-110"/>
    <radialGradient id="radial-gradient-124" cx="-5936.5" cy="58595.05" fx="-5936.5" fy="58595.05" r="120.63" gradientTransform="translate(-3204.68 -18818.26) rotate(-58.84) scale(2.48 .23) skewX(.16)" xlink:href="#radial-gradient-110"/>
    <radialGradient id="radial-gradient-125" cx="5872.21" cy="759.96" fx="5872.21" fy="759.96" r="120.62" xlink:href="#radial-gradient-110"/>
  </defs>
  <g class="cls-130">
    <g id="Layer_2" data-name="Layer 2">
      <g class="cls-129">
        <g>
          <rect class="cls-131" x="-31.82" y="15.74" width="2485.03" height="1281.01"/>
          <g class="cls-132">
            <g>
              <g class="cls-133">
                <path class="cls-115" d="m1236.63,218.98h-39.63c-.31,0-.6-.16-.76-.42l-19.81-33.17c-.16-.26-.16-.58,0-.84l19.81-33.17c.16-.26.44-.42.76-.42h39.63c.31,0,.6.16.76.42l19.81,33.17c.16.26.16.58,0,.84l-19.81,33.17c-.15.26-.44.42-.76.42Zm-39.12-66.34l-19.31,32.33,19.31,32.32h38.62l19.31-32.32-19.31-32.33h-38.62"/>
              </g>
              <g class="cls-133">
                <path class="cls-115" d="m1218.76,1079.64h-31.03c-.25,0-.47-.13-.59-.33l-15.52-25.98c-.12-.2-.12-.46,0-.66l15.52-25.98c.12-.2.35-.33.59-.33h31.03c.24,0,.47.13.59.33l15.52,25.98c.12.2.12.46,0,.66l-15.52,25.98c-.12.2-.35.33-.59.33Zm-30.64-1.32h30.24l15.12-25.31-15.12-25.32h-30.24l-15.12,25.32,15.12,25.31Z"/>
              </g>
              <g class="cls-133">
                <path class="cls-115" d="m876.76,677.64h-183.86c-1.45,0-2.79-.75-3.51-1.96l-91.93-153.9c-.72-1.21-.72-2.71,0-3.92l91.93-153.9c.72-1.21,2.06-1.96,3.51-1.96h183.86c1.45,0,2.79.75,3.51,1.96l91.93,153.9c.72,1.21.72,2.71,0,3.92l-91.93,153.9c-.72,1.21-2.06,1.96-3.51,1.96Zm-181.52-7.84h179.17l89.59-149.98-89.59-149.98h-179.17l-89.59,149.98,89.59,149.98Z"/>
              </g>
              <g class="cls-133">
                <path class="cls-115" d="m1097.07,1348.43h-82.21c-.65,0-1.25-.33-1.57-.88l-41.1-68.81c-.32-.54-.32-1.21,0-1.75l41.1-68.82c.32-.54.92-.88,1.57-.88h82.21c.65,0,1.25.33,1.57.88l41.1,68.82c.32.54.32,1.21,0,1.75l-41.1,68.81c-.32.54-.92.88-1.57.88Zm-81.16-3.51h80.12l40.06-67.06-40.06-67.06h-80.12l-40.06,67.06,40.06,67.06Z"/>
              </g>
              <g class="cls-133">
                <path class="cls-115" d="m64.97,744.69H29.86c-.28,0-.53-.14-.67-.38l-17.56-29.4c-.14-.23-.14-.52,0-.75l17.56-29.4c.14-.23.39-.38.67-.38h35.12c.28,0,.53.14.67.38l17.56,29.4c.14.23.14.52,0,.75l-17.56,29.4c-.14.23-.39.38-.67.38Zm-34.67-1.5h34.22l17.11-28.65-17.11-28.65H30.3l-17.11,28.65,17.11,28.65Z"/>
              </g>
              <g class="cls-133">
                <path class="cls-115" d="m661.79,1217.22h-230.52c-1.82,0-3.49-.94-4.4-2.46l-115.26-192.96c-.91-1.52-.91-3.39,0-4.91l115.26-192.96c.91-1.52,2.59-2.46,4.4-2.46h230.52c1.82,0,3.49.94,4.4,2.46l115.26,192.96c.91,1.52.91,3.39,0,4.91l-115.26,192.96c-.91,1.52-2.59,2.46-4.4,2.46Zm-227.59-9.83h224.65l112.33-188.05-112.33-188.05h-224.65l-112.33,188.05,112.33,188.05Z"/>
              </g>
              <g class="cls-133">
                <path class="cls-115" d="m786.79,234.96h-141.49c-1.11,0-2.14-.57-2.7-1.51l-70.74-118.44c-.56-.93-.56-2.08,0-3.01L642.6-6.43c.56-.93,1.59-1.51,2.7-1.51h141.49c1.11,0,2.14.57,2.7,1.51l70.74,118.43c.56.93.56,2.08,0,3.01l-70.74,118.44c-.56.93-1.59,1.51-2.7,1.51Zm-139.69-6.03h137.89l68.94-115.42L784.99-1.91h-137.89l-68.94,115.42,68.94,115.42Z"/>
              </g>
              <g class="cls-133">
                <path class="cls-115" d="m221.62,215.33H41.23c-1.42,0-2.73-.73-3.44-1.92L-52.41,62.42c-.71-1.19-.71-2.65,0-3.84L37.79-92.42c.71-1.19,2.02-1.92,3.44-1.92h180.38c1.42,0,2.73.73,3.44,1.92l90.19,150.99c.71,1.19.71,2.65,0,3.84l-90.19,150.99c-.71,1.19-2.02,1.92-3.44,1.92Zm-178.09-7.69h175.79l87.9-147.15-87.9-147.15H43.53L-44.37,60.49,43.53,207.64Z"/>
              </g>
              <g class="cls-133">
                <path class="cls-115" d="m291.68,1055.82h-140.36c-1.11,0-2.13-.57-2.68-1.49l-70.18-117.49c-.55-.93-.55-2.07,0-2.99l70.18-117.49c.55-.93,1.58-1.49,2.68-1.49h140.36c1.11,0,2.13.57,2.68,1.49l70.18,117.49c.55.93.55,2.07,0,2.99l-70.18,117.49c-.55.93-1.57,1.49-2.68,1.49Zm-138.58-5.98h136.79l68.39-114.5-68.39-114.5h-136.79l-68.39,114.5,68.39,114.5Z"/>
              </g>
              <g class="cls-133">
                <path class="cls-115" d="m550.23,875.05h-153.61c-1.21,0-2.33-.62-2.93-1.64l-76.8-128.58c-.6-1.01-.6-2.26,0-3.28l76.8-128.58c.61-1.01,1.72-1.64,2.93-1.64h153.61c1.21,0,2.33.62,2.93,1.64l76.8,128.58c.6,1.01.6,2.26,0,3.28l-76.8,128.58c-.61,1.01-1.72,1.64-2.93,1.64Zm-151.65-6.55h149.7l74.85-125.3-74.85-125.3h-149.7l-74.85,125.3,74.85,125.3Z"/>
              </g>
              <g class="ping2 cls-133">
                <path class="cls-115" d="m409.56,722.2h-222.93c-1.76,0-3.38-.9-4.26-2.37l-111.46-186.61c-.88-1.47-.88-3.28,0-4.75l111.46-186.6c.88-1.47,2.5-2.37,4.26-2.37h222.93c1.76,0,3.38.9,4.26,2.37l111.47,186.6c.88,1.47.88,3.28,0,4.75l-111.47,186.61c-.88,1.47-2.5,2.37-4.26,2.37Zm-220.09-9.5h217.25l108.63-181.86-108.63-181.85h-217.25l-108.63,181.85,108.63,181.86Z"/>
              </g>
              <g class="cls-133">
                <path class="cls-115" d="m95.67,1237.41H26.92c-.54,0-1.04-.28-1.31-.73l-34.37-57.54c-.27-.45-.27-1.01,0-1.46l34.37-57.54c.27-.45.77-.73,1.31-.73h68.74c.54,0,1.04.28,1.31.73l34.37,57.54c.27.45.27,1.01,0,1.46l-34.37,57.54c-.27.45-.77.73-1.31.73Zm-67.87-2.93h66.99l33.5-56.08-33.5-56.08H27.8l-33.5,56.08,33.5,56.08Z"/>
              </g>
              <g class="cls-133">
                <path class="cls-115" d="m227.62,489.34H16.04c-1.67,0-3.21-.86-4.04-2.25l-105.79-177.11c-.83-1.39-.83-3.11,0-4.51L12,128.37c.83-1.39,2.37-2.25,4.04-2.25h211.58c1.67,0,3.21.86,4.04,2.25l105.79,177.1c.83,1.39.83,3.11,0,4.51l-105.79,177.11c-.83,1.39-2.37,2.25-4.04,2.25Zm-208.89-9.02h206.2l103.1-172.6-103.1-172.6H18.73l-103.1,172.6L18.73,480.32Z"/>
              </g>
              <g class="cls-133">
                <path class="cls-115" d="m1000.79,1068.47h-199.86c-1.57,0-3.03-.81-3.82-2.13l-99.93-167.29c-.79-1.32-.79-2.94,0-4.26l99.93-167.29c.79-1.32,2.24-2.13,3.82-2.13h199.86c1.57,0,3.03.81,3.82,2.13l99.93,167.29c.79,1.32.79,2.94,0,4.26l-99.93,167.29c-.79,1.32-2.24,2.13-3.82,2.13Zm-197.31-8.52h194.77l97.38-163.03-97.38-163.03h-194.77l-97.38,163.03,97.38,163.03Z"/>
              </g>
              <g class="cls-133">
                <path class="ping cls-115" d="m1052.77,303.11h-128.21c-1.01,0-1.94-.52-2.45-1.37l-64.11-107.32c-.5-.84-.5-1.89,0-2.73l64.11-107.32c.5-.84,1.44-1.37,2.45-1.37h128.21c1.01,0,1.94.52,2.45,1.37l64.11,107.32c.5.84.5,1.89,0,2.73l-64.11,107.32c-.5.84-1.44,1.37-2.45,1.37Zm-126.58-5.46h124.94l62.47-104.59-62.47-104.59h-124.94l-62.47,104.59,62.47,104.59Z"/>
              </g>
              <g class="cls-133">
                <path class="ping cls-115" d="m581.78,475.38h-208.38c-1.64,0-3.16-.85-3.98-2.22l-104.19-174.42c-.82-1.37-.82-3.07,0-4.44l104.19-174.42c.82-1.37,2.34-2.22,3.98-2.22h208.38c1.64,0,3.16.85,3.98,2.22l104.19,174.42c.82,1.37.82,3.07,0,4.44l-104.19,174.42c-.82,1.37-2.34,2.22-3.98,2.22Zm-205.73-8.88h203.07l101.54-169.98-101.54-169.98h-203.07l-101.54,169.98,101.54,169.98Z"/>
              </g>
              <g class="cls-133">
                <path class="cls-115" d="m449.46,67.74h-31.46c-.25,0-.48-.13-.6-.34l-15.73-26.33c-.12-.21-.12-.46,0-.67l15.73-26.34c.12-.21.35-.34.6-.34h31.46c.25,0,.48.13.6.34l15.73,26.34c.12.21.12.46,0,.67l-15.73,26.33c-.12.21-.35.34-.6.34Zm-31.06-1.34h30.66l15.33-25.66-15.33-25.66h-30.66l-15.33,25.66,15.33,25.66Z"/>
              </g>
              <g class="cls-133">
                <path class="cls-115" d="m1218.74,707.75h-125.07c-.99,0-1.9-.51-2.39-1.33l-62.53-104.69c-.49-.83-.49-1.84,0-2.67l62.53-104.69c.49-.82,1.4-1.33,2.39-1.33h125.07c.99,0,1.9.51,2.39,1.33l62.53,104.69c.49.83.49,1.84,0,2.67l-62.53,104.69c-.49.82-1.4,1.33-2.39,1.33Zm-123.48-5.33h121.88l60.94-102.03-60.94-102.02h-121.88l-60.94,102.02,60.94,102.03Z"/>
              </g>
              <g class="cls-133">
                <path class="cls-115" d="m425.27,1392.17h-153.26c-1.21,0-2.32-.62-2.93-1.63l-76.63-128.29c-.6-1.01-.6-2.26,0-3.27l76.63-128.29c.6-1.01,1.72-1.63,2.93-1.63h153.26c1.21,0,2.32.62,2.93,1.63l76.63,128.29c.6,1.01.6,2.26,0,3.27l-76.63,128.29c-.6,1.01-1.72,1.63-2.93,1.63Zm-151.31-6.53h149.36l74.68-125.02-74.68-125.02h-149.36l-74.68,125.02,74.68,125.02Z"/>
              </g>
              <g class="cls-133">
                <path class="cls-115" d="m745.76,1276.52h-39.1c-.31,0-.59-.16-.75-.42l-19.55-32.73c-.15-.26-.15-.58,0-.83l19.55-32.73c.16-.26.44-.42.75-.42h39.1c.31,0,.59.16.75.42l19.55,32.73c.15.26.15.58,0,.83l-19.55,32.73c-.16.26-.44.42-.75.42Zm-38.6-1.67h38.11l19.06-31.9-19.06-31.9h-38.11l-19.05,31.9,19.05,31.9Z"/>
              </g>
            </g>
            <g>
              <path class="cls-29" d="m658.19,1058.25h-34.34c-.62,0-1.19-.32-1.49-.83l-17.17-28.74c-.31-.52-.31-1.15,0-1.67l17.17-28.74c.31-.52.88-.83,1.49-.83h34.34c.62,0,1.19.32,1.49.83l17.17,28.74c.31.52.31,1.15,0,1.67l-17.17,28.74c-.31.52-.88.83-1.49.83Zm-33.34-3.34h32.35l16.17-27.07-16.17-27.07h-32.35l-16.17,27.07,16.17,27.07Z"/>
              <path class="cls-29" d="m839.5,664.36h-88.76c-.62,0-1.19-.32-1.49-.83l-44.38-74.3c-.31-.52-.31-1.15,0-1.67l44.38-74.3c.31-.52.88-.83,1.49-.83h88.76c.62,0,1.19.32,1.49.83l44.38,74.3c.31.52.31,1.15,0,1.67l-44.38,74.3c-.31.52-.88.83-1.49.83Zm-87.77-3.34h86.77l43.38-72.63-43.38-72.63h-86.77l-43.38,72.63,43.38,72.63Z"/>
              <path class="cls-29" d="m473.65,1070.93h-107.35c-.62,0-1.19-.32-1.49-.83l-53.68-89.86c-.31-.52-.31-1.15,0-1.67l53.68-89.86c.31-.52.88-.83,1.49-.83h107.35c.62,0,1.19.32,1.49.83l53.68,89.86c.31.52.31,1.15,0,1.67l-53.68,89.86c-.31.52-.88.83-1.49.83Zm-106.36-3.34h105.36l52.68-88.19-52.68-88.19h-105.36l-52.68,88.19,52.68,88.19Z"/>
              <path class="cls-29" d="m639.36,962.49h-160.57c-.62,0-1.19-.32-1.49-.83l-80.29-134.41c-.31-.52-.31-1.15,0-1.67l80.29-134.41c.31-.52.88-.83,1.49-.83h160.57c.62,0,1.19.32,1.49.83l80.29,134.41c.31.52.31,1.15,0,1.67l-80.29,134.41c-.31.52-.88.83-1.49.83Zm-159.58-3.34h158.58l79.29-132.74-79.29-132.74h-158.58l-79.29,132.74,79.29,132.74Z"/>
              <path class="cls-29" d="m1001.77,593.99h-206.9c-.62,0-1.19-.32-1.49-.83l-103.45-173.19c-.31-.52-.31-1.15,0-1.67l103.45-173.19c.31-.52.88-.83,1.49-.83h206.9c.62,0,1.19.32,1.49.83l103.45,173.19c.31.52.31,1.15,0,1.67l-103.45,173.19c-.31.52-.88.83-1.49.83Zm-205.91-3.34h204.91l102.46-171.52-102.46-171.52h-204.91l-102.45,171.52,102.45,171.52Z"/>
              <path class="cls-29" d="m267.17,598.2h-33.57c-.62,0-1.19-.32-1.49-.83l-16.79-28.1c-.31-.52-.31-1.15,0-1.67l16.79-28.1c.31-.52.88-.83,1.49-.83h33.57c.62,0,1.19.32,1.49.83l16.79,28.1c.31.52.31,1.15,0,1.67l-16.79,28.1c-.31.52-.88.83-1.49.83Zm-32.58-3.34h31.58l15.79-26.43-15.79-26.43h-31.58l-15.79,26.43,15.79,26.43Z"/>
              <path class="cls-29" d="m962.18,1143.89h-181.39c-.62,0-1.19-.32-1.49-.83l-90.69-151.83c-.31-.52-.31-1.15,0-1.67l90.69-151.83c.31-.52.88-.83,1.49-.83h181.39c.62,0,1.19.32,1.49.83l90.69,151.83c.31.52.31,1.15,0,1.67l-90.69,151.83c-.31.52-.88.83-1.49.83Zm-180.39-3.34h179.4l89.7-150.16-89.7-150.16h-179.4l-89.7,150.16,89.7,150.16Z"/>
              <path class="cls-29" d="m890.28,814.17h-57.12c-.62,0-1.19-.32-1.49-.83l-28.56-47.81c-.31-.52-.31-1.15,0-1.67l28.56-47.81c.31-.52.88-.83,1.49-.83h57.12c.62,0,1.19.32,1.49.83l28.56,47.81c.31.52.31,1.15,0,1.67l-28.56,47.81c-.31.52-.88.83-1.49.83Zm-56.12-3.34h55.13l27.56-46.15-27.56-46.15h-55.13l-27.56,46.15,27.56,46.15Z"/>
              <path class="cls-29" d="m299.3,810.52h-82.51c-.62,0-1.19-.32-1.49-.83l-41.25-69.06c-.31-.52-.31-1.15,0-1.67l41.25-69.07c.31-.52.88-.83,1.49-.83h82.51c.62,0,1.19.32,1.49.83l41.25,69.07c.31.52.31,1.15,0,1.67l-41.25,69.06c-.31.52-.88.83-1.49.83Zm-81.51-3.34h80.52l40.26-67.4-40.26-67.4h-80.52l-40.26,67.4,40.26,67.4Z"/>
              <path class="cls-29" d="m321.42,1179.51h-171.66c-.62,0-1.19-.32-1.49-.83l-85.83-143.69c-.31-.52-.31-1.15,0-1.67l85.83-143.69c.31-.52.88-.83,1.49-.83h171.66c.62,0,1.19.32,1.49.83l85.83,143.69c.31.52.31,1.15,0,1.67l-85.83,143.69c-.31.52-.88.83-1.49.83Zm-170.66-3.34h169.67l84.83-142.02-84.83-142.02h-169.67l-84.83,142.02,84.83,142.02Z"/>
              <path class="cls-29" d="m673.41,798.72h-202.88c-.62,0-1.19-.32-1.49-.83l-101.44-169.82c-.31-.52-.31-1.15,0-1.67l101.44-169.82c.31-.52.88-.83,1.49-.83h202.88c.62,0,1.19.32,1.49.83l101.44,169.82c.31.52.31,1.15,0,1.67l-101.44,169.82c-.31.52-.88.83-1.49.83Zm-201.88-3.34h200.88l100.44-168.15-100.44-168.15h-200.88l-100.44,168.15,100.44,168.15Z"/>
              <path class="cls-29" d="m439.7,419.93h-25.7c-.62,0-1.19-.32-1.49-.83l-12.85-21.51c-.31-.52-.31-1.15,0-1.67l12.85-21.51c.31-.52.88-.83,1.49-.83h25.7c.62,0,1.19.32,1.49.83l12.85,21.51c.31.52.31,1.15,0,1.67l-12.85,21.51c-.31.52-.88.83-1.49.83Zm-24.7-3.34h23.71l11.85-19.84-11.85-19.84h-23.71l-11.85,19.84,11.85,19.84Z"/>
            </g>
            <g>
              <path class="cls-55" d="m1280.54,1284.69c0,13.18-11.08,23.83-24.69,23.83s-24.66-10.65-24.66-23.83,11.05-23.86,24.66-23.86,24.69,10.69,24.69,23.86Z"/>
              <path class="cls-83" d="m948.63,1070.01c0,29.68-24.92,53.75-55.64,53.75s-55.61-24.06-55.61-53.75,24.9-53.75,55.61-53.75,55.64,24.07,55.64,53.75Z"/>
              <path class="cls-40" d="m422.3,1162.46c0,27.65-23.2,50.05-51.79,50.05s-51.79-22.4-51.79-50.05,23.2-50.04,51.79-50.04,51.79,22.39,51.79,50.04Z"/>
              <path class="cls-53" d="m601.8,676.41c0,26.64-22.37,48.23-49.95,48.23s-49.94-21.59-49.94-48.23,22.38-48.28,49.94-48.28,49.95,21.6,49.95,48.28Z"/>
              <path class="cls-44" d="m342.16,509.07c0,26.64-22.37,48.23-49.95,48.23s-49.94-21.59-49.94-48.23,22.38-48.28,49.94-48.28,49.95,21.6,49.95,48.28Z"/>
              <path class="cls-38" d="m228.84,676.37c0,42.26-35.48,76.52-79.19,76.52s-79.15-34.26-79.15-76.52,35.44-76.51,79.15-76.51,79.19,34.26,79.19,76.51Z"/>
              <path class="cls-36" d="m479.96,438.28c0,30.47-25.55,55.13-57.02,55.13s-57.03-24.67-57.03-55.13,25.53-55.11,57.03-55.11,57.02,24.67,57.02,55.11Z"/>
              <path class="cls-99" d="m327.48,218.9c0,43.22-36.22,78.23-80.9,78.23s-80.91-35-80.91-78.23,36.22-78.2,80.91-78.2,80.9,35.04,80.9,78.2Z"/>
              <path class="cls-75" d="m2022.78,1164.69c0,7.59-6.36,13.71-14.17,13.71s-14.16-6.12-14.16-13.71,6.35-13.69,14.16-13.69,14.17,6.14,14.17,13.69Z"/>
              <path class="cls-84" d="m1271.89,1293.88c0,8.4-7.05,15.19-15.73,15.19s-15.73-6.8-15.73-15.19,7.04-15.2,15.73-15.2,15.73,6.76,15.73,15.2Z"/>
              <path class="cls-11" d="m758.74,1291.71c0,10.45-8.77,18.95-19.61,18.95s-19.63-8.5-19.63-18.95,8.78-18.98,19.63-18.98,19.61,8.46,19.61,18.98Z"/>
              <path class="cls-120" d="m301.59,976.57c0,7.25-6.03,13.04-13.47,13.04s-13.5-5.79-13.5-13.04,6.05-13.03,13.5-13.03,13.47,5.87,13.47,13.03Z"/>
              <path class="cls-128" d="m545.92,694.59c0,7.04-5.86,12.74-13.13,12.74s-13.16-5.7-13.16-12.74,5.9-12.66,13.16-12.66,13.13,5.65,13.13,12.66Z"/>
              <path class="cls-73" d="m72.83,386.52c0,6.66-5.61,12.11-12.53,12.11s-12.56-5.45-12.56-12.11,5.61-12.14,12.56-12.14,12.53,5.41,12.53,12.14Z"/>
              <path class="cls-119" d="m375.87,1294.57c0,12.26-10.31,22.22-22.99,22.22s-23-9.96-23-22.22,10.31-22.24,23-22.24,22.99,9.94,22.99,22.24Z"/>
              <path class="cls-118" d="m407.86,817.46c0,9.61-8.07,17.41-18.01,17.41s-17.99-7.8-17.99-17.41,8.05-17.38,17.99-17.38,18.01,7.79,18.01,17.38Z"/>
              <path class="cls-95" d="m88.07,389.02c0,6.78-5.67,12.24-12.72,12.24s-12.72-5.46-12.72-12.24,5.68-12.32,12.72-12.32,12.72,5.49,12.72,12.32Z"/>
              <path class="cls-43" d="m268.51,709.41c0,11.95-10.09,21.72-22.48,21.72s-22.44-9.77-22.44-21.72,10.05-21.74,22.44-21.74,22.48,9.7,22.48,21.74Z"/>
              <path class="cls-80" d="m512.02,1111.99c0,9.53-7.99,17.25-17.85,17.25s-17.82-7.72-17.82-17.25,7.99-17.25,17.82-17.25,17.85,7.73,17.85,17.25Z"/>
              <path class="cls-3" d="m164.57,397.41c0,12.66-10.63,22.92-23.72,22.92s-23.74-10.26-23.74-22.92,10.64-22.92,23.74-22.92,23.72,10.27,23.72,22.92Z"/>
              <path class="cls-103" d="m354.27,877.53c0,10.94-9.17,19.77-20.47,19.77s-20.46-8.83-20.46-19.77,9.16-19.79,20.46-19.79,20.47,8.86,20.47,19.79Z"/>
              <path class="cls-67" d="m12.92,612.55c0,9.9-8.34,17.99-18.62,17.99s-18.62-8.09-18.62-17.99,8.35-18.01,18.62-18.01,18.62,8.06,18.62,18.01Z"/>
              <path class="cls-74" d="m2220.08,1291.77c0,10.26-8.58,18.53-19.17,18.53s-19.15-8.27-19.15-18.53,8.58-18.49,19.15-18.49,19.17,8.27,19.17,18.49Z"/>
              <path class="cls-102" d="m764.04,1175.97c0,13.39-11.23,24.18-25.04,24.18s-25.05-10.79-25.05-24.18,11.22-24.19,25.05-24.19,25.04,10.78,25.04,24.19Z"/>
              <path class="cls-24" d="m437.67,1204.61c0,9.49-7.92,17.21-17.78,17.21s-17.77-7.72-17.77-17.21,7.96-17.17,17.77-17.17,17.78,7.7,17.78,17.17Z"/>
              <path class="cls-90" d="m122,1095.94c0,7.31-6.13,13.18-13.62,13.18s-13.66-5.88-13.66-13.18,6.12-13.14,13.66-13.14,13.62,5.9,13.62,13.14Z"/>
              <path class="cls-12" d="m212.47,717.08c0,8.92-7.46,16.17-16.69,16.17s-16.7-7.26-16.7-16.17,7.47-16.13,16.7-16.13,16.69,7.22,16.69,16.13Z"/>
              <path class="cls-20" d="m319.16,342.31c0,7.69-6.42,13.92-14.43,13.92s-14.38-6.23-14.38-13.92,6.44-13.92,14.38-13.92,14.43,6.23,14.43,13.92Z"/>
              <path class="cls-65" d="m31.83,240.18c0,7.94-6.61,14.35-14.8,14.35s-14.77-6.41-14.77-14.35,6.58-14.27,14.77-14.27,14.8,6.41,14.8,14.27Z"/>
              <path class="cls-68" d="m549.82,1054.62c0,21.32-17.89,38.59-39.9,38.59s-39.94-17.27-39.94-38.59,17.88-38.53,39.94-38.53,39.9,17.24,39.9,38.53Z"/>
              <path class="cls-49" d="m283.69,1008.32c0,20.17-16.94,36.5-37.78,36.5s-37.79-16.33-37.79-36.5,16.91-36.57,37.79-36.57,37.78,16.38,37.78,36.57Z"/>
              <path class="cls-42" d="m26.75,492.5c0,14.11-11.85,25.64-26.54,25.64s-26.51-11.52-26.51-25.64,11.88-25.69,26.51-25.69,26.54,11.52,26.54,25.69Z"/>
              <path class="cls-50" d="m145.43-21.76c-.98,3.61-1.55,7.37-1.55,11.28,0,24.49,20.55,44.39,45.95,44.39s45.93-19.9,45.93-44.39c0-3.9-.57-7.67-1.55-11.28h-88.77Z"/>
              <path class="cls-63" d="m2405.46,946.83c15.77,15.26,15.79,40.01,0,55.29-15.84,15.27-41.46,15.27-57.25,0-15.77-15.25-15.8-40.01.02-55.29,15.8-15.26,41.43-15.26,57.23,0Z"/>
              <path class="cls-58" d="m2199.81,857.37c7.86,7.6,7.83,19.86,0,27.43-7.85,7.59-20.52,7.59-28.36,0-7.83-7.55-7.85-19.83-.02-27.43,7.83-7.58,20.55-7.58,28.38,0Z"/>
              <path class="cls-104" d="m2170.08,1125.69c12.07,11.67,12.07,30.6-.02,42.25-12.05,11.66-31.62,11.66-43.69,0-12.07-11.66-12.07-30.58,0-42.25,12.07-11.65,31.64-11.65,43.71,0Z"/>
              <path class="cls-78" d="m1681.56,986.47c17.69,17.11,17.66,44.78,0,61.87-17.68,17.07-46.31,17.07-63.97,0-17.65-17.06-17.68-44.74,0-61.83,17.66-17.06,46.33-17.06,63.97-.04Z"/>
              <path class="cls-56" d="m1593.09,1332.38h21.12c7.04-1.76,13.7-5.26,19.21-10.6,16.45-15.89,16.45-41.67,0-57.56-16.46-15.93-43.12-15.91-59.55,0-16.47,15.89-16.47,41.66,0,57.56,5.51,5.34,12.18,8.84,19.22,10.6Z"/>
              <path class="cls-76" d="m1447.44,884.83c15.84,15.36,15.84,40.2-.01,55.5-15.88,15.36-41.58,15.36-57.45.05-15.87-15.35-15.87-40.21,0-55.55,15.87-15.33,41.57-15.35,57.46,0Z"/>
              <path class="cls-22" d="m1232.87,1092.16c25.15,24.32,25.15,63.72.03,88.06-25.16,24.29-65.93,24.29-91.1-.03-25.13-24.32-25.13-63.72.03-88.04,25.11-24.26,65.91-24.28,91.04,0Z"/>
              <path class="cls-109" d="m1271.4,803.24c18.15,17.55,18.11,45.93,0,63.44-18.12,17.53-47.47,17.53-65.62-.02-18.08-17.48-18.08-45.87.03-63.4,18.11-17.49,47.49-17.49,65.59-.02Z"/>
              <path class="cls-9" d="m1017.38,774.19c25.72,24.85,25.71,65.12.02,89.97-25.72,24.84-67.37,24.84-93.08,0-25.69-24.85-25.7-65.11,0-89.97,25.71-24.84,67.38-24.84,93.06,0Z"/>
              <path class="cls-59" d="m908.69,522.12c17.24,16.67,17.23,43.7,0,60.37-17.27,16.66-45.23,16.69-62.47,0-17.26-16.66-17.24-43.7,0-60.37,17.24-16.66,45.19-16.71,62.47,0Z"/>
              <path class="cls-86" d="m854.91,330.31c14.75,14.25,14.75,37.32,0,51.56-14.73,14.25-38.62,14.25-53.35,0-14.75-14.24-14.75-37.35-.04-51.58,14.76-14.25,38.63-14.24,53.4.02Z"/>
              <path class="cls-4" d="m577.71,245.34c11.6,11.21,11.6,29.43,0,40.64-11.6,11.21-30.44,11.19-42.03,0-11.59-11.24-11.63-29.43-.02-40.64,11.61-11.21,30.45-11.21,42.05,0Z"/>
              <path class="cls-127" d="m143.6-21.76c-9.5,10.48-9.19,26.39,1.14,36.37,10.76,10.41,28.24,10.39,39,0,10.35-10.02,10.63-25.9,1.11-36.37h-41.25Z"/>
              <path class="cls-123" d="m2058.31,1022.21c5.02,4.82,5.02,12.64,0,17.48-4.98,4.82-13.08,4.84-18.07,0-5.02-4.84-5.02-12.66-.03-17.48s13.11-4.85,18.1,0Z"/>
              <path class="cls-15" d="m1903.86,1151.5c6.21,6,6.24,15.77.03,21.8-6.26,6.03-16.38,6.03-22.6,0-6.24-6.03-6.23-15.76.02-21.81,6.22-6.03,16.31-6.06,22.55,0Z"/>
              <path class="cls-27" d="m1453.4,1224.42c4.3,4.11,4.28,10.85,0,14.99-4.29,4.14-11.23,4.14-15.52,0-4.29-4.14-4.29-10.87,0-14.99,4.29-4.16,11.24-4.16,15.52,0Z"/>
              <path class="cls-88" d="m1426.11,926.37c4.19,4.05,4.21,10.56.03,14.59-4.2,4.06-10.97,4.06-15.17,0-4.16-4.03-4.15-10.54.03-14.57,4.2-4.04,10.92-4.09,15.11-.02Z"/>
              <path class="cls-28" d="m970.64,1012.18c3.97,3.84,3.99,10.06,0,13.94-3.99,3.84-10.46,3.84-14.44,0-4-3.85-4-10.1,0-13.99,3.99-3.81,10.45-3.81,14.44.05Z"/>
              <path class="cls-30" d="m649.42,939.94c6.15,5.95,6.17,15.63,0,21.6-6.18,5.97-16.19,5.95-22.34,0-6.18-5.97-6.2-15.65-.02-21.62,6.18-5.97,16.19-5.97,22.36.02Z"/>
              <path class="cls-48" d="m799.25,477.69c3.4,3.3,3.4,8.61,0,11.89-3.42,3.3-8.93,3.3-12.31.03-3.42-3.3-3.45-8.62-.03-11.92,3.41-3.3,8.93-3.3,12.34,0Z"/>
              <path class="cls-64" d="m470.9,188.97c2.93,2.84,2.93,7.4-.02,10.24-2.93,2.83-7.66,2.83-10.61,0-2.93-2.84-2.93-7.45,0-10.27,2.95-2.83,7.68-2.82,10.63.03Z"/>
              <path class="cls-125" d="m627.35,30.39c4.32,4.15,4.32,10.91,0,15.08-4.3,4.16-11.29,4.18-15.62,0-4.31-4.19-4.31-10.93,0-15.08,4.32-4.15,11.3-4.15,15.62,0Z"/>
              <path class="cls-16" d="m2237.81,990.78c4.68,4.54,4.68,11.88,0,16.41-4.71,4.55-12.34,4.55-17.04.03-4.69-4.54-4.69-11.9,0-16.48,4.69-4.52,12.35-4.5,17.04.04Z"/>
              <path class="cls-54" d="m2190.65,1241.15c4.33,4.19,4.33,10.98,0,15.16-4.35,4.21-11.37,4.19-15.68.03-4.34-4.23-4.34-11-.02-15.2,4.33-4.17,11.36-4.19,15.7,0Z"/>
              <path class="cls-77" d="m1419.81,1073.8c5.72,5.5,5.72,14.5,0,20.01-5.73,5.54-14.98,5.52-20.69,0-5.72-5.52-5.75-14.47-.02-20,5.7-5.52,15.01-5.52,20.71,0Z"/>
              <path class="cls-94" d="m980.91,1005.13c4.03,3.91,4.03,10.21-.06,14.12-4.03,3.93-10.54,3.93-14.57.05-4.08-3.95-4.08-10.26-.04-14.17,4.06-3.94,10.61-3.94,14.67,0Z"/>
              <path class="cls-105" d="m641.43,774.86c7.47,7.22,7.44,18.88-.03,26.11-7.44,7.19-19.5,7.19-26.96-.02-7.45-7.2-7.45-18.87,0-26.08,7.44-7.2,19.52-7.2,26.99,0Z"/>
              <path class="cls-46" d="m445.52,725.24c3.66,3.56,3.63,9.26,0,12.75-3.66,3.55-9.56,3.56-13.23.05-3.63-3.53-3.63-9.27,0-12.79,3.64-3.53,9.56-3.5,13.23,0Z"/>
              <path class="cls-61" d="m673.09,257.55c4.53,4.38,4.54,11.48.01,15.84-4.53,4.39-11.86,4.37-16.39,0-4.54-4.4-4.54-11.48,0-15.84,4.53-4.38,11.84-4.37,16.38,0Z"/>
              <path class="cls-111" d="m416.34,56.59c3.88,3.75,3.88,9.78,0,13.54-3.87,3.73-10.1,3.73-13.98-.03-3.86-3.73-3.88-9.79,0-13.51,3.86-3.75,10.11-3.73,13.98,0Z"/>
              <path class="cls-51" d="m2374.76,1184.47c6.9,6.66,6.91,17.5-.01,24.18-6.92,6.68-18.14,6.68-25.03.03-6.92-6.7-6.95-17.55-.02-24.25,6.91-6.68,18.14-6.65,25.06.05Z"/>
              <path class="cls-10" d="m2204.8,1289.55c6.04,5.82,6.04,15.29,0,21.12-6.04,5.84-15.82,5.84-21.88,0-6.05-5.85-6.05-15.3,0-21.12,6.04-5.86,15.84-5.86,21.88,0Z"/>
              <path class="cls-7" d="m2046.58,1175.75c7.69,7.44,7.69,19.48-.03,26.94-7.69,7.44-20.16,7.46-27.86,0-7.7-7.45-7.7-19.5,0-26.94,7.72-7.47,20.19-7.45,27.89,0Z"/>
              <path class="cls-6" d="m1925.15,1236.49c7.68,7.41,7.68,19.41.02,26.82-7.66,7.42-20.07,7.38-27.75-.02-7.67-7.42-7.67-19.39,0-26.8,7.66-7.41,20.07-7.41,27.73,0Z"/>
              <path class="cls-21" d="m1275.35,1089.11c7.13,6.89,7.13,18.09-.01,24.99-7.13,6.89-18.71,6.87-25.83-.02-7.17-6.9-7.14-18.08-.03-24.97,7.15-6.89,18.71-6.94,25.87,0Z"/>
              <path class="cls-52" d="m771.21,1160.23c4.41,4.27,4.38,11.17.03,15.37-4.41,4.25-11.55,4.27-15.94,0-4.39-4.21-4.39-11.1.01-15.36,4.37-4.25,11.51-4.25,15.9-.02Z"/>
              <path class="cls-106" d="m800.99,712.37c2.8,2.73,2.8,7.13-.03,9.85-2.79,2.69-7.35,2.73-10.14,0-2.81-2.72-2.81-7.12,0-9.83,2.82-2.71,7.38-2.73,10.17-.02Z"/>
              <path class="cls-70" d="m255.76,813.32c3.55,3.39,3.55,8.94,0,12.35-3.51,3.42-9.25,3.42-12.79,0-3.53-3.43-3.52-8.96.01-12.35,3.53-3.41,9.24-3.44,12.78,0Z"/>
              <path class="cls-8" d="m150.83,393.79c7,6.77,7,17.72,0,24.5-6.99,6.78-18.32,6.78-25.32,0-7-6.78-7-17.73,0-24.5,7-6.76,18.33-6.76,25.32,0Z"/>
              <path class="cls-87" d="m146.67,308.44c5.35,5.18,5.37,13.59,0,18.76-5.37,5.16-14.05,5.16-19.4,0-5.37-5.2-5.34-13.58,0-18.76,5.38-5.18,14.03-5.18,19.39,0Z"/>
              <path class="cls-81" d="m2378.67,1198.96c7.44,7.19,7.44,18.93,0,26.15-7.48,7.21-19.62,7.21-27.07,0-7.49-7.22-7.49-18.96-.02-26.15,7.47-7.23,19.61-7.23,27.09,0Z"/>
              <path class="cls-108" d="m1655,1185.27c5.64,5.52,5.67,14.39,0,19.85-5.68,5.51-14.86,5.46-20.54,0-5.64-5.49-5.64-14.33,0-19.82,5.68-5.47,14.86-5.47,20.54-.03Z"/>
              <path class="cls-2" d="m1029.88,967.42c7.56,7.31,7.56,19.11.03,26.4-7.56,7.27-19.76,7.27-27.3,0-7.53-7.29-7.53-19.09.02-26.4,7.52-7.27,19.72-7.27,27.25,0Z"/>
              <path class="cls-25" d="m707.57,1063.33c5.57,5.41,5.57,14.1,0,19.49-5.54,5.38-14.57,5.38-20.15,0-5.54-5.39-5.54-14.08.02-19.46,5.56-5.38,14.59-5.39,20.13-.03Z"/>
              <path class="cls-91" d="m885.04,617.1c7.56,7.3,7.56,19.15,0,26.44-7.56,7.32-19.81,7.32-27.35,0-7.58-7.29-7.58-19.14-.03-26.47,7.56-7.3,19.82-7.3,27.39.04Z"/>
              <path class="cls-1" d="m492.37,611.51c4.87,4.67,4.87,12.3.02,16.98-4.87,4.67-12.72,4.67-17.57,0-4.87-4.69-4.84-12.31.01-16.98,4.84-4.66,12.69-4.66,17.54,0Z"/>
              <path class="cls-112" d="m463.02,219.3c6.96,6.72,6.96,17.62,0,24.37-6.96,6.73-18.21,6.73-25.2,0-6.98-6.75-6.98-17.67-.02-24.37,6.97-6.73,18.25-6.73,25.22,0Z"/>
              <path class="cls-69" d="m546.21,20.46c7.54,7.29,7.54,19.11,0,26.42-7.54,7.27-19.76,7.27-27.3,0-7.54-7.31-7.54-19.11,0-26.39,7.54-7.32,19.79-7.32,27.3-.03Z"/>
              <path class="cls-23" d="m2308.83,896.84c7.79,7.52,7.76,19.76,0,27.27-7.81,7.49-20.42,7.54-28.19,0-7.8-7.51-7.8-19.75,0-27.27,7.75-7.53,20.41-7.53,28.19,0Z"/>
              <path class="cls-89" d="m2324.34,1275.25c6.94,6.7,6.94,17.61,0,24.31-6.95,6.72-18.22,6.72-25.15,0-6.96-6.72-6.96-17.59,0-24.29,6.92-6.7,18.2-6.74,25.15-.02Z"/>
              <path class="cls-41" d="m1424.72,1138.12c6.53,6.29,6.53,16.49,0,22.77-6.51,6.3-17.04,6.3-23.53,0-6.51-6.29-6.51-16.48,0-22.75,6.5-6.3,17.05-6.32,23.53-.03Z"/>
              <path class="cls-62" d="m1070.71,1175.5c5.88,5.7,5.9,14.97,0,20.7-5.93,5.71-15.54,5.71-21.42,0-5.93-5.74-5.88-15.01,0-20.7,5.91-5.71,15.49-5.73,21.42,0Z"/>
              <path class="cls-113" d="m524.94,1109.02c3.86,3.76,3.86,9.84-.01,13.59-3.91,3.78-10.2,3.76-14.07.03-3.88-3.73-3.88-9.83,0-13.6,3.9-3.76,10.2-3.76,14.08-.02Z"/>
              <path class="cls-39" d="m478.57,867.06c4.54,4.38,4.52,11.54,0,15.91-4.53,4.39-11.91,4.36-16.45,0-4.55-4.4-4.55-11.51,0-15.91,4.54-4.38,11.92-4.39,16.45,0Z"/>
              <path class="cls-26" d="m386.66,689.78c6.94,6.67,6.91,17.57-.03,24.27-6.92,6.73-18.17,6.73-25.1,0-6.95-6.7-6.95-17.57,0-24.27,6.91-6.71,18.18-6.74,25.14,0Z"/>
              <path class="cls-79" d="m174.09,329.05c5.58,5.39,5.58,14.09,0,19.47-5.58,5.39-14.61,5.39-20.16,0-5.57-5.38-5.57-14.08,0-19.47,5.55-5.36,14.58-5.36,20.15,0Z"/>
              <path class="cls-72" d="m180.34,84.99c6.86,6.61,6.87,17.32.02,23.95-6.87,6.63-17.95,6.61-24.79,0-6.86-6.63-6.86-17.34,0-23.98,6.84-6.6,17.92-6.6,24.77.03Z"/>
              <path class="cls-14" d="m2359.39,1086.75c6.1,5.92,6.13,15.53.03,21.42-6.15,5.93-16.06,5.91-22.2,0-6.1-5.92-6.12-15.5,0-21.42,6.14-5.92,16.05-5.92,22.17,0Z"/>
              <path class="cls-5" d="m2127.59,1288.75c7.96,7.73,7.96,20.2.01,27.91-7.96,7.69-20.85,7.66-28.83-.03-7.97-7.69-7.99-20.16,0-27.88,7.95-7.69,20.87-7.69,28.82,0Z"/>
              <path class="cls-101" d="m1838.03,1081.99c7.98,7.7,7.96,20.13-.01,27.83-7.95,7.7-20.83,7.72-28.78.02-7.97-7.72-7.97-20.15,0-27.85,7.94-7.7,20.84-7.7,28.79,0Z"/>
              <path class="cls-124" d="m1667.36,1279.89c5.63,5.46,5.68,14.35.02,19.81-5.66,5.44-14.82,5.42-20.47-.02-5.64-5.47-5.64-14.33,0-19.79,5.65-5.44,14.78-5.44,20.44,0Z"/>
              <path class="cls-18" d="m1247.66,1124.68c5.36,5.14,5.38,13.47.06,18.6-5.3,5.12-13.91,5.1-19.26-.04-5.28-5.09-5.28-13.43.03-18.55,5.32-5.12,13.88-5.12,19.17-.02Z"/>
              <path class="cls-35" d="m1086.03,849.79c4.58,4.43,4.58,11.58-.02,16.03-4.55,4.42-11.98,4.42-16.56-.03-4.58-4.4-4.58-11.58-.01-16.01,4.59-4.44,12.02-4.42,16.59,0Z"/>
              <path class="cls-71" d="m859.99,950.79c4.69,4.58,4.7,11.94,0,16.48-4.69,4.54-12.3,4.52-17-.02-4.7-4.55-4.72-11.88,0-16.44,4.68-4.56,12.3-4.54,17-.02Z"/>
              <path class="cls-122" d="m613.89,791.69c6.13,5.92,6.15,15.53.03,21.45-6.17,5.94-16.09,5.92-22.23,0-6.15-5.94-6.15-15.54,0-21.48,6.15-5.93,16.05-5.93,22.21.03Z"/>
              <path class="cls-32" d="m489.29,407.19c6.32,6.12,6.32,16.02,0,22.13-6.32,6.09-16.57,6.09-22.87-.03-6.33-6.08-6.35-15.99,0-22.11,6.31-6.1,16.58-6.1,22.88,0Z"/>
              <path class="cls-37" d="m262.11,16.02c6.23,6.01,6.26,15.78,0,21.8-6.21,6.04-16.35,6.03-22.55,0-6.26-6.03-6.23-15.78,0-21.8,6.22-6.06,16.31-6.06,22.55,0Z"/>
              <path class="cls-107" d="m1642.58,1131.29c12.71,12.28,12.71,32.14.03,44.38-12.68,12.28-33.23,12.28-45.93,0-12.67-12.26-12.65-32.1.01-44.38,12.67-12.23,33.22-12.24,45.89,0Z"/>
              <path class="cls-126" d="m1461.97,1252.59c11.98,11.63,11.98,30.44,0,42.03-12.03,11.6-31.47,11.6-43.48,0-12-11.59-12.03-30.44,0-42.03,12-11.61,31.49-11.61,43.49,0Z"/>
              <path class="cls-13" d="m1007.22,1098.76c8.41,8.09,8.42,21.34-.01,29.5-8.43,8.13-22.1,8.12-30.52,0-8.43-8.15-8.44-21.39-.02-29.51,8.44-8.15,22.11-8.13,30.55.02Z"/>
              <path class="cls-57" d="m828.08,693.24c14.58,14.11,14.58,36.97,0,51.07-14.59,14.1-38.25,14.1-52.83,0-14.59-14.08-14.59-36.96,0-51.07,14.58-14.1,38.24-14.1,52.83,0Z"/>
              <path class="cls-34" d="m599.42,516.95c12.4,12.01,12.4,31.44,0,43.42-12.41,11.99-32.5,11.99-44.92,0-12.38-11.96-12.39-31.44,0-43.42,12.42-11.99,32.54-11.96,44.92,0Z"/>
              <path class="cls-96" d="m134.19,883.88c27.24,26.33,27.24,69.07-.02,95.41-27.27,26.36-71.45,26.34-98.71,0-27.25-26.33-27.28-69.07,0-95.43,27.23-26.32,71.47-26.36,98.73.02Z"/>
              <path class="cls-82" d="m684.35,273.93c23.22,22.44,23.22,58.79,0,81.24-23.21,22.42-60.82,22.42-84.04,0-23.19-22.44-23.24-58.8,0-81.27,23.2-22.41,60.85-22.41,84.05.03Z"/>
              <path class="cls-110" d="m141.66,212.56c17.46,16.88,17.46,44.22,0,61.07-17.43,16.85-45.72,16.87-63.18-.02-17.43-16.83-17.42-44.22.03-61.05,17.43-16.85,45.72-16.85,63.15,0Z"/>
              <path class="cls-17" d="m162.88,115.62c13.83,13.34,13.8,34.97,0,48.33-13.83,13.35-36.21,13.35-50.04,0-13.77-13.33-13.81-34.99.03-48.33,13.8-13.39,36.22-13.35,50.01,0Z"/>
            </g>
          </g>
        </g>
        <g>
          <path class="cls-29" d="m994.73,1153.06c-.3,0-.6-.07-.87-.23-.82-.46-1.1-1.49-.62-2.28l193.38-319.79c.48-.79,1.54-1.06,2.36-.6.82.46,1.1,1.49.62,2.28l-193.38,319.79c-.32.53-.9.83-1.49.83Z"/>
          <path class="cls-29 ping" d="m1001.65,1154.87c-2.17,3.59-6.94,4.8-10.65,2.7-3.71-2.1-4.96-6.71-2.79-10.29,2.17-3.59,6.94-4.8,10.65-2.7,3.71,2.1,4.96,6.71,2.79,10.29Z"/>
          <path class="ping2 cls-29" d="m1194.63,835.73c2.17-3.59.92-8.2-2.79-10.29s-8.48-.89-10.65,2.7c-2.17,3.59-.92,8.2,2.79,10.29,3.71,2.1,8.48.89,10.65-2.7Z"/>
        </g>
        <g>
          <path class="cls-29" d="m368.09,543.47c-.6,0-1.18-.3-1.5-.84l-143.46-241.14c-.47-.8-.19-1.82.64-2.28.83-.46,1.88-.18,2.36.61l143.46,241.14c.47.8.19,1.82-.64,2.28-.27.15-.57.22-.86.22Z"/>
          <path class="cls-29 ping" d="m374.64,537.72c2.14,3.6.86,8.2-2.87,10.28-3.73,2.07-8.49.83-10.63-2.77-2.14-3.6-.86-8.2,2.87-10.27,3.73-2.07,8.49-.83,10.63,2.77Z"/>
          <path class="ping2 cls-29" d="m231.57,297.23c-2.14-3.6-6.9-4.84-10.63-2.77-3.73,2.07-5.01,6.67-2.87,10.28,2.14,3.6,6.9,4.84,10.63,2.77,3.73-2.07,5.01-6.67,2.87-10.28Z"/>
        </g>
        <g>
          <path class="cls-29" d="m527.26,1124.01c-.6,0-1.18-.3-1.5-.84l-114.78-192.95c-.47-.8-.19-1.82.64-2.28.83-.46,1.88-.18,2.36.61l114.78,192.95c.47.8.19,1.82-.64,2.28-.27.15-.57.22-.86.22Z"/>
          <path class="cls-29 ping" d="m533.81,1118.26c2.14,3.6.86,8.2-2.87,10.28-3.73,2.07-8.49.83-10.63-2.77s-.86-8.2,2.87-10.28c3.73-2.07,8.49-.83,10.63,2.77Z"/>
          <path class="ping2 cls-29" d="m419.42,925.97c-2.14-3.6-6.9-4.84-10.63-2.77-3.73,2.07-5.01,6.67-2.87,10.28,2.14,3.6,6.9,4.84,10.63,2.77s5.01-6.67,2.87-10.27Z"/>
        </g>
        <g>
          <path class="cls-29" d="m680.32,547.38c-.6,0-1.18-.3-1.5-.84l-114.78-192.95c-.47-.8-.19-1.82.64-2.28.83-.46,1.88-.18,2.36.61l114.78,192.95c.47.8.19,1.82-.64,2.28-.27.15-.57.22-.86.22Z"/>
          <path class="cls-29 ping" d="m686.87,541.64c2.14,3.6.86,8.2-2.87,10.28-3.73,2.07-8.49.83-10.63-2.77s-.86-8.2,2.87-10.28c3.73-2.07,8.49-.83,10.63,2.77Z"/>
          <path class="ping2 cls-29" d="m572.48,349.35c-2.14-3.6-6.9-4.84-10.63-2.77-3.73,2.07-5.01,6.67-2.87,10.28,2.14,3.6,6.9,4.84,10.63,2.77,3.73-2.07,5.01-6.67,2.87-10.27Z"/>
        </g>
        <g>
          <path class="cls-29" d="m709.72,325.54c-.3,0-.6-.07-.87-.23-.82-.46-1.1-1.49-.62-2.28l111-183.56c.48-.79,1.54-1.06,2.36-.6.82.46,1.1,1.49.62,2.28l-111,183.56c-.32.53-.9.83-1.49.83Z"/>
          <path class="cls-29 ping" d="m716.64,327.35c-2.17,3.59-6.94,4.8-10.65,2.7-3.71-2.1-4.96-6.71-2.79-10.29,2.17-3.59,6.94-4.8,10.65-2.7,3.71,2.1,4.96,6.71,2.79,10.29Z"/>
          <path class="ping2 cls-29" d="m827.24,144.44c2.17-3.59.92-8.2-2.79-10.29-3.71-2.1-8.48-.89-10.65,2.7-2.17,3.59-.92,8.2,2.79,10.29,3.71,2.1,8.48.89,10.65-2.7Z"/>
        </g>
        <g>
          <path class="cls-29" d="m127.51,1003.65c-.3,0-.6-.07-.87-.23-.82-.46-1.1-1.49-.62-2.28l146.19-241.76c.48-.79,1.54-1.06,2.36-.6s1.1,1.49.62,2.28l-146.19,241.76c-.32.53-.9.83-1.49.83Z"/>
          <path class="cls-29 ping" d="m134.43,1005.46c-2.17,3.59-6.94,4.8-10.65,2.7s-4.96-6.71-2.79-10.29c2.17-3.59,6.94-4.8,10.65-2.7,3.71,2.1,4.96,6.71,2.79,10.29Z"/>
          <path class="ping2 cls-29" d="m280.23,764.35c2.17-3.59.92-8.2-2.79-10.29-3.71-2.1-8.48-.89-10.65,2.7-2.17,3.59-.92,8.2,2.79,10.29,3.71,2.1,8.48.89,10.65-2.7Z"/>
        </g>
        <g>
          <path class="cls-29" d="m355.88,758.61c-.3,0-.6-.07-.87-.23-.82-.46-1.1-1.49-.62-2.28l108.12-178.8c.48-.8,1.54-1.06,2.36-.6.82.46,1.1,1.49.62,2.28l-108.12,178.8c-.32.53-.9.83-1.49.83Z"/>
          <path class="cls-29 ping" d="m362.8,760.42c-2.17,3.59-6.94,4.8-10.65,2.7-3.71-2.1-4.96-6.71-2.79-10.29,2.17-3.59,6.94-4.8,10.65-2.7,3.71,2.1,4.96,6.71,2.79,10.29Z"/>
          <path class="ping2 cls-29" d="m470.52,582.27c2.17-3.59.92-8.2-2.79-10.29-3.71-2.1-8.48-.89-10.65,2.7-2.17,3.59-.92,8.2,2.79,10.29,3.71,2.1,8.48.89,10.65-2.7Z"/>
        </g>
        <g>
          <path class="cls-29" d="m905.45,683.75c-.3,0-.6-.07-.87-.23-.82-.46-1.1-1.49-.62-2.28l274.86-454.54c.48-.79,1.54-1.05,2.36-.6.82.46,1.1,1.49.62,2.28l-274.86,454.54c-.32.53-.9.83-1.49.83Z"/>
          <path class="cls-29" d="m912.37,685.56c-2.17,3.59-6.94,4.8-10.65,2.7-3.71-2.1-4.96-6.71-2.79-10.29,2.17-3.59,6.94-4.8,10.65-2.7,3.71,2.1,4.96,6.71,2.79,10.29Z"/>
          <path class="cls-29 ping2 " d="m1186.84,231.67c2.17-3.59.92-8.2-2.79-10.29-3.71-2.1-8.48-.89-10.65,2.7-2.17,3.59-.92,8.2,2.79,10.29,3.71,2.1,8.48.89,10.65-2.7Z"/>
        </g>
        <ellipse class="ping cls-85" cx="477.01" cy="691.45" rx="124.8" ry="120.62"/>
        <ellipse class="ping2 cls-19" cx="560.5" cy="691.45" rx="218.28" ry="27.32"/>
        <ellipse class="ping cls-100" cx="752.26" cy="519.98" rx="124.8" ry="120.62"/>
        <ellipse class="ping2 cls-92" cx="537.02" cy="316.98" rx="124.8" ry="120.62"/>
        <ellipse class="ping cls-97" cx="747.04" cy="893.19" rx="89.14" ry="86.16"/>
        <ellipse class="ping2 cls-121" cx="435.27" cy="896.97" rx="89.14" ry="86.16"/>
        <ellipse class="ping cls-93" cx="942.71" cy="589.33" rx="89.14" ry="86.16"/>
        <path class="cls-60" d="m1190.09,828.07c13.48,7.61-24.91,95.34-85.74,195.93-60.83,100.6-121.07,175.98-134.55,168.37-13.48-7.61,24.91-95.34,85.75-195.94,60.83-100.6,121.07-175.98,134.55-168.37Z"/>
        <ellipse class="cls-31" cx="304.77" cy="435.63" rx="28.02" ry="161.79" transform="translate(-180.08 217.5) rotate(-30.8)"/>
        <ellipse class="cls-33" cx="476.66" cy="1037.55" rx="28.02" ry="131.04" transform="translate(-464.37 390.88) rotate(-30.83)"/>
        <path class="cls-116" d="m562.72,348.31c13.53-7.52,54.5,36.8,91.5,99,37,62.19,56.02,118.71,42.49,126.23-13.53,7.52-54.5-36.8-91.5-99-37-62.19-56.02-118.71-42.49-126.23Z"/>
        <path class="cls-45" d="m823.37,135.67c13.48,7.61-4.69,61.89-40.57,121.22-35.88,59.34-75.89,101.27-89.37,93.65-13.48-7.61,4.69-61.89,40.57-121.22,35.88-59.34,75.89-101.27,89.37-93.65Z"/>
        <path class="cls-47" d="m276.07,756.05c13.48,7.61-13.33,76.18-59.87,153.14-46.54,76.96-95.19,133.18-108.67,125.57-13.48-7.61,13.33-76.18,59.87-153.14,46.54-76.96,95.19-133.18,108.67-125.57Z"/>
        <ellipse class="cls-114" cx="403.28" cy="678.29" rx="122.5" ry="28.01" transform="translate(-385.81 671.11) rotate(-58.74)"/>
        <path class="cls-117" d="m1181.63,225.1c13.48,7.61-44.92,128.42-130.43,269.84-85.51,141.41-165.76,249.88-179.24,242.27-13.48-7.61,44.92-128.42,130.43-269.84,85.51-141.41,165.76-249.88,179.24-242.27Z"/>
        <ellipse class="cls-66" cx="273.95" cy="759.96" rx="124.8" ry="120.62"/>
      </g>
    </g>
  </g>
</svg>