<?xml version="1.0" encoding="UTF-8"?>
<svg id="Layer_2" data-name="Layer 2" xmlns="http://www.w3.org/2000/svg" viewBox="0 0 90.01 90.01">
  <defs>
    <style>
      .cls-1 {
        fill: #6dccde;
        stroke-width: 0px;
      }
    </style>
  </defs>
  <path class="cls-1" d="m76.84,13.17c17.56,17.56,17.56,46.12,0,63.68-17.56,17.56-46.12,17.56-63.68,0-17.56-17.56-17.56-46.12,0-63.68,17.56-17.56,46.12-17.56,63.68,0ZM14.89,75.12c16.61,16.61,43.63,16.61,60.23,0,16.61-16.61,16.61-43.63,0-60.23-16.61-16.61-43.63-16.61-60.23,0-16.61,16.61-16.61,43.63,0,60.23Z"/>
  <path class="cls-1" d="m66.79,23.22c12.01,12.01,12.01,31.56,0,43.58-12.01,12.01-31.56,12.01-43.58,0-12.01-12.01-12.01-31.56,0-43.58,12.01-12.01,31.56-12.01,43.58,0Zm-41.86,41.86c11.07,11.07,29.07,11.07,40.13,0,11.07-11.07,11.07-29.07,0-40.13-11.07-11.07-29.07-11.07-40.13,0-11.07,11.07-11.07,29.07,0,40.13Z"/>
  <path class="cls-1" d="m57.47,32.54c6.88,6.88,6.88,18.06,0,24.94-6.88,6.88-18.06,6.88-24.94,0-6.88-6.88-6.88-18.06,0-24.94,6.88-6.88,18.06-6.88,24.94,0Zm-23.22,23.22c5.93,5.93,15.57,5.93,21.5,0,5.93-5.93,5.93-15.57,0-21.5-5.93-5.93-15.57-5.93-21.5,0-5.93,5.93-5.93,15.57,0,21.5Z"/>
  <path class="cls-1" d="m50.44,39.57c3,3,3,7.87,0,10.87-3,3-7.87,3-10.87,0-3-3-3-7.87,0-10.87,3-3,7.87-3,10.87,0Zm-9.15,9.15c2.05,2.05,5.38,2.05,7.43,0,2.05-2.05,2.05-5.38,0-7.43-2.05-2.05-5.38-2.05-7.42,0-2.05,2.05-2.05,5.38,0,7.42Z"/>
</svg>