<?xml version="1.0" encoding="UTF-8"?>
<svg xmlns="http://www.w3.org/2000/svg" xmlns:xlink="http://www.w3.org/1999/xlink" viewBox="0 0 35.32 35.32">
  <defs>
    <style>
      .cls-1 {
        fill: #6dccde;
      }

      .cls-1, .cls-2, .cls-3 {
        stroke-width: 0px;
      }

      .cls-4 {
        opacity: .06;
      }

      .cls-5, .cls-3 {
        fill: #1f285b;
      }

      .cls-2 {
        fill: #fff;
      }
    </style>
    <clipPath id="clippath">
      <rect class="cls-3" x="-429.14" y="94.02" width="2485.03" height="1281.01"/>
    </clipPath>
  </defs>
  <g id="Layer_2" data-name="Layer 2">
    <g class="cls-4">
      <rect class="cls-5" x="-429.14" y="94.02" width="2485.03" height="1281.01"/>
    </g>
  </g>
  <g id="Layer_1" data-name="Layer 1">
    <g>
      <path class="cls-1" d="m31.61,16.73h3.72C35.32,7.19,28.12,0,18.57,0v3.72c7.55,0,13.03,5.47,13.03,13.01Z"/>
      <path class="cls-2" d="m18.59,11.15c3.91,0,5.58,1.67,5.58,5.58h3.72c0-6-3.3-9.3-9.3-9.3v3.72Zm6.36,10.12c-.74-.67-1.89-.64-2.59.08l-4.45,4.58c-1.07-.2-3.22-.88-5.44-3.09-2.22-2.22-2.89-4.38-3.09-5.44l4.57-4.45c.72-.7.76-1.84.08-2.59L7.17,2.81c-.68-.74-1.82-.82-2.59-.16L.55,6.11C.23,6.43.04,6.86.02,7.32c-.03.46-.56,11.47,7.98,20.02,7.45,7.45,16.78,7.99,19.35,7.99.38,0,.61-.01.67-.01.45-.03.88-.22,1.2-.54l3.46-4.04c.66-.76.58-1.91-.16-2.59l-7.56-6.87Z"/>
    </g>
  </g>
</svg>