<?xml version="1.0" encoding="UTF-8"?>
<svg id="Layer_3" data-name="Layer 3" xmlns="http://www.w3.org/2000/svg" xmlns:xlink="http://www.w3.org/1999/xlink" viewBox="0 0 693.64 151.06">
  <defs>
    <style>
      .cls-1 {
        fill: url(#linear-gradient);
      }

      .cls-1, .cls-2, .cls-3, .cls-4 {
        stroke-width: 0px;
      }

      .cls-2 {
        fill: #6dccde;
      }

      .cls-3 {
        fill: url(#linear-gradient-2);
      }

      .cls-4 {
        fill: url(#linear-gradient-3);
      }
    </style>
    <linearGradient id="linear-gradient" x1="247.81" y1="75.84" x2="463.8" y2="75.84" gradientUnits="userSpaceOnUse">
      <stop offset="0" stop-color="#0a2744"/>
      <stop offset="1" stop-color="#6dccde"/>
    </linearGradient>
    <linearGradient id="linear-gradient-2" x1="0" y1="53.66" x2="693.64" y2="53.66" xlink:href="#linear-gradient"/>
    <linearGradient id="linear-gradient-3" x1="0" y1="97.39" x2="693.64" y2="97.39" xlink:href="#linear-gradient"/>
  </defs>
  <g>
    <g>
      <path class="cls-2" d="m473.48,37.44c19.59,19.59,19.59,51.46,0,71.05-19.59,19.59-51.46,19.59-71.05,0s-19.59-51.46,0-71.05c19.59-19.59,51.46-19.59,71.05,0Zm-69.13,69.13c18.53,18.53,48.68,18.53,67.21,0,18.53-18.53,18.53-48.68,0-67.21-18.53-18.53-48.68-18.53-67.21,0-18.53,18.53-18.53,48.68,0,67.21Z"/>
      <path class="cls-2" d="m462.26,48.66c13.41,13.41,13.41,35.22,0,48.62-13.41,13.41-35.22,13.41-48.62,0-13.41-13.41-13.41-35.22,0-48.62,13.41-13.41,35.22-13.41,48.62,0Zm-46.7,46.7c12.35,12.35,32.44,12.35,44.78,0s12.35-32.44,0-44.78c-12.35-12.35-32.44-12.35-44.78,0-12.35,12.35-12.35,32.44,0,44.78Z"/>
      <path class="cls-2" d="m451.86,59.06c7.67,7.67,7.67,20.16,0,27.83-7.67,7.67-20.16,7.67-27.83,0-7.67-7.67-7.67-20.16,0-27.83,7.67-7.67,20.16-7.67,27.83,0Zm-25.91,25.91c6.61,6.61,17.37,6.61,23.99,0,6.61-6.61,6.61-17.37,0-23.99-6.61-6.61-17.37-6.61-23.99,0-6.61,6.61-6.61,17.37,0,23.99Z"/>
      <path class="cls-2" d="m444.01,66.91c3.34,3.34,3.34,8.78,0,12.13-3.34,3.34-8.78,3.34-12.13,0s-3.34-8.78,0-12.13c3.34-3.34,8.78-3.34,12.13,0Zm-10.21,10.21c2.28,2.28,6,2.28,8.28,0,2.28-2.28,2.28-6,0-8.28-2.28-2.28-6-2.28-8.28,0-2.28,2.28-2.28,6,0,8.28Z"/>
    </g>
    <path class="cls-1" d="m247.81,96.91v-59.34h16.78v46.03h28.31v13.31h-45.1Zm73.83.76c-5.03,0-9.49-1.02-13.39-3.05-3.9-2.03-6.96-4.84-9.2-8.43-2.23-3.59-3.35-7.7-3.35-12.33s1.12-8.73,3.35-12.29c2.23-3.56,5.3-6.34,9.2-8.35,3.9-2,8.36-3.01,13.39-3.01s9.51,1,13.43,3.01c3.93,2.01,6.99,4.79,9.2,8.35,2.2,3.56,3.31,7.66,3.31,12.29s-1.1,8.75-3.31,12.33c-2.2,3.59-5.27,6.4-9.2,8.43-3.93,2.04-8.41,3.05-13.43,3.05Zm0-12.8c1.86,0,3.52-.42,4.96-1.27,1.44-.85,2.59-2.1,3.43-3.77.85-1.67,1.27-3.66,1.27-5.98s-.42-4.28-1.27-5.89c-.85-1.61-1.99-2.84-3.43-3.69-1.44-.85-3.09-1.27-4.96-1.27s-3.43.42-4.87,1.27c-1.44.85-2.6,2.08-3.48,3.69-.88,1.61-1.31,3.57-1.31,5.89s.44,4.31,1.31,5.98c.88,1.67,2.03,2.92,3.48,3.77,1.44.85,3.06,1.27,4.87,1.27Zm53.06,9.66c-4.07,0-7.81-.92-11.23-2.75-3.42-1.84-6.16-4.41-8.22-7.71-2.06-3.31-3.09-7.22-3.09-11.74s1.03-8.43,3.09-11.74c2.06-3.31,4.8-5.86,8.22-7.67s7.16-2.71,11.23-2.71,7.23.78,10,2.33c2.77,1.55,4.87,3.97,6.32,7.25,1.44,3.28,2.16,7.46,2.16,12.55s-.72,9.27-2.16,12.54c-1.44,3.28-3.55,5.71-6.32,7.29-2.77,1.58-6.1,2.37-10,2.37Zm2.8,19.58c-4.41,0-8.6-.51-12.59-1.53s-7.39-2.51-10.21-4.49l5.85-11.27c1.92,1.53,4.31,2.73,7.16,3.6,2.85.88,5.64,1.31,8.35,1.31,4.35,0,7.49-.95,9.41-2.84,1.92-1.89,2.88-4.65,2.88-8.26v-5.42l.85-12.88-.08-12.97v-8.39h15.34v37.55c0,8.7-2.35,15.14-7.04,19.33-4.69,4.18-11.33,6.27-19.92,6.27Zm1.02-32.38c1.92,0,3.63-.39,5.13-1.19,1.5-.79,2.68-1.89,3.56-3.31.88-1.41,1.31-3.05,1.31-4.92s-.44-3.5-1.31-4.92c-.88-1.41-2.06-2.5-3.56-3.26-1.5-.76-3.21-1.14-5.13-1.14s-3.65.38-5.17,1.14c-1.53.76-2.73,1.85-3.6,3.26-.88,1.41-1.31,3.05-1.31,4.92s.44,3.5,1.31,4.92c.88,1.41,2.08,2.52,3.6,3.31,1.53.79,3.25,1.19,5.17,1.19Zm59.34,15.94c-5.03,0-9.49-1.02-13.39-3.05-3.9-2.03-6.96-4.84-9.2-8.43-2.23-3.59-3.35-7.7-3.35-12.33s1.12-8.73,3.35-12.29c2.23-3.56,5.3-6.34,9.2-8.35,3.9-2,8.36-3.01,13.39-3.01s9.51,1,13.43,3.01c3.93,2.01,6.99,4.79,9.2,8.35,2.2,3.56,3.31,7.66,3.31,12.29s-1.1,8.75-3.31,12.33c-2.2,3.59-5.27,6.4-9.2,8.43-3.93,2.04-8.41,3.05-13.43,3.05Zm0-12.8c1.86,0,3.52-.42,4.96-1.27,1.44-.85,2.59-2.1,3.43-3.77.85-1.67,1.27-3.66,1.27-5.98s-.42-4.28-1.27-5.89c-.85-1.61-1.99-2.84-3.43-3.69-1.44-.85-3.09-1.27-4.96-1.27s-3.43.42-4.87,1.27c-1.44.85-2.6,2.08-3.48,3.69-.88,1.61-1.31,3.57-1.31,5.89s.44,4.31,1.31,5.98c.88,1.67,2.03,2.92,3.48,3.77,1.44.85,3.06,1.27,4.87,1.27Z"/>
  </g>
  <path class="cls-3" d="m1.22,100.2c1.63-1.63,4.27-1.63,5.9,0,.54.54.9,1.19,1.08,1.89h52.16L161.03,1.42h527.89c.4-.84,1.26-1.42,2.25-1.42,1.37,0,2.48,1.11,2.48,2.48s-1.11,2.49-2.48,2.49c-.99,0-1.85-.58-2.24-1.42H161.91L61.24,104.21H8.21c-.18.69-.54,1.35-1.08,1.89-1.63,1.63-4.27,1.63-5.9,0-1.63-1.63-1.63-4.27,0-5.9Z"/>
  <path class="cls-4" d="m692.42,50.86c-1.63,1.63-4.27,1.63-5.9,0-.54-.54-.9-1.19-1.08-1.89h-52.16s-100.66,100.66-100.66,100.66H4.73c-.4.84-1.26,1.42-2.25,1.42-1.37,0-2.48-1.11-2.48-2.48s1.11-2.49,2.48-2.49c.99,0,1.85.58,2.24,1.42h527.01s100.67-100.67,100.67-100.67h53.03c.18-.69.54-1.35,1.08-1.89,1.63-1.63,4.27-1.63,5.9,0,1.63,1.63,1.63,4.27,0,5.9Z"/>
</svg>