<?xml version="1.0" encoding="UTF-8"?>
<svg id="Layer_2" data-name="Layer 2" xmlns="http://www.w3.org/2000/svg" viewBox="0 0 215.41 90.01">
  <defs>
    <style>
      .cls-1 {
        fill: #6dccde;
      }

      .cls-1, .cls-2 {
        stroke-width: 0px;
      }

      .cls-2 {
        fill: #fff;
      }
    </style>
  </defs>
  <g>
    <path class="cls-1" d="m202.24,13.17c17.56,17.56,17.56,46.12,0,63.68-17.56,17.56-46.12,17.56-63.68,0-17.56-17.56-17.56-46.12,0-63.68,17.56-17.56,46.12-17.56,63.68,0Zm-61.96,61.96c16.61,16.61,43.63,16.61,60.23,0,16.61-16.61,16.61-43.63,0-60.23-16.61-16.61-43.63-16.61-60.23,0-16.61,16.61-16.61,43.63,0,60.23Z"/>
    <path class="cls-1" d="m192.19,23.22c12.01,12.01,12.01,31.56,0,43.58-12.01,12.01-31.56,12.01-43.58,0-12.01-12.01-12.01-31.56,0-43.58,12.01-12.01,31.56-12.01,43.58,0Zm-41.86,41.86c11.07,11.07,29.07,11.07,40.13,0,11.07-11.07,11.07-29.07,0-40.13-11.07-11.07-29.07-11.07-40.13,0-11.07,11.07-11.07,29.07,0,40.13Z"/>
    <path class="cls-1" d="m182.87,32.54c6.88,6.88,6.88,18.06,0,24.94-6.88,6.88-18.06,6.88-24.94,0-6.88-6.88-6.88-18.06,0-24.94,6.88-6.88,18.06-6.88,24.94,0Zm-23.22,23.22c5.93,5.93,15.57,5.93,21.5,0,5.93-5.93,5.93-15.57,0-21.5-5.93-5.93-15.57-5.93-21.5,0-5.93,5.93-5.93,15.57,0,21.5Z"/>
    <path class="cls-1" d="m175.84,39.57c3,3,3,7.87,0,10.87-3,3-7.87,3-10.87,0-3-3-3-7.87,0-10.87,3-3,7.87-3,10.87,0Zm-9.15,9.15c2.05,2.05,5.38,2.05,7.43,0,2.05-2.05,2.05-5.38,0-7.43-2.05-2.05-5.38-2.05-7.42,0-2.05,2.05-2.05,5.38,0,7.42Z"/>
  </g>
  <path class="cls-2" d="m0,66.46V13.28h15.04v41.25h25.37v11.93H0Zm66.17.68c-4.51,0-8.51-.91-12-2.73-3.49-1.82-6.24-4.34-8.24-7.56-2-3.22-3-6.9-3-11.05s1-7.82,3-11.02c2-3.19,4.75-5.68,8.24-7.48,3.49-1.8,7.5-2.7,12-2.7s8.52.9,12.04,2.7c3.52,1.8,6.27,4.29,8.24,7.48,1.98,3.19,2.96,6.86,2.96,11.02s-.99,7.84-2.96,11.05c-1.97,3.22-4.72,5.74-8.24,7.56-3.52,1.82-7.53,2.73-12.04,2.73Zm0-11.47c1.67,0,3.15-.38,4.44-1.14,1.29-.76,2.32-1.89,3.08-3.38.76-1.49,1.14-3.28,1.14-5.36s-.38-3.84-1.14-5.28c-.76-1.44-1.79-2.55-3.08-3.3-1.29-.76-2.77-1.14-4.44-1.14s-3.08.38-4.37,1.14c-1.29.76-2.33,1.86-3.11,3.3-.79,1.44-1.18,3.2-1.18,5.28s.39,3.86,1.18,5.36c.78,1.49,1.82,2.62,3.11,3.38,1.29.76,2.75,1.14,4.37,1.14Zm47.56,8.66c-3.65,0-7-.82-10.07-2.47-3.06-1.65-5.52-3.95-7.37-6.91-1.85-2.96-2.77-6.47-2.77-10.52s.92-7.56,2.77-10.52c1.85-2.96,4.3-5.25,7.37-6.87s6.42-2.43,10.07-2.43,6.48.7,8.96,2.09c2.48,1.39,4.37,3.56,5.66,6.49,1.29,2.94,1.94,6.69,1.94,11.24s-.65,8.31-1.94,11.24c-1.29,2.94-3.18,5.12-5.66,6.53-2.48,1.42-5.47,2.13-8.96,2.13Zm2.51,17.55c-3.95,0-7.71-.46-11.28-1.37s-6.62-2.25-9.15-4.03l5.24-10.1c1.72,1.37,3.86,2.44,6.42,3.23,2.56.79,5.05,1.18,7.48,1.18,3.9,0,6.71-.85,8.43-2.55,1.72-1.7,2.58-4.17,2.58-7.41v-4.86l.76-11.55-.08-11.62v-7.52h13.75v33.65c0,7.8-2.1,13.57-6.31,17.32-4.2,3.75-10.15,5.62-17.85,5.62Zm.91-29.02c1.72,0,3.25-.35,4.6-1.06,1.34-.71,2.41-1.7,3.19-2.96.78-1.26,1.18-2.73,1.18-4.41s-.39-3.14-1.18-4.41c-.79-1.26-1.85-2.24-3.19-2.92-1.34-.68-2.88-1.03-4.6-1.03s-3.27.34-4.63,1.03c-1.37.68-2.44,1.66-3.23,2.92-.79,1.27-1.18,2.73-1.18,4.41s.39,3.14,1.18,4.41c.78,1.27,1.86,2.25,3.23,2.96,1.37.71,2.91,1.06,4.63,1.06Zm53.18,14.28c-4.51,0-8.51-.91-12-2.73-3.49-1.82-6.24-4.34-8.24-7.56-2-3.22-3-6.9-3-11.05s1-7.82,3-11.02c2-3.19,4.75-5.68,8.24-7.48,3.49-1.8,7.5-2.7,12-2.7s8.52.9,12.04,2.7c3.52,1.8,6.27,4.29,8.24,7.48,1.98,3.19,2.96,6.86,2.96,11.02s-.99,7.84-2.96,11.05c-1.97,3.22-4.72,5.74-8.24,7.56-3.52,1.82-7.53,2.73-12.04,2.73Zm0-11.47c1.67,0,3.15-.38,4.44-1.14,1.29-.76,2.32-1.89,3.08-3.38.76-1.49,1.14-3.28,1.14-5.36s-.38-3.84-1.14-5.28c-.76-1.44-1.79-2.55-3.08-3.3-1.29-.76-2.77-1.14-4.44-1.14s-3.08.38-4.37,1.14c-1.29.76-2.33,1.86-3.11,3.3-.79,1.44-1.18,3.2-1.18,5.28s.39,3.86,1.18,5.36c.78,1.49,1.82,2.62,3.11,3.38,1.29.76,2.75,1.14,4.37,1.14Z"/>
</svg>