<?xml version="1.0" encoding="UTF-8"?>
<svg id="Layer_1" data-name="Layer 1" xmlns="http://www.w3.org/2000/svg" xmlns:xlink="http://www.w3.org/1999/xlink" viewBox="0 0 236.7 194.73">
  <defs>
    <style>
      .cls-1, .cls-2 {
        fill: #006;
      }

      .cls-2, .cls-3 {
        stroke-width: 0px;
      }

      .cls-3 {
        fill: none;
      }

      .cls-4 {
        clip-path: url(#clippath-1);
      }

      .cls-5 {
        clip-path: url(#clippath);
      }
    </style>
    <clipPath id="clippath">
      <rect class="cls-3" x="96.13" width="75.44" height="122.73"/>
    </clipPath>
    <clipPath id="clippath-1">
      <rect class="cls-2" x="63.65" y="44" width="13.82" height="40"/>
    </clipPath>
  </defs>
  <g class="cls-5">
    <path class="cls-2" d="m118.18,26.35c.34.39.77.57,1.2.57h10.26c.43,0,.86-.19,1.19-.57l2.82-3.16c.86.48,1.79.77,2.82.77,3.33,0,5.98-2.97,5.98-6.7s-2.65-6.7-5.98-6.7-5.98,2.97-5.98,6.7c0,1.15.26,2.2.68,3.16l-2.22,2.68h-8.89l-5.81-6.51V3.94h4.96c.17,0,.34.1.51,0,15.22-.67,30.86,7.09,38.46,22.98h-5.73c-.77-2.78-2.99-4.79-5.73-4.79-3.33,0-5.98,2.97-5.98,6.7,0,3.06,1.79,5.55,4.27,6.42v17.52h-12.82c-.94,0-1.71.86-1.71,1.92v10.53h-3.42v-11.49c0-.58-.26-1.06-.6-1.44l-5.39-5.17v-12.54h7.01l2.31,2.58c-.43.96-.68,2.01-.68,3.16,0,3.73,2.65,6.7,5.98,6.7s5.98-2.97,5.98-6.7-2.65-6.7-5.98-6.7c-1.03,0-1.97.29-2.82.77l-2.82-3.16c-.43-.29-.86-.48-1.28-.48h-9.4c-.94,0-1.71.86-1.71,1.91v15.32c0,.57.26,1.05.6,1.43l5.38,5.17v10.63h-6.84c-.43,0-.85.19-1.19.57l-13.67,15.32c-.34.39-.52.86-.52,1.34v15.6c-2.48.86-4.27,3.35-4.27,6.42,0,3.73,2.65,6.7,5.98,6.7s5.98-2.97,5.98-6.7c0-3.06-1.79-5.55-4.27-6.42v-14.84l12.65-14.17h30.94c.68,0,1.28-.39,1.54-1.05l5.13-11.49c.08-.29.17-.58.17-.86v-6.7h7.52v7.85l-2.22,5.46c-.17.48-.17.96-.09,1.44l7.52,22.5v.29q-.09.09-.17.09h-7.35c-.51,0-1.02.29-1.37.77s-.43,1.15-.26,1.72l2.05,6.7-3.93,1.53c-.51.19-.94.67-1.11,1.24-.17.57-.08,1.24.26,1.72l2.56,3.93-2.22,1.91c-.43.39-.68.96-.68,1.53v4.89c0,2.2-1.03,4.31-2.73,5.36-.77.58-1.71.86-2.65.86-7.09.09-34.44-9.96-34.44-26.71v-4.02c0-1.05-.77-1.92-1.71-1.92s-1.71.86-1.71,1.92v4.02c0,20.4,30.68,30.64,37.95,30.64,1.54,0,3.08-.48,4.36-1.34,2.73-1.82,4.36-5.07,4.36-8.71v-4.02l2.82-2.49c.68-.67.86-1.82.34-2.58l-2.14-3.35,3.42-1.34c.86-.38,1.37-1.44,1.03-2.39l-1.79-6.04h4.96c1.19,0,2.31-.67,2.99-1.72.68-1.15.85-2.59.42-3.83l-7.26-21.73,2.05-5.07c.08-.29.17-.48.17-.77v-10.53c-.51-14.46-5.81-26.62-15.21-35.23C142.45,3.66,131.43-.27,119.72.11h-7.18c-.94,0-1.71.86-1.71,1.92v15.32c0,.48.17.96.51,1.34l6.83,7.66Zm18.29-11.87c1.46,0,2.57,1.24,2.57,2.87s-1.11,2.88-2.57,2.88-2.56-1.24-2.56-2.88,1.11-2.87,2.56-2.87Zm-.85,22.98c1.45,0,2.56,1.24,2.56,2.87s-1.11,2.88-2.56,2.88-2.57-1.24-2.57-2.88,1.11-2.87,2.57-2.87Zm-29.91,67.02c0,1.63-1.11,2.87-2.57,2.87s-2.56-1.24-2.56-2.87,1.11-2.88,2.56-2.88,2.57,1.24,2.57,2.88Zm38.46-75.64c0-1.63,1.11-2.87,2.56-2.87s2.57,1.24,2.57,2.87-1.11,2.88-2.57,2.88-2.56-1.24-2.56-2.88Zm18.54,16.28h-9.14c-.94,0-1.71.86-1.71,1.92v8.14l-4.44,10.06h-13.51v-8.62h12.82c.94,0,1.71-.86,1.71-1.91v-19.44c1.97-.67,3.42-2.4,4.02-4.5h7.35c1.54,4.31,2.57,9.09,2.91,14.36Z"/>
  </g>
  <path class="cls-2" d="m69.52,13.23v16.56c0,.57.29,1.15.67,1.53l10.53,8.43c.09.09.19.09.29.19v20.49c0,.47.19.86.48,1.24l5.27,6.13v15.9c-2.78.86-4.79,3.35-4.79,6.41,0,3.73,2.97,6.7,6.7,6.7s6.7-2.97,6.7-6.7c0-3.06-2.02-5.55-4.79-6.41v-16.57c0-.48-.19-.86-.48-1.24l-5.27-6.13V17.73l9.58,5.45v3.93c-2.78.86-4.79,3.35-4.79,6.42,0,3.73,2.96,6.7,6.7,6.7s6.7-2.97,6.7-6.7c0-3.06-2.01-5.55-4.79-6.42v-4.98c0-.67-.38-1.34-.96-1.63l-13.4-7.66c-.58-.38-1.34-.38-1.92,0-.57.39-.96.96-.96,1.63v20.58l-7.66-6.22v-15.6c2.78-.86,4.79-3.35,4.79-6.42,0-3.73-2.97-6.7-6.7-6.7s-6.7,2.97-6.7,6.7c0,3.06,2.01,5.55,4.79,6.42Zm22.02,76.88c0,1.63-1.24,2.88-2.87,2.88s-2.88-1.24-2.88-2.88,1.24-2.87,2.88-2.87,2.87,1.24,2.87,2.87Zm7.66-56.49c0,1.63-1.24,2.88-2.88,2.88s-2.87-1.24-2.87-2.88,1.24-2.87,2.87-2.87,2.88,1.24,2.88,2.87ZM71.43,3.94c1.63,0,2.87,1.24,2.87,2.88s-1.24,2.87-2.87,2.87-2.88-1.24-2.88-2.87,1.24-2.88,2.88-2.88Z"/>
  <path class="cls-2" d="m112.6,30.56v28.05l-14.36,14.36v-13.79c2.78-.86,4.79-3.35,4.79-6.42,0-3.73-2.97-6.7-6.7-6.7s-6.7,2.97-6.7,6.7c0,3.06,2.01,5.55,4.79,6.42v18.47c0,.77.48,1.44,1.15,1.72.29.19.48.19.77.19.48,0,.96-.19,1.34-.57l18.19-18.19c.38-.38.57-.86.57-1.34v-29.68c0-.48-.19-.96-.57-1.34l-7.09-7.09V6.82c0-1.05-.86-1.92-1.91-1.92s-1.92.86-1.92,1.92v15.32c0,.48.19.96.57,1.34l7.09,7.08Zm-16.28,25.08c-1.63,0-2.87-1.24-2.87-2.87s1.24-2.88,2.87-2.88,2.88,1.24,2.88,2.88-1.24,2.87-2.88,2.87Z"/>
  <g>
    <rect class="cls-1" x="63.65" y="44" width="13.82" height="40"/>
    <g class="cls-4">
      <path class="cls-2" d="m63.77,76.71c0,3.73,2.97,6.7,6.7,6.7s6.7-2.96,6.7-6.7c0-3.07-2.01-5.56-4.79-6.42v-13.02c2.78-.86,4.79-3.35,4.79-6.42,0-3.73-2.97-6.7-6.7-6.7s-6.7,2.97-6.7,6.7c0,3.06,2.01,5.55,4.79,6.42v13.02c-2.78.86-4.79,3.35-4.79,6.42Zm3.83-25.85c0-1.63,1.24-2.87,2.88-2.87s2.87,1.24,2.87,2.87-1.24,2.88-2.87,2.88-2.88-1.24-2.88-2.88Zm2.88,22.98c1.63,0,2.87,1.24,2.87,2.88s-1.24,2.87-2.87,2.87-2.88-1.24-2.88-2.87,1.24-2.88,2.88-2.88Z"/>
    </g>
  </g>
  <path class="cls-2" d="m10.86,140.62L0,169.45h4.11l2.93-7.64h13.71l2.93,7.64h4.11l-10.86-28.83h-6.08Zm-2.37,17.42l5.41-14.08,5.41,14.08h-10.82Z"/>
  <path class="cls-2" d="m30.82,140.62v28.83h21.42v-3.78h-17.49v-25.05h-3.93Z"/>
  <path class="cls-2" d="m55.02,140.62v28.83h3.93v-22.35l8.89,18.23h2.15l8.93-18.23v22.35h3.89v-28.83h-3.93l-9.97,20.2-9.97-20.2h-3.93Z"/>
  <path class="cls-2" d="m88.1,140.62v28.83h3.93v-28.83h-3.93Z"/>
  <path class="cls-2" d="m105.88,140.62l-10.86,28.83h4.11l2.93-7.64h13.71l2.93,7.64h4.11l-10.86-28.83h-6.08Zm-2.37,17.42l5.41-14.08,5.41,14.08h-10.82Z"/>
  <path class="cls-2" d="m134.59,140.62v3.78h9.67v25.05h3.93v-25.05h9.67v-3.78h-23.28Z"/>
  <path class="cls-2" d="m160.86,140.62v28.83h21.42v-3.78h-17.49v-8.74h13.37v-3.78h-13.37v-8.74h17.49v-3.78h-21.42Z"/>
  <path class="cls-2" d="m189.57,140.62c-2.3,0-4.11,1.82-4.11,4.11v20.6c0,2.3,1.82,4.11,4.11,4.11h15.05c2.3,0,4.11-1.82,4.11-4.11v-2.67h-3.93v1.3c0,.96-.78,1.7-1.74,1.7h-11.93c-.96,0-1.74-.74-1.74-1.7v-17.86c0-.96.78-1.7,1.74-1.7h11.93c.96,0,1.74.74,1.74,1.7v1.3h3.93v-2.67c0-2.3-1.82-4.11-4.11-4.11h-15.05Z"/>
  <path class="cls-2" d="m213.43,140.62v28.83h3.93v-12.38h15.42v12.38h3.93v-28.83h-3.93v12.38h-15.42v-12.38h-3.93Z"/>
  <path class="cls-2" d="m22.26,193.36h-1.21l-.88-2.63h-4.08l-.9,2.63h-1.19l3.35-9.58h1.54l3.35,9.58Zm-4.21-8.42l-1.65,4.85h3.44l-1.65-4.85h-.15Z"/>
  <path class="cls-2" d="m26.19,193.5c-.81,0-1.41-.21-1.81-.65-.41-.44-.6-1.08-.6-1.92v-4.81h1.06v4.79c0,1.1.51,1.65,1.54,1.65.67,0,1.19-.21,1.56-.65.38-.43.56-1.13.56-2.08v-3.71h1.08v7.23h-1.02v-1.13l-.13-.04c-.25.45-.55.78-.9,1-.35.21-.8.31-1.35.31Z"/>
  <path class="cls-2" d="m35.73,192.21l.33.77c-.17.17-.39.29-.67.38-.28.09-.58.15-.92.15-1.38,0-2.06-.7-2.06-2.1v-4.4h-1.25v-.88h1.25v-1.52l1.06-.19v1.71h2.33v.88h-2.33v4.29c0,.83.36,1.25,1.08,1.25.4,0,.74-.11,1.02-.33h.15Z"/>
  <path class="cls-2" d="m40.48,193.5c-.68,0-1.28-.15-1.79-.44-.5-.29-.89-.71-1.17-1.27-.27-.57-.4-1.25-.4-2.04s.13-1.48.4-2.04c.28-.57.67-.99,1.17-1.27.51-.29,1.11-.44,1.79-.44s1.27.15,1.77.44c.51.28.9.7,1.17,1.27.28.56.42,1.24.42,2.04s-.14,1.47-.42,2.04c-.27.56-.66.98-1.17,1.27-.5.29-1.09.44-1.77.44Zm0-.96c.72,0,1.27-.23,1.65-.69.39-.46.58-1.16.58-2.1s-.2-1.67-.58-2.13c-.38-.46-.93-.69-1.65-.69s-1.28.23-1.67.69c-.38.46-.56,1.17-.56,2.13s.19,1.65.56,2.1c.39.46.94.69,1.67.69Z"/>
  <path class="cls-2" d="m45.87,193.36v-7.23h1.02v1.06l.15.04c.23-.42.53-.72.88-.92.34-.21.76-.31,1.25-.31.55,0,.98.1,1.29.31.32.21.56.55.73,1.02h.13c.25-.44.55-.78.92-1,.38-.22.82-.33,1.35-.33.75,0,1.3.2,1.67.6.36.39.54,1,.54,1.83v4.92h-1.06v-4.9c0-.53-.11-.92-.33-1.17-.22-.25-.58-.38-1.06-.38-.58,0-1.06.22-1.42.65-.36.42-.54,1.1-.54,2.06v3.73h-1.06v-4.9c0-.53-.11-.92-.33-1.17-.22-.25-.58-.38-1.06-.38-.58,0-1.06.21-1.42.63-.36.41-.54,1.06-.54,1.96v3.85h-1.08Z"/>
  <path class="cls-2" d="m59.9,193.5c-.71,0-1.27-.19-1.67-.56-.41-.38-.6-.91-.6-1.6,0-.42.09-.77.27-1.06.18-.3.45-.55.81-.73.38-.19.86-.34,1.46-.44.53-.08.92-.18,1.19-.29.28-.11.46-.23.56-.35.09-.14.15-.31.15-.52,0-.33-.12-.58-.35-.75-.22-.18-.58-.27-1.06-.27s-.88.09-1.21.27c-.33.18-.64.45-.92.81h-.15l-.52-.73c.3-.39.69-.69,1.17-.92.47-.23,1.01-.35,1.63-.35.84,0,1.47.19,1.88.56.4.36.6.88.6,1.54v3.83c0,.41.17.6.52.6.11,0,.21-.02.31-.06l.1.02.13.75c-.08.04-.19.08-.31.1-.13.04-.26.06-.4.06-.41,0-.71-.09-.92-.27-.2-.18-.32-.44-.38-.77l-.15-.02c-.21.39-.49.68-.83.88-.35.18-.79.27-1.31.27Zm.23-.85c.4,0,.75-.09,1.04-.27.3-.19.53-.46.69-.79.15-.33.23-.72.23-1.17v-.92l-.13-.02c-.16.11-.35.21-.58.29-.24.07-.56.14-.96.19-.43.06-.77.15-1.02.27-.24.11-.41.26-.52.44-.1.18-.15.41-.15.67,0,.43.13.76.38.98.25.22.59.33,1.02.33Z"/>
  <path class="cls-2" d="m69.29,192.21l.33.77c-.17.17-.39.29-.67.38-.28.09-.58.15-.92.15-1.38,0-2.06-.7-2.06-2.1v-4.4h-1.25v-.88h1.25v-1.52l1.06-.19v1.71h2.33v.88h-2.33v4.29c0,.83.36,1.25,1.08,1.25.4,0,.74-.11,1.02-.33h.15Z"/>
  <path class="cls-2" d="m76.77,189.98h-4.96c.03.89.23,1.54.63,1.96.4.41.94.6,1.63.6.51,0,.92-.09,1.23-.27.32-.19.57-.48.75-.88h.15l.69.42c-.21.53-.55.95-1.02,1.25-.46.29-1.06.44-1.79.44s-1.31-.14-1.81-.42c-.5-.28-.89-.69-1.17-1.25-.27-.57-.4-1.26-.4-2.08s.14-1.51.42-2.08c.29-.57.69-.98,1.19-1.25.5-.28,1.07-.42,1.71-.42.92,0,1.63.27,2.15.79.53.52.79,1.29.79,2.31,0,.41-.01.68-.02.81l-.15.06Zm-.88-.88c-.03-.78-.2-1.34-.52-1.69-.32-.34-.78-.52-1.38-.52-.64,0-1.14.18-1.5.54-.36.35-.58.91-.67,1.67h4.06Z"/>
  <path class="cls-2" d="m83.33,194.73h-1.02v-11.5h1.02v11.5Z"/>
  <path class="cls-2" d="m90.66,193.36h-1.15v-9.58h1.15v9.58Z"/>
  <path class="cls-2" d="m93.35,193.36v-7.23h1.02v1.15l.15.02c.23-.42.54-.73.92-.96.38-.22.82-.33,1.35-.33.88,0,1.51.22,1.9.67.39.43.58,1.11.58,2.04v4.65h-1.06v-4.63c0-.43-.06-.78-.17-1.04-.11-.26-.29-.46-.52-.58-.24-.13-.54-.19-.92-.19-.66,0-1.18.22-1.58.65-.39.43-.58,1.13-.58,2.08v3.71h-1.08Z"/>
  <path class="cls-2" d="m101.66,193.36v-7.23h1.02v1.15l.15.02c.23-.42.54-.73.92-.96.38-.22.82-.33,1.35-.33.88,0,1.51.22,1.9.67.39.43.58,1.11.58,2.04v4.65h-1.06v-4.63c0-.43-.06-.78-.17-1.04-.11-.26-.29-.46-.52-.58-.24-.13-.54-.19-.92-.19-.66,0-1.18.22-1.58.65-.39.43-.58,1.13-.58,2.08v3.71h-1.08Z"/>
  <path class="cls-2" d="m112.87,193.5c-.68,0-1.28-.15-1.79-.44-.5-.29-.89-.71-1.17-1.27-.27-.57-.4-1.25-.4-2.04s.13-1.48.4-2.04c.28-.57.67-.99,1.17-1.27.51-.29,1.11-.44,1.79-.44s1.27.15,1.77.44c.51.28.9.7,1.17,1.27.28.56.42,1.24.42,2.04s-.14,1.47-.42,2.04c-.27.56-.66.98-1.17,1.27-.5.29-1.09.44-1.77.44Zm0-.96c.72,0,1.27-.23,1.65-.69.39-.46.58-1.16.58-2.1s-.2-1.67-.58-2.13c-.38-.46-.93-.69-1.65-.69s-1.28.23-1.67.69c-.38.46-.56,1.17-.56,2.13s.19,1.65.56,2.1c.39.46.94.69,1.67.69Z"/>
  <path class="cls-2" d="m121.58,193.36h-1.46l-2.75-7.23h1.15l2.27,6.02h.17l2.25-6.02h1.13l-2.75,7.23Z"/>
  <path class="cls-2" d="m127.65,193.5c-.71,0-1.27-.19-1.67-.56-.41-.38-.6-.91-.6-1.6,0-.42.09-.77.27-1.06.18-.3.45-.55.81-.73.38-.19.86-.34,1.46-.44.53-.08.92-.18,1.19-.29.28-.11.46-.23.56-.35.09-.14.15-.31.15-.52,0-.33-.12-.58-.35-.75-.22-.18-.58-.27-1.06-.27s-.88.09-1.21.27c-.33.18-.64.45-.92.81h-.15l-.52-.73c.3-.39.69-.69,1.17-.92.47-.23,1.01-.35,1.63-.35.84,0,1.47.19,1.88.56.4.36.6.88.6,1.54v3.83c0,.41.17.6.52.6.11,0,.21-.02.31-.06l.1.02.13.75c-.08.04-.19.08-.31.1-.13.04-.26.06-.4.06-.41,0-.71-.09-.92-.27-.2-.18-.32-.44-.38-.77l-.15-.02c-.21.39-.49.68-.83.88-.35.18-.79.27-1.31.27Zm.23-.85c.4,0,.75-.09,1.04-.27.3-.19.53-.46.69-.79.15-.33.23-.72.23-1.17v-.92l-.13-.02c-.16.11-.35.21-.58.29-.24.07-.56.14-.96.19-.43.06-.77.15-1.02.27-.24.11-.41.26-.52.44-.1.18-.15.41-.15.67,0,.43.13.76.38.98.25.22.59.33,1.02.33Z"/>
  <path class="cls-2" d="m137.03,192.21l.33.77c-.17.17-.39.29-.67.38-.28.09-.58.15-.92.15-1.38,0-2.06-.7-2.06-2.1v-4.4h-1.25v-.88h1.25v-1.52l1.06-.19v1.71h2.33v.88h-2.33v4.29c0,.83.36,1.25,1.08,1.25.4,0,.74-.11,1.02-.33h.15Z"/>
  <path class="cls-2" d="m144.51,189.98h-4.96c.03.89.23,1.54.63,1.96.4.41.94.6,1.63.6.51,0,.92-.09,1.23-.27.32-.19.57-.48.75-.88h.15l.69.42c-.21.53-.55.95-1.02,1.25-.46.29-1.06.44-1.79.44s-1.31-.14-1.81-.42c-.5-.28-.89-.69-1.17-1.25-.27-.57-.4-1.26-.4-2.08s.14-1.51.42-2.08c.29-.57.69-.98,1.19-1.25.5-.28,1.07-.42,1.71-.42.92,0,1.63.27,2.15.79.53.52.79,1.29.79,2.31,0,.41-.01.68-.02.81l-.15.06Zm-.88-.88c-.03-.78-.2-1.34-.52-1.69-.32-.34-.78-.52-1.38-.52-.64,0-1.14.18-1.5.54-.36.35-.58.91-.67,1.67h4.06Z"/>
  <path class="cls-2" d="m151.08,194.73h-1.02v-11.5h1.02v11.5Z"/>
  <path class="cls-2" d="m164.45,193.36h-1.21l-.88-2.63h-4.08l-.9,2.63h-1.19l3.35-9.58h1.54l3.35,9.58Zm-4.21-8.42l-1.65,4.85h3.44l-1.65-4.85h-.15Z"/>
  <path class="cls-2" d="m168.96,193.5c-.64,0-1.22-.15-1.73-.44-.5-.29-.9-.72-1.19-1.29-.29-.57-.44-1.24-.44-2.02s.15-1.47.44-2.04c.29-.57.69-.99,1.19-1.27.51-.29,1.09-.44,1.73-.44.76,0,1.36.15,1.81.44.46.28.79.66,1,1.15l-.73.52h-.15c-.2-.4-.45-.69-.75-.88-.31-.19-.7-.29-1.19-.29-.45,0-.83.11-1.17.33-.33.21-.6.52-.79.94-.18.42-.27.93-.27,1.54s.09,1.1.27,1.52c.19.42.46.74.79.96.33.21.72.31,1.17.31.5,0,.92-.11,1.25-.33.33-.23.59-.59.77-1.08h.15l.69.42c-.18.6-.52,1.08-1,1.44-.49.35-1.1.52-1.85.52Z"/>
  <path class="cls-2" d="m176.4,193.5c-.64,0-1.22-.15-1.73-.44-.5-.29-.9-.72-1.19-1.29-.29-.57-.44-1.24-.44-2.02s.15-1.47.44-2.04c.29-.57.69-.99,1.19-1.27.51-.29,1.09-.44,1.73-.44.76,0,1.36.15,1.81.44.46.28.79.66,1,1.15l-.73.52h-.15c-.2-.4-.45-.69-.75-.88-.31-.19-.7-.29-1.19-.29-.45,0-.83.11-1.17.33-.33.21-.6.52-.79.94-.18.42-.27.93-.27,1.54s.09,1.1.27,1.52c.19.42.46.74.79.96.33.21.72.31,1.17.31.5,0,.92-.11,1.25-.33.33-.23.59-.59.77-1.08h.15l.69.42c-.18.6-.52,1.08-1,1.44-.49.35-1.1.52-1.85.52Z"/>
  <path class="cls-2" d="m186.58,189.98h-4.96c.03.89.23,1.54.63,1.96.4.41.94.6,1.63.6.51,0,.92-.09,1.23-.27.32-.19.57-.48.75-.88h.15l.69.42c-.21.53-.55.95-1.02,1.25-.46.29-1.06.44-1.79.44s-1.31-.14-1.81-.42c-.5-.28-.89-.69-1.17-1.25-.27-.57-.4-1.26-.4-2.08s.14-1.51.42-2.08c.29-.57.69-.98,1.19-1.25.5-.28,1.07-.42,1.71-.42.92,0,1.63.27,2.15.79.53.52.79,1.29.79,2.31,0,.41-.01.68-.02.81l-.15.06Zm-.88-.88c-.03-.78-.2-1.34-.52-1.69-.32-.34-.78-.52-1.38-.52-.64,0-1.14.18-1.5.54-.36.35-.58.91-.67,1.67h4.06Z"/>
  <path class="cls-2" d="m190.27,193.5c-.52,0-.92-.15-1.21-.44s-.44-.73-.44-1.31v-8.52h1.06v8.46c0,.31.05.53.17.67.13.13.31.19.56.19.14,0,.28-.03.44-.08l.1.02.13.85c-.08.05-.2.09-.35.13-.14.03-.29.04-.46.04Z"/>
  <path class="cls-2" d="m198.2,189.98h-4.96c.03.89.23,1.54.63,1.96.4.41.94.6,1.63.6.51,0,.92-.09,1.23-.27.32-.19.57-.48.75-.88h.15l.69.42c-.21.53-.55.95-1.02,1.25-.46.29-1.06.44-1.79.44s-1.31-.14-1.81-.42c-.5-.28-.89-.69-1.17-1.25-.27-.57-.4-1.26-.4-2.08s.14-1.51.42-2.08c.29-.57.69-.98,1.19-1.25.5-.28,1.07-.42,1.71-.42.92,0,1.63.27,2.15.79.53.52.79,1.29.79,2.31,0,.41-.01.68-.02.81l-.15.06Zm-.88-.88c-.03-.78-.2-1.34-.52-1.69-.32-.34-.78-.52-1.38-.52-.64,0-1.14.18-1.5.54-.36.35-.58.91-.67,1.67h4.06Z"/>
  <path class="cls-2" d="m200.27,193.36v-7.23h1.02v1.15l.15.02c.33-.82.96-1.23,1.9-1.23.48,0,.85.09,1.1.27l-.27.9-.13.04c-.28-.14-.58-.21-.9-.21-.58,0-1.03.22-1.33.65-.31.43-.46,1.14-.46,2.1v3.54h-1.08Z"/>
  <path class="cls-2" d="m207.58,193.5c-.71,0-1.27-.19-1.67-.56-.41-.38-.6-.91-.6-1.6,0-.42.09-.77.27-1.06.18-.3.45-.55.81-.73.38-.19.86-.34,1.46-.44.53-.08.92-.18,1.19-.29.28-.11.46-.23.56-.35.09-.14.15-.31.15-.52,0-.33-.12-.58-.35-.75-.22-.18-.58-.27-1.06-.27s-.88.09-1.21.27c-.33.18-.64.45-.92.81h-.15l-.52-.73c.3-.39.69-.69,1.17-.92.47-.23,1.01-.35,1.63-.35.84,0,1.47.19,1.88.56.4.36.6.88.6,1.54v3.83c0,.41.17.6.52.6.11,0,.21-.02.31-.06l.1.02.13.75c-.08.04-.19.08-.31.1-.13.04-.26.06-.4.06-.41,0-.71-.09-.92-.27-.2-.18-.32-.44-.38-.77l-.15-.02c-.21.39-.49.68-.83.88-.35.18-.79.27-1.31.27Zm.23-.85c.4,0,.75-.09,1.04-.27.3-.19.53-.46.69-.79.15-.33.23-.72.23-1.17v-.92l-.13-.02c-.16.11-.35.21-.58.29-.24.07-.56.14-.96.19-.43.06-.77.15-1.02.27-.24.11-.41.26-.52.44-.1.18-.15.41-.15.67,0,.43.13.76.38.98.25.22.59.33,1.02.33Z"/>
  <path class="cls-2" d="m216.97,192.21l.33.77c-.17.17-.39.29-.67.38-.28.09-.58.15-.92.15-1.38,0-2.06-.7-2.06-2.1v-4.4h-1.25v-.88h1.25v-1.52l1.06-.19v1.71h2.33v.88h-2.33v4.29c0,.83.36,1.25,1.08,1.25.4,0,.74-.11,1.02-.33h.15Z"/>
  <path class="cls-2" d="m224.44,189.98h-4.96c.03.89.23,1.54.63,1.96.4.41.94.6,1.63.6.51,0,.92-.09,1.23-.27.32-.19.57-.48.75-.88h.15l.69.42c-.21.53-.55.95-1.02,1.25-.46.29-1.06.44-1.79.44s-1.31-.14-1.81-.42c-.5-.28-.89-.69-1.17-1.25-.27-.57-.4-1.26-.4-2.08s.14-1.51.42-2.08c.29-.57.69-.98,1.19-1.25.5-.28,1.07-.42,1.71-.42.92,0,1.63.27,2.15.79.53.52.79,1.29.79,2.31,0,.41-.01.68-.02.81l-.15.06Zm-.88-.88c-.03-.78-.2-1.34-.52-1.69-.32-.34-.78-.52-1.38-.52-.64,0-1.14.18-1.5.54-.36.35-.58.91-.67,1.67h4.06Z"/>
</svg>