<?xml version="1.0" encoding="UTF-8"?>
<svg id="Layer_1" data-name="Layer 1" xmlns="http://www.w3.org/2000/svg" xmlns:xlink="http://www.w3.org/1999/xlink" viewBox="0 0 54.6 46.4">
  <defs>
    <style>
      .cls-1 {
        fill: url(#New_Gradient_Swatch);
        stroke-width: 0px;
      }
    </style>
    <linearGradient id="New_Gradient_Swatch" data-name="New Gradient Swatch" x1="0" y1="23.2" x2="54.6" y2="23.2" gradientUnits="userSpaceOnUse">
      <stop offset="0" stop-color="#6dccde"/>
      <stop offset="1" stop-color="#0a588a"/>
    </linearGradient>
  </defs>
  <path class="cls-1" d="m51.4.1c-1.5,0-2.7,1-3.1,2.3h-17.6v-1.4c0-.6-.4-1-1-1h-4.9c-.6,0-1,.4-1,1v1.4H6.4C6,1.1,4.7.1,3.3.1,1.5.1,0,1.6,0,3.4s1.5,3.3,3.3,3.3c1.5,0,2.7-1,3.1-2.3h11.8c-7.3,3.3-12.3,10.5-12.7,18.9h-1.5c-.6,0-1,.4-1,1v4.9c0,.6.4,1,1,1h4.9c.6,0,1-.4,1-1v-4.9c0-.6-.4-1-1-1h-1.4c.5-9.3,7.3-17,16.4-18.6v1.1c0,.6.4,1,1,1h.8l-11.3,22.1c-.2.4-.1,1,.3,1.3,0,0,4.6,3.2,4.9,9.3h-.4c-1.2,0-2.2,1-2.2,2.2v2.5c0,1.2,1,2.2,2.2,2.2h15.8c1.2,0,2.2-1,2.2-2.2v-2.5c0-1.2-1-2.2-2.2-2.2h0c.3-6.1,4.7-9.2,4.9-9.3.4-.3.6-.8.3-1.3L28.9,6.9h.8c.6,0,1-.4,1-1v-1.1c9.1,1.6,15.9,9.3,16.4,18.6h-1.4c-.6,0-1,.4-1,1v4.8c0,.6.4,1,1,1h4.9c.6,0,1-.4,1-1v-4.9c0-.6-.4-1-1-1h-1.5c-.4-8.3-5.4-15.5-12.7-18.9h11.8c.4,1.3,1.7,2.3,3.1,2.3,1.8,0,3.3-1.5,3.3-3.3.1-1.8-1.4-3.3-3.2-3.3ZM3.2,4.7c-.7,0-1.3-.6-1.3-1.3s.6-1.3,1.3-1.3,1.3.6,1.3,1.3c0,.8-.6,1.3-1.3,1.3Zm4.6,20.6v2.9h-2.8v-2.9h2.8ZM25.9,2h2.9v2.9h-2.9v-2.9Zm9.1,39.5c.1,0,.2.1.2.2v2.5c0,.1-.1.2-.2.2h-15.8c-.1,0-.2-.1-.2-.2v-2.5c0-.1.1-.2.2-.2h15.8Zm3.1-12.4c-1.5,1.3-4.9,4.8-5.1,10.4h-11.4c-.2-5.7-3.6-9.2-5.1-10.4l9.8-19.1v10.5c0,.6.4,1,1,1s1-.4,1-1v-10.5l9.8,19.1Zm11.5-3.8v2.9h-2.9v-2.9h2.9Zm1.8-20.6c-.7,0-1.3-.6-1.3-1.3s.6-1.3,1.3-1.3,1.3.6,1.3,1.3c0,.8-.6,1.3-1.3,1.3Z"/>
</svg>