<?xml version="1.0" encoding="UTF-8"?>
<svg id="OBJECTS" xmlns="http://www.w3.org/2000/svg" xmlns:xlink="http://www.w3.org/1999/xlink" viewBox="0 0 750 337.21">
  <defs>
    <style>
      .cls-1 {
        fill: #b0b5b7;
      }

      .cls-1, .cls-2, .cls-3 {
        stroke-width: 0px;
      }

      .cls-2 {
        fill: none;
      }

      .cls-4 {
        opacity: .58;
      }

      .cls-5 {
        clip-path: url(#clippath);
      }

      .cls-3 {
        fill: #ced6db;
      }
    </style>
    <clipPath id="clippath">
      <rect class="cls-2" x="0" width="750" height="500"/>
    </clipPath>
  </defs>
  <g class="cls-4">
    <g class="cls-5">
      <g>
        <g>
          <g>
            <path class="cls-3" d="m769.33,195.22h-217.32l-56.22-56.22h-124.5l-59.5-59.5h-83.29c-.28,0-.5-.22-.5-.5s.22-.5.5-.5h83.71l59.5,59.5h124.5l56.22,56.22h216.91c.28,0,.5.22.5.5s-.22.5-.5.5Z"/>
            <path class="cls-1" d="m326.87,142.21H79.33c-.28,0-.5-.22-.5-.5s.22-.5.5-.5h247.13l70.71-70.71h91.14l52.57,52.57h54.92L730.93-12.07c.2-.2.51-.2.71,0,.2.2.2.51,0,.71l-135.43,135.43h-55.75l-52.57-52.57h-90.31l-70.71,70.71Z"/>
            <path class="cls-1" d="m769.33,302.06h-189.05l-143.2-143.2h-94.64l-60.36-60.36H109c-.55,0-1-.45-1-1s.45-1,1-1h173.91l60.36,60.36h94.64l143.2,143.2h188.22c.55,0,1,.45,1,1s-.45,1-1,1Z"/>
            <path class="cls-1" d="m580.78,273.17h-158.99l-114.17-114.17h-160.62c-.28,0-.5-.22-.5-.5s.22-.5.5-.5h161.04l114.17,114.17h158.16l110.98-110.98h102.37c.28,0,.5.22.5.5s-.22.5-.5.5h-101.95l-110.98,110.98Z"/>
            <path class="cls-3" d="m243.54,120.83h-60.04c-.28,0-.5-.22-.5-.5s.22-.5.5-.5h59.63l63-63h106.75l43.5,43.5h104.09l114.94-114.94c.2-.2.51-.2.71,0s.2.51,0,.71l-115.23,115.23h-104.91l-43.5-43.5h-105.92l-63,63Z"/>
            <path class="cls-1" d="m608.21,330.47h-73.39l-121.65-121.65h-153.19l-36.19-36.19H74c-.28,0-.5-.22-.5-.5s.22-.5.5-.5h150.21l36.19,36.19h153.19l121.65,121.65h72.56l75.99-75.99h85.55c.28,0,.5.22.5.5s-.22.5-.5.5h-85.14l-75.99,75.99Z"/>
            <path class="cls-1" d="m229.75,62h-78.75c-.55,0-1-.45-1-1s.45-1,1-1h77.92l44.67-44.67h170.67l33.67-33.67c.39-.39,1.02-.39,1.41,0,.39.39.39,1.02,0,1.41l-34.25,34.25h-170.67l-44.67,44.67Z"/>
          </g>
          <path class="cls-1" d="m-13.33,236.84c-.26,0-.51-.1-.71-.29-.39-.39-.39-1.02,0-1.41l54.09-54.09h170.78l47.08,47.08h85.25c.55,0,1,.45,1,1s-.45,1-1,1h-86.08l-47.08-47.08H40.88l-53.51,53.51c-.2.2-.45.29-.71.29Z"/>
          <path class="cls-1" d="m198.5,79.5h-73.71l-40.58-40.58H-13.33c-.28,0-.5-.22-.5-.5s.22-.5.5-.5h97.96l40.58,40.58h73.29c.28,0,.5.22.5.5s-.22.5-.5.5Z"/>
          <path class="cls-1" d="m151,120.83h-54.21l-52.92-52.92H-22c-.28,0-.5-.22-.5-.5s.22-.5.5-.5H44.29l52.92,52.92h53.79c.28,0,.5.22.5.5s-.22.5-.5.5Z"/>
          <path class="cls-1" d="m79.89,142.12c-.13,0-.26-.05-.35-.15l-46.33-46.33H-22c-.28,0-.5-.22-.5-.5s.22-.5.5-.5h55.61l46.63,46.63c.2.2.2.51,0,.71-.1.1-.23.15-.35.15Z"/>
          <path class="cls-1" d="m633.2,159.5h-69.95c-.55,0-1-.45-1-1s.45-1,1-1h69.12l59.03-59.03h30.71c.55,0,1,.45,1,1s-.45,1-1,1h-29.88l-59.03,59.03Z"/>
          <g>
            <path class="cls-3" d="m608,337.06c-3.91,0-7.08-3.18-7.08-7.08s3.18-7.08,7.08-7.08,7.08,3.18,7.08,7.08-3.18,7.08-7.08,7.08Zm0-13.17c-3.35,0-6.08,2.73-6.08,6.08s2.73,6.08,6.08,6.08,6.08-2.73,6.08-6.08-2.73-6.08-6.08-6.08Z"/>
            <circle class="cls-3" cx="608" cy="329.97" r="4.61"/>
          </g>
          <g>
            <path class="cls-3" d="m552.04,201.8c-3.91,0-7.08-3.18-7.08-7.08s3.18-7.08,7.08-7.08,7.08,3.18,7.08,7.08-3.18,7.08-7.08,7.08Zm0-13.17c-3.35,0-6.08,2.73-6.08,6.08s2.73,6.08,6.08,6.08,6.08-2.73,6.08-6.08-2.73-6.08-6.08-6.08Z"/>
            <circle class="cls-3" cx="552.04" cy="194.72" r="4.61"/>
          </g>
          <g>
            <path class="cls-3" d="m556.08,165.58c-3.91,0-7.08-3.18-7.08-7.08s3.18-7.08,7.08-7.08,7.08,3.18,7.08,7.08-3.18,7.08-7.08,7.08Zm0-13.17c-3.35,0-6.08,2.73-6.08,6.08s2.73,6.08,6.08,6.08,6.08-2.73,6.08-6.08-2.73-6.08-6.08-6.08Z"/>
            <circle class="cls-3" cx="556.08" cy="158.5" r="4.61"/>
            <path class="cls-3" d="m482.27,158.5c0,2.55-2.07,4.61-4.61,4.61s-4.61-2.07-4.61-4.61,2.07-4.61,4.61-4.61,4.61,2.07,4.61,4.61Z"/>
            <circle class="cls-3" cx="720.32" cy="231.81" r="4.61"/>
          </g>
          <g>
            <path class="cls-3" d="m426.08,78.66c-3.91,0-7.08-3.18-7.08-7.08s3.18-7.08,7.08-7.08,7.08,3.18,7.08,7.08-3.18,7.08-7.08,7.08Zm0-13.17c-3.35,0-6.08,2.73-6.08,6.08s2.73,6.08,6.08,6.08,6.08-2.73,6.08-6.08-2.73-6.08-6.08-6.08Z"/>
            <circle class="cls-3" cx="426.08" cy="71.58" r="4.61"/>
          </g>
          <g>
            <path class="cls-1" d="m350.33,236.34c-3.91,0-7.08-3.18-7.08-7.08s3.18-7.08,7.08-7.08,7.08,3.18,7.08,7.08-3.18,7.08-7.08,7.08Zm0-13.17c-3.35,0-6.08,2.73-6.08,6.08s2.73,6.08,6.08,6.08,6.08-2.73,6.08-6.08-2.73-6.08-6.08-6.08Z"/>
            <circle class="cls-1" cx="350.33" cy="229.25" r="4.61"/>
          </g>
          <g>
            <path class="cls-3" d="m221.92,86.08c-3.91,0-7.08-3.18-7.08-7.08s3.18-7.08,7.08-7.08,7.08,3.18,7.08,7.08-3.18,7.08-7.08,7.08Zm0-13.17c-3.35,0-6.08,2.73-6.08,6.08s2.73,6.08,6.08,6.08,6.08-2.73,6.08-6.08-2.73-6.08-6.08-6.08Z"/>
            <circle class="cls-3" cx="221.92" cy="79" r="4.61"/>
          </g>
          <g>
            <path class="cls-1" d="m145.84,65.98c-2.74,0-4.98-2.23-4.98-4.98s2.23-4.98,4.98-4.98,4.98,2.23,4.98,4.98-2.23,4.98-4.98,4.98Zm0-8.95c-2.19,0-3.98,1.78-3.98,3.98s1.78,3.98,3.98,3.98,3.98-1.78,3.98-3.98-1.78-3.98-3.98-3.98Z"/>
            <path class="cls-1" d="m148.98,61c0,1.73-1.4,3.14-3.14,3.14s-3.14-1.4-3.14-3.14,1.4-3.14,3.14-3.14,3.14,1.4,3.14,3.14Z"/>
          </g>
          <g>
            <path class="cls-1" d="m44.08,72.39c-2.74,0-4.98-2.23-4.98-4.98s2.23-4.98,4.98-4.98,4.98,2.23,4.98,4.98-2.23,4.98-4.98,4.98Zm0-8.95c-2.19,0-3.98,1.78-3.98,3.98s1.78,3.98,3.98,3.98,3.98-1.78,3.98-3.98-1.78-3.98-3.98-3.98Z"/>
            <path class="cls-1" d="m47.22,67.42c0,1.73-1.4,3.14-3.14,3.14s-3.14-1.4-3.14-3.14,1.4-3.14,3.14-3.14,3.14,1.4,3.14,3.14Z"/>
          </g>
          <g>
            <path class="cls-1" d="m142.24,163.48c-2.74,0-4.98-2.23-4.98-4.98s2.23-4.98,4.98-4.98,4.98,2.23,4.98,4.98-2.23,4.98-4.98,4.98Zm0-8.95c-2.19,0-3.98,1.78-3.98,3.98s1.78,3.98,3.98,3.98,3.98-1.78,3.98-3.98-1.78-3.98-3.98-3.98Z"/>
            <path class="cls-1" d="m145.38,158.5c0,1.73-1.4,3.14-3.14,3.14s-3.14-1.4-3.14-3.14,1.4-3.14,3.14-3.14,3.14,1.4,3.14,3.14Z"/>
          </g>
          <g>
            <path class="cls-1" d="m69.52,177.11c-2.74,0-4.98-2.23-4.98-4.98s2.23-4.98,4.98-4.98,4.98,2.23,4.98,4.98-2.23,4.98-4.98,4.98Zm0-8.95c-2.19,0-3.98,1.78-3.98,3.98s1.78,3.98,3.98,3.98,3.98-1.78,3.98-3.98-1.78-3.98-3.98-3.98Z"/>
            <path class="cls-1" d="m72.66,172.14c0,1.73-1.4,3.14-3.14,3.14s-3.14-1.4-3.14-3.14,1.4-3.14,3.14-3.14,3.14,1.4,3.14,3.14Z"/>
          </g>
          <circle class="cls-3" cx="284.67" cy="79" r="5.58"/>
          <circle class="cls-3" cx="717.04" cy="99.61" r="5.58" transform="translate(585.04 811.4) rotate(-87.4)"/>
          <path class="cls-3" d="m663.99,194.72c0,3.08-2.5,5.58-5.58,5.58s-5.58-2.5-5.58-5.58,2.5-5.58,5.58-5.58,5.58,2.5,5.58,5.58Z"/>
          <path class="cls-3" d="m640.31,301.06c0,2.02-1.64,3.66-3.66,3.66s-3.66-1.64-3.66-3.66,1.64-3.66,3.66-3.66,3.66,1.64,3.66,3.66Z"/>
          <path class="cls-3" d="m481.31,272.67c0,2.02-1.64,3.66-3.66,3.66s-3.66-1.64-3.66-3.66,1.64-3.66,3.66-3.66,3.66,1.64,3.66,3.66Z"/>
          <circle class="cls-3" cx="518.04" cy="100.94" r="5.58"/>
          <path class="cls-3" d="m581.38,102.03c0,2.17-1.76,3.94-3.94,3.94s-3.94-1.76-3.94-3.94,1.76-3.94,3.94-3.94,3.94,1.76,3.94,3.94Z"/>
          <path class="cls-1" d="m595.44,109.05c0,2.3-1.87,4.17-4.16,4.17s-4.17-1.87-4.17-4.17,1.87-4.17,4.17-4.17,4.16,1.87,4.16,4.17Z"/>
          <circle class="cls-1" cx="358" cy="208.37" r="7.33"/>
          <circle class="cls-3" cx="552.14" cy="272.67" r="7.33"/>
          <path class="cls-3" d="m330,141.71c0,1.89-1.53,3.42-3.42,3.42s-3.42-1.53-3.42-3.42,1.53-3.42,3.42-3.42,3.42,1.53,3.42,3.42Z"/>
          <path class="cls-1" d="m213.54,182.04c0,1.89-1.53,3.42-3.42,3.42s-3.42-1.53-3.42-3.42,1.53-3.42,3.42-3.42,3.42,1.53,3.42,3.42Z"/>
          <g>
            <path class="cls-3" d="m350.7,125.29c-4.18,0-7.58-3.4-7.58-7.58s3.4-7.58,7.58-7.58,7.58,3.4,7.58,7.58-3.4,7.58-7.58,7.58Zm0-14.17c-3.63,0-6.58,2.95-6.58,6.58s2.95,6.58,6.58,6.58,6.58-2.95,6.58-6.58-2.95-6.58-6.58-6.58Z"/>
            <path class="cls-3" d="m355.59,117.71c0,2.7-2.19,4.9-4.9,4.9s-4.9-2.19-4.9-4.9,2.19-4.9,4.9-4.9,4.9,2.19,4.9,4.9Z"/>
          </g>
          <circle class="cls-1" cx="183.5" cy="120.33" r="5.58"/>
          <circle class="cls-1" cx="151" cy="120.33" r="5.58"/>
          <circle class="cls-1" cx="79.89" cy="141.62" r="5.58"/>
          <path class="cls-1" d="m38.28,95.14c0,3.08-2.5,5.58-5.58,5.58s-5.58-2.5-5.58-5.58,2.5-5.58,5.58-5.58,5.58,2.5,5.58,5.58Z"/>
          <circle class="cls-3" cx="266.25" cy="97.5" r="2.17"/>
          <circle class="cls-3" cx="311.92" cy="79" r="3.83"/>
          <circle class="cls-1" cx="201.42" cy="79" r="3.83"/>
          <circle class="cls-1" cx="109" cy="97.5" r="3.83"/>
        </g>
        <g>
          <path class="cls-3" d="m529.33,38.92H215.33c-.28,0-.5-.22-.5-.5s.22-.5.5-.5h314c.28,0,.5.22.5.5s-.22.5-.5.5Z"/>
          <circle class="cls-3" cx="212.5" cy="38.42" r="3.83"/>
          <circle class="cls-3" cx="529.33" cy="38.42" r="3.83"/>
        </g>
        <path class="cls-3" d="m578.26,101.44c-.13,0-.26-.05-.35-.15-.2-.2-.2-.51,0-.71l116.49-116.49c.2-.2.51-.2.71,0,.2.2.2.51,0,.71l-116.49,116.49c-.1.1-.23.15-.35.15Z"/>
        <path class="cls-1" d="m592.74,107.93c-.13,0-.26-.05-.35-.15-.2-.2-.2-.51,0-.71l116.49-116.49c.2-.2.51-.2.71,0,.2.2.2.51,0,.71l-116.49,116.49c-.1.1-.23.15-.35.15Z"/>
        <path class="cls-3" d="m718.53,232.31h-167.77l-73.46-73.46c-.2-.2-.2-.51,0-.71.2-.2.51-.2.71,0l73.16,73.16h167.36c.28,0,.5.22.5.5s-.22.5-.5.5Z"/>
      </g>
    </g>
  </g>
</svg>