<?xml version="1.0" encoding="UTF-8"?>
<svg xmlns="http://www.w3.org/2000/svg" xmlns:xlink="http://www.w3.org/1999/xlink" viewBox="0 0 48 32">
  <defs>
    <style>
      .cls-1 {
        fill: #6dccde;
      }

      .cls-1, .cls-2, .cls-3, .cls-4 {
        stroke-width: 0px;
      }

      .cls-5 {
        opacity: .06;
      }

      .cls-6 {
        isolation: isolate;
      }

      .cls-7, .cls-3 {
        fill: #1f285b;
      }

      .cls-2 {
        fill: #fff;
      }

      .cls-8 {
        clip-path: url(#clippath);
      }

      .cls-9 {
        mix-blend-mode: overlay;
      }

      .cls-4 {
        fill: #d9d9d8;
      }
    </style>
    <clipPath id="clippath">
      <rect class="cls-3" x="-330.43" y="91.25" width="2485.03" height="1281.01"/>
    </clipPath>
  </defs>
  <g class="cls-6">
    <g id="Layer_2" data-name="Layer 2">
      <g class="cls-5">
        <g>
          <rect class="cls-7" x="-330.43" y="91.25" width="2485.03" height="1281.01"/>
          <g class="cls-8">
            <g class="cls-9">
              <path class="cls-4" d="m-77,290.85h-180.38c-1.42,0-2.73-.73-3.44-1.92l-90.19-150.99c-.71-1.19-.71-2.65,0-3.84L-260.83-16.9c.71-1.19,2.02-1.92,3.44-1.92H-77c1.42,0,2.73.73,3.44,1.92L16.64,134.09c.71,1.19.71,2.65,0,3.84l-90.19,150.99c-.71,1.19-2.02,1.92-3.44,1.92Zm-178.09-7.69H-79.29L8.6,136.01-79.29-11.14h-175.79l-87.9,147.15,87.9,147.15Z"/>
            </g>
          </g>
        </g>
      </g>
      <g id="Expanded">
        <g>
          <path class="cls-1" d="m24,21.19L6.46,9.84c-.46-.3-.6-.92-.3-1.38s.92-.6,1.38-.3l16.46,10.65,16.46-10.65c.46-.3,1.08-.17,1.38.3s.17,1.08-.3,1.38l-17.54,11.35Z"/>
          <path class="cls-2" d="m44,32H4c-2.21,0-4-1.79-4-4V4C0,1.79,1.79,0,4,0h40c2.21,0,4,1.79,4,4v24c0,2.21-1.79,4-4,4ZM4,2c-1.1,0-2,.9-2,2v24c0,1.1.9,2,2,2h40c1.1,0,2-.9,2-2V4c0-1.1-.9-2-2-2H4Z"/>
          <path class="cls-2" d="m6,26c-.32,0-.64-.16-.83-.44-.31-.46-.18-1.08.28-1.39l9-6c.46-.31,1.08-.18,1.39.28.31.46.18,1.08-.28,1.39l-9,6c-.17.11-.36.17-.55.17Z"/>
          <path class="cls-2" d="m42,26c-.19,0-.38-.06-.55-.17l-9-6c-.46-.31-.58-.93-.28-1.39.31-.46.93-.58,1.39-.28l9,6c.46.31.58.93.28,1.39-.19.29-.51.44-.83.44Z"/>
        </g>
      </g>
    </g>
  </g>
</svg>