<?xml version="1.0" encoding="UTF-8"?>
<svg id="Layer_1" data-name="Layer 1" xmlns="http://www.w3.org/2000/svg" xmlns:xlink="http://www.w3.org/1999/xlink" viewBox="0 0 460 377.01">
  <defs>
    <style>
      .cls-1 {
        fill: url(#New_Gradient_Swatch);
        stroke-width: 0px;
      }
    </style>
    <linearGradient id="New_Gradient_Swatch" data-name="New Gradient Swatch" x1="0" y1="188.5" x2="460" y2="188.5" gradientUnits="userSpaceOnUse">
      <stop offset="0" stop-color="#6dccde"/>
      <stop offset="1" stop-color="#0a588a"/>
    </linearGradient>
  </defs>
  <path class="cls-1" d="m308.35,237.86c.86-2.3,3.44-3.48,5.75-2.61,2.31.86,3.48,3.44,2.62,5.75l-29.93,80.44c-.86,2.3-3.44,3.48-5.74,2.61-2.31-.86-3.49-3.43-2.62-5.74l29.92-80.45Zm18.65,15.47l26.32,26.32-26.32,26.32c-1.96,1.95-1.96,5.15,0,7.11h0c1.96,1.95,5.16,1.95,7.11,0l29.87-29.87h0c1.96-1.96,1.96-5.16,0-7.12l-29.87-29.87c-1.95-1.96-5.15-1.96-7.11,0h0c-1.96,1.96-1.96,5.16,0,7.11Zm-58.86,0l-26.31,26.32,26.31,26.32c1.96,1.95,1.96,5.15,0,7.11h0c-1.95,1.95-5.15,1.95-7.11,0l-29.87-29.87h0c-1.96-1.96-1.96-5.16,0-7.12l29.87-29.87c1.96-1.96,5.16-1.96,7.11,0h0c1.96,1.96,1.96,5.16,0,7.11Zm142.53,123.52h-229.64c-2.76,0-5-2.24-5-5v-184.57c0-2.76,2.24-5,5-5h229.64c2.76,0,5,2.24,5,5v184.57c0,2.76-2.24,5-5,5Zm-224.64-10h219.64v-174.57h-219.64v174.57Zm-133.21-79.97h17.59c3.84,0,6.98,3.15,6.98,6.99h0c0,3.84-3.14,6.98-6.98,6.98h-17.59c-3.84,0-6.98-3.14-6.98-6.98h0c0-3.84,3.14-6.99,6.98-6.99Zm58.27-4.18c6.16,0,11.16,5,11.16,11.17s-5,11.16-11.16,11.16-11.16-5-11.16-11.16,5-11.17,11.16-11.17Zm29.06,41.61H23.44c-12.92,0-23.44-10.51-23.44-23.43v-28.44c0-2.76,2.24-5,5-5h135.15c2.76,0,5,2.24,5,5v46.88c0,2.76-2.24,5-5,5ZM10,277.42v23.44c0,7.41,6.03,13.43,13.44,13.43h111.72v-36.88H10Zm130.15,0H5c-2.76,0-5-2.24-5-5V47.37c0-2.76,2.24-5,5-5h214.15c2.76,0,5,2.24,5,5v139.76c0,2.76-2.24,5-5,5h-36.9c-.45.12-.92.17-1.4.15l-7.12-.25h-15.15c-7.4,0-13.43,6.03-13.43,13.44v66.96c0,2.76-2.24,5-5,5Zm-130.15-10h125.15v-61.96c0-12.92,10.51-23.44,23.43-23.44h15.24c.06,0,.12,0,.18,0l5.98.21c.34-.07.69-.11,1.06-.11h33.12V52.37H10v215.05ZM84.6,32.49c-2.65,0-4.81-2.15-4.81-4.81s2.15-4.81,4.81-4.81h85.86c2.65,0,4.82,2.15,4.82,4.81s-2.16,4.81-4.82,4.81h-85.86Zm-22.77-12.15c4.5,0,8.15,3.65,8.15,8.15s-3.64,8.14-8.15,8.14-8.14-3.64-8.14-8.14,3.65-8.15,8.14-8.15Zm157.32,32.02H5c-2.76,0-5-2.24-5-5v-23.95C0,10.51,10.51,0,23.44,0h177.29c12.92,0,23.42,10.51,23.42,23.42v23.95c0,2.76-2.24,5-5,5ZM10,42.37h204.15v-18.95c0-7.4-6.02-13.42-13.42-13.42H23.44c-7.41,0-13.44,6.02-13.44,13.42v18.95Zm415.22,195.61v-17.59c0-3.84,3.15-6.98,6.99-6.98h0c3.84,0,6.98,3.14,6.98,6.98v17.59c0,3.84-3.14,6.98-6.98,6.98h0c-3.84,0-6.99-3.14-6.99-6.98Zm0,100.92v-17.59c0-3.84,3.15-6.98,6.99-6.98h0c3.84,0,6.98,3.15,6.98,6.98v17.59c0,3.84-3.14,6.99-6.98,6.99h0c-3.84,0-6.99-3.15-6.99-6.99Zm-4.17-58.27c0-6.17,5-11.15,11.16-11.15s11.16,4.99,11.16,11.15-5,11.16-11.16,11.16-11.16-5-11.16-11.16Zm-256.04,26.5c0,2.64-2.16,4.81-4.82,4.81s-4.81-2.16-4.81-4.81v-85.87c0-2.65,2.16-4.81,4.81-4.81s4.82,2.15,4.82,4.81v85.87Zm-12.16,22.76c0-4.49,3.66-8.14,8.15-8.14s8.15,3.64,8.15,8.14-3.64,8.14-8.15,8.14c-4.49,0-8.15-3.64-8.15-8.14Zm283.73,47.12h-25.91c-2.76,0-5-2.24-5-5v-184.73c0-2.76,2.24-5,5-5h25.91c12.92,0,23.42,10.51,23.42,23.44v147.86c0,12.92-10.51,23.43-23.42,23.43Zm-20.91-10h20.91c7.28,0,13.42-6.15,13.42-13.43v-147.86c0-7.28-6.15-13.43-13.42-13.43h-20.91v174.73Zm-234.64,10h-22.45c-12.92,0-23.43-10.51-23.43-23.43v-147.86c0-12.92,10.51-23.44,23.43-23.44h22.45c2.76,0,5,2.24,5,5v184.73c0,2.76-2.24,5-5,5Zm-22.45-184.73c-7.4,0-13.43,6.03-13.43,13.43v147.86c0,7.41,6.02,13.43,13.43,13.43h17.45v-174.73h-17.45Zm-95.12-24.43h-19.61c-3.95,0-7.17-3.22-7.17-7.18v-19.6c0-3.96,3.22-7.18,7.17-7.18h19.61c3.96,0,7.17,3.22,7.17,7.18v19.6c0,3.96-3.22,7.18-7.17,7.18Zm-16.78-10h13.96v-13.97h-13.96v13.97Zm16.78-13.97h0,0Zm0,85.19h-19.61c-3.95,0-7.17-3.22-7.17-7.17v-19.61c0-3.96,3.22-7.17,7.17-7.17h19.61c3.96,0,7.17,3.22,7.17,7.17v19.61c0,3.95-3.22,7.17-7.17,7.17Zm-16.78-10h13.96v-13.96h-13.96v13.96Zm16.78-13.96h0,0Zm53.95,23.96h-19.6c-3.96,0-7.18-3.22-7.18-7.17v-19.61c0-3.96,3.22-7.17,7.18-7.17h19.6c3.96,0,7.18,3.22,7.18,7.17v19.61c0,3.95-3.22,7.17-7.18,7.17Zm-16.78-10h13.97v-13.96h-13.97v13.96Zm16.78-13.96h0,0Zm0-37.27h-19.6c-3.96,0-7.18-3.22-7.18-7.18v-19.6c0-3.96,3.22-7.18,7.18-7.18h19.6c3.96,0,7.18,3.22,7.18,7.18v19.6c0,3.96-3.22,7.18-7.18,7.18Zm-16.78-10h13.97v-13.97h-13.97v13.97Zm16.78-13.97h0,0Zm53.95,23.97h-19.61c-3.95,0-7.17-3.22-7.17-7.18v-19.6c0-3.96,3.22-7.18,7.17-7.18h19.61c3.96,0,7.17,3.22,7.17,7.18v19.6c0,3.96-3.22,7.18-7.17,7.18Zm-16.78-10h13.96v-13.97h-13.96v13.97Zm16.78-13.97h0,0Zm-107.9-36.06h-19.61c-3.95,0-7.17-3.22-7.17-7.17v-19.61c0-3.96,3.22-7.17,7.17-7.17h19.61c3.96,0,7.17,3.22,7.17,7.17v19.61c0,3.96-3.22,7.17-7.17,7.17Zm-16.78-10h13.96v-13.96h-13.96v13.96Zm16.78-13.96h0,0Zm53.95,23.96h-19.6c-3.96,0-7.18-3.22-7.18-7.17v-19.61c0-3.96,3.22-7.17,7.18-7.17h19.6c3.96,0,7.18,3.22,7.18,7.17v19.61c0,3.96-3.22,7.17-7.18,7.17Zm-16.78-10h13.97v-13.96h-13.97v13.96Zm16.78-13.96h0,0Zm53.95,23.96h-19.61c-3.95,0-7.17-3.22-7.17-7.17v-19.61c0-3.96,3.22-7.17,7.17-7.17h19.61c3.96,0,7.17,3.22,7.17,7.17v19.61c0,3.96-3.22,7.17-7.17,7.17Zm-16.78-10h13.96v-13.96h-13.96v13.96Zm16.78-13.96h0,0Z"/>
</svg>