<?xml version="1.0" encoding="UTF-8"?>
<svg id="Layer_3" data-name="Layer 3" xmlns="http://www.w3.org/2000/svg" viewBox="0 0 256.85 166.47">
  <defs>
    <style>
      .cls-1 {
        fill: #fff;
        stroke-width: 0px;
      }
    </style>
  </defs>
  <path class="cls-1" d="m129.14,160.09c.14.14.23.33.23.55,0,.43-.35.78-.78.78H-40.55s-74.23-74.23-74.23-74.23h-43.71c-.43,0-.78-.35-.78-.78,0-.43.35-.78.78-.78h44.35s74.23,74.23,74.23,74.23h168.5c.21,0,.41.09.55.23Z"/>
  <path class="cls-1" d="m186.39,108.36c.14.14.23.33.23.55,0,.43-.35.78-.78.78h-73.09S21.25,18.19,21.25,18.19h-113.47c-.43,0-.78-.35-.78-.78,0-.43.35-.78.78-.78H21.89s91.5,91.5,91.5,91.5h72.44c.21,0,.41.09.55.23Z"/>
  <path class="cls-1" d="m250.65,44.11c.14.14.23.33.23.55,0,.43-.35.78-.78.78H1.03s-26.54,26.54-26.54,26.54h-321.1s-89.89,89.89-89.89,89.89h-27.84c-.43,0-.78-.35-.78-.78,0-.43.35-.78.78-.78h27.2s89.89-89.89,89.89-89.89h.32s320.78,0,320.78,0L.39,43.88h249.71c.21,0,.41.09.55.23Z"/>
  <path class="cls-1" d="m-377.17,169.85c1.19,1.19,3.12,1.19,4.31,0,.4-.4.66-.87.79-1.38h235.68S-52.09,84.18-52.09,84.18H50.12s55.02,55.02,55.02,55.02h87.65c.43,0,.78-.35.78-.78,0-.21-.09-.41-.23-.55s-.33-.23-.55-.23h-87.01s-55.02-55.02-55.02-55.02H-52.73s-84.29,84.29-84.29,84.29h-235.04c-.13-.51-.39-.98-.79-1.38-1.19-1.19-3.12-1.19-4.31,0-1.19,1.19-1.19,3.12,0,4.31Z"/>
  <circle class="cls-1" cx="187.65" cy="108.83" r="4.12" transform="translate(-21.99 164.57) rotate(-45)"/>
  <circle class="cls-1" cx="251.52" cy="44.6" r="4.12" transform="translate(42.13 190.92) rotate(-45)"/>
  <circle class="cls-1" cx="130.63" cy="160.75" r="4.12" transform="translate(-75.4 139.45) rotate(-45)"/>
  <circle class="cls-1" cx="194.97" cy="138.28" r="4.12" transform="translate(-40.67 178.37) rotate(-45)"/>
</svg>