<?xml version="1.0" encoding="UTF-8"?>
<svg id="Layer_3" data-name="Layer 3" xmlns="http://www.w3.org/2000/svg" xmlns:xlink="http://www.w3.org/1999/xlink" viewBox="0 0 889.66 301.41">
  <defs>
    <style>
      .cls-1 {
        opacity: .05;
      }

      .cls-2, .cls-3 {
        fill: #1f285b;
      }

      .cls-4, .cls-5 {
        fill: #fff;
      }

      .cls-4, .cls-5, .cls-3, .cls-6 {
        stroke-width: 0px;
      }

      .cls-5 {
        opacity: .1;
      }

      .cls-6 {
        fill: #5ac8de;
      }
    </style>
    <clipPath id="clippath">
      <rect class="cls-3" x="975.6" y="-820.29" width="2401.9" height="1281.01"/>
    </clipPath>
  </defs>
  <path class="cls-6" d="m281.63,96.05c-3.46,3.46-8.84-1.91-5.38-5.38,3.46-3.46,8.84,1.91,5.38,5.38Z"/>
  <path class="cls-6" d="m215.62,215.15c-1.73,1.73-4.42-.96-2.69-2.69,1.73-1.73,4.42.96,2.69,2.69Z"/>
  <path class="cls-6" d="m293.66,167.13c-1.73,1.73-4.42-.96-2.69-2.69s4.42.96,2.69,2.69Z"/>
  <circle class="cls-4" cx="767.21" cy="283.46" r="8.12" transform="translate(122.74 787.06) rotate(-58.28)"/>
  <ellipse class="cls-5" cx="666.48" cy="136.46" rx="7.59" ry="100.47" transform="translate(98.72 511.24) rotate(-45)"/>
  <circle class="cls-5" cx="819.67" cy="207.8" r="59.61" transform="translate(93.14 640.46) rotate(-45)"/>
  <path class="cls-4" d="m467.57,144.68c-3.46,3.46-8.84-1.91-5.38-5.38,3.46-3.46,8.84,1.91,5.38,5.38Z"/>
  <path class="cls-6" d="m238.8,147.07c-3.46,3.46-8.84-1.91-5.38-5.38,3.46-3.46,8.84,1.91,5.38,5.38Z"/>
  <path class="cls-4" d="m383.47,173.41c-1.73,1.73-4.42-.96-2.69-2.69,1.73-1.73,4.42.96,2.69,2.69Z"/>
  <path class="cls-6" d="m266.41,169.35c-1.73,1.73-4.42-.96-2.69-2.69,1.73-1.73,4.42.96,2.69,2.69Z"/>
  <path class="cls-6" d="m299.64,91.06c-1.73,1.73-4.42-.96-2.69-2.69,1.73-1.73,4.42.96,2.69,2.69Z"/>
  <path class="cls-6" d="m231.32,32.34c-1.73,1.73-4.42-.96-2.69-2.69,1.73-1.73,4.42.96,2.69,2.69Z"/>
  <path class="cls-6" d="m172.53,85.89c-1.73,1.73-4.42-.96-2.69-2.69,1.73-1.73,4.42.96,2.69,2.69Z"/>
  <path class="cls-6" d="m33.94,291.35c-3.46,3.46-8.84-1.91-5.38-5.38s8.84,1.91,5.38,5.38Z"/>
  <path class="cls-6" d="m66.62,282.72c-1.73,1.73-4.42-.96-2.69-2.69,1.73-1.73,4.42.96,2.69,2.69Z"/>
  <path class="cls-4" d="m-642.09,52.88c-.28.28-.45.66-.45,1.08,0,.84.68,1.53,1.53,1.53H-150.08s52.31,52.31,52.31,52.31h632.92s177.18,177.18,177.18,177.18h54.88c.84,0,1.53-.69,1.53-1.53,0-.84-.68-1.53-1.53-1.53h-53.61s-177.18-177.18-177.18-177.18h-.63s-632.29,0-632.29,0l-52.31-52.31h-492.2c-.42,0-.8.17-1.08.45Z"/>
  <path class="cls-4" d="m823.92,212.04c-2.35,2.35-6.15,2.35-8.5,0-.78-.78-1.3-1.72-1.56-2.72h-76.36s-144.96-144.96-144.96-144.96H-193.83s-146.77-146.77-146.77-146.77h-260.29c-.84,0-1.53-.68-1.53-1.53,0-.42.17-.8.45-1.08s.66-.45,1.08-.45h261.55S-192.57,61.31-192.57,61.31h785.75s.63,0,.63,0l144.95,144.95h75.1c.26-1,.78-1.94,1.56-2.72,2.35-2.35,6.15-2.35,8.5,0,2.35,2.35,2.35,6.15,0,8.5Z"/>
  <path class="cls-6" d="m54.66,82.5c-3.46,3.46-8.84-1.91-5.38-5.38s8.84,1.91,5.38,5.38Z"/>
  <path class="cls-6" d="m107.27,170.19c-3.46,3.46-8.84-1.91-5.38-5.38s8.84,1.91,5.38,5.38Z"/>
  <path class="cls-6" d="m10.86,147.19c-1.73,1.73-4.42-.96-2.69-2.69,1.73-1.73,4.42.96,2.69,2.69Z"/>
  <path class="cls-6" d="m155.62,174.52c-1.73,1.73-4.42-.96-2.69-2.69,1.73-1.73,4.42.96,2.69,2.69Z"/>
  <path class="cls-6" d="m116.84,24.22c-1.73,1.73-4.42-.96-2.69-2.69,1.73-1.73,4.42.96,2.69,2.69Z"/>
  <g class="cls-1">
    <rect class="cls-2" x="975.6" y="-820.29" width="2401.9" height="1281.01"/>
  </g>
</svg>