<?xml version="1.0" encoding="UTF-8"?>
<svg id="Layer_1" data-name="Layer 1" xmlns="http://www.w3.org/2000/svg" xmlns:xlink="http://www.w3.org/1999/xlink" viewBox="0 0 460 294.94">
  <defs>
    <style>
      .cls-1 {
        fill: url(#New_Gradient_Swatch);
        stroke-width: 0px;
      }
    </style>
    <linearGradient id="New_Gradient_Swatch" data-name="New Gradient Swatch" x1="0" y1="147.47" x2="460" y2="147.47" gradientUnits="userSpaceOnUse">
      <stop offset="0" stop-color="#6dccde"/>
      <stop offset="1" stop-color="#0a588a"/>
    </linearGradient>
  </defs>
  <path class="cls-1" d="m428.08,235.34H31.91c-2.76,0-5-2.15-5-4.8V17.52C26.91,7.86,35.11,0,45.19,0h369.61c10.08,0,18.28,7.86,18.28,17.52v213.02c0,2.65-2.24,4.8-5,4.8Zm-391.17-9.59h386.17V17.52c0-4.37-3.72-7.93-8.28-7.93H45.19c-4.56,0-8.27,3.56-8.27,7.93v208.22Zm337.47-115.29h-135.1c-4.46,0-8.1-3.63-8.1-8.09v-63.55c0-4.46,3.63-8.09,8.1-8.09h135.1c4.46,0,8.09,3.63,8.09,8.09v63.55c0,4.46-3.63,8.09-8.09,8.09Zm-133.35-9.85h131.59v-60.03h-131.59v60.03Zm133.35-60.03h0,0Zm85.62,234.51v-34.62c0-2.76-2.24-5-5-5H5C2.24,235.46,0,237.69,0,240.46s2.24,5,5,5h445v29.62c0,2.76,2.24,5,5,5s5-2.24,5-5Zm0,0c0-2.76-2.24-5-5-5s-5,2.24-5,5c0,5.44-4.42,9.86-9.85,9.86-2.76,0-5,2.24-5,5s2.24,5,5,5c10.95,0,19.85-8.91,19.85-19.86Zm-14.85,14.86c0-2.76-2.24-5-5-5H16.89c-2.76,0-5,2.24-5,5s2.24,5,5,5h423.26c2.76,0,5-2.24,5-5Zm-423.26,0c0-2.76-2.24-5-5-5-3.8,0-6.89-3.09-6.89-6.89,0-2.76-2.24-5-5-5S0,275.28,0,278.05c0,9.32,7.58,16.89,16.89,16.89,2.76,0,5-2.24,5-5Zm-11.89-11.89v-37.59c0-2.76-2.24-5-5-5S0,237.69,0,240.46v37.59c0,2.76,2.24,5,5,5s5-2.24,5-5Zm167.68-12.85c0-2.76-2.24-5-5-5H26.85c-2.76,0-5,2.24-5,5s2.24,5,5,5h145.83c2.76,0,5-2.24,5-5Zm204.55,8.15c-4.49,0-8.15-3.66-8.15-8.15s3.66-8.14,8.15-8.14,8.14,3.65,8.14,8.14-3.65,8.15-8.14,8.15Zm0-10c-1.03,0-1.86.83-1.86,1.85s.83,1.86,1.86,1.86,1.85-.83,1.85-1.86-.81-1.85-1.85-1.85Zm23.57,10c-4.49,0-8.14-3.66-8.14-8.15s3.65-8.14,8.14-8.14,8.15,3.65,8.15,8.14-3.66,8.15-8.15,8.15Zm0-10c-1.04,0-1.85.81-1.85,1.85s.83,1.86,1.85,1.86,1.86-.85,1.86-1.86-.84-1.85-1.86-1.85Zm21.61,10c-4.49,0-8.14-3.66-8.14-8.15s3.65-8.14,8.14-8.14,8.15,3.65,8.15,8.14-3.66,8.15-8.15,8.15Zm0-10c-1.04,0-1.85.81-1.85,1.85s.83,1.86,1.85,1.86,1.86-.83,1.86-1.86-.82-1.85-1.86-1.85Zm-44.94-130.72c0-2.72-2.2-4.92-4.92-4.92h-143.79c-2.72,0-4.92,2.2-4.92,4.92s2.2,4.92,4.92,4.92h143.79c2.72,0,4.92-2.2,4.92-4.92Zm1.61,24.38c0-2.72-2.2-4.92-4.92-4.92h-198.31c-2.72,0-4.92,2.2-4.92,4.92s2.2,4.92,4.92,4.92h198.31c2.72,0,4.92-2.2,4.92-4.92Zm-218.61,0c0-2.72-2.2-4.92-4.92-4.92h-86.48c-2.72,0-4.92,2.2-4.92,4.92s2.2,4.92,4.92,4.92h86.48c2.72,0,4.92-2.2,4.92-4.92Zm35.17,24.38c0-2.72-2.2-4.92-4.92-4.92h-121.65c-2.72,0-4.92,2.2-4.92,4.92s2.2,4.92,4.92,4.92h121.65c2.72,0,4.92-2.2,4.92-4.92Zm183.44,0c0-2.72-2.2-4.92-4.92-4.92h-163.7c-2.72,0-4.92,2.2-4.92,4.92s2.2,4.92,4.92,4.92h163.7c2.72,0,4.92-2.2,4.92-4.92Zm0,24.38c0-2.72-2.2-4.92-4.92-4.92H74.08c-2.72,0-4.92,2.2-4.92,4.92s2.2,4.92,4.92,4.92h305.09c2.72,0,4.92-2.2,4.92-4.92ZM110.16,114.95c1.95-1.9,1.99-5.01.09-6.96l-27.03-27.73,26.43-27.4c1.89-1.96,1.83-5.07-.12-6.96-1.96-1.89-5.07-1.83-6.96.12l-29.75,30.83c-1.85,1.91-1.84,4.95.02,6.85l30.36,31.15c.96.99,2.24,1.49,3.53,1.49s2.48-.46,3.44-1.4Zm59.44-.09l30.36-31.15c1.86-1.91,1.86-4.94.02-6.85l-29.75-30.83c-1.89-1.96-5-2.01-6.96-.12-1.96,1.89-2.01,5-.12,6.96l26.43,27.4-27.03,27.73c-1.9,1.95-1.86,5.06.09,6.96.96.93,2.2,1.4,3.44,1.4s2.56-.5,3.53-1.49Zm-43.66,12.05l33.01-89.55c.94-2.55-.37-5.38-2.92-6.32-2.55-.94-5.38.36-6.32,2.92l-33.01,89.55c-.94,2.55.37,5.38,2.92,6.32.56.21,1.14.31,1.7.31,2,0,3.89-1.23,4.62-3.22Z"/>
</svg>